Grandstander-ExtraLightItalic.ufo
<glyph name="exclam" format="2">
  <advance width="708.0"/>
  <unicode hex="0021"/>
  <outline>
    <contour>
      <point x="324.0" y="357.0" type="curve"/>
      <point x="400.875" y="638.0"/>
      <point x="588.625" y="1266.125"/>
      <point x="668.25" y="1465.375" type="curve"/>
      <point x="542.625" y="1472.125" type="line"/>
      <point x="475.0" y="1294.25"/>
      <point x="306.125" y="682.75"/>
      <point x="223.75" y="362.625" type="curve"/>
      <point x="239.25" y="359.625"/>
      <point x="304.125" y="357.0"/>
    </contour>
    <contour>
      <point x="198.5" y="-27.0" type="curve" smooth="yes"/>
      <point x="278.0" y="-27.0"/>
      <point x="349.125" y="34.0"/>
      <point x="349.125" y="115.5" type="curve" smooth="yes"/>
      <point x="349.125" y="175.0"/>
      <point x="305.375" y="214.5"/>
      <point x="241.375" y="214.5" type="curve" smooth="yes"/>
      <point x="159.625" y="214.5"/>
      <point x="83.5" y="161.625"/>
      <point x="83.5" y="74.625" type="curve" smooth="yes"/>
      <point x="83.5" y="17.5"/>
      <point x="123.375" y="-27.0"/>
    </contour>
  </outline>
</glyph>
<glyph name="quotedbl" format="2">
  <advance width="764.0"/>
  <unicode hex="0022"/>
  <outline>
    <contour>
      <point x="441.75" y="1046.875" type="curve"/>
      <point x="474.625" y="1127.0"/>
      <point x="518.0" y="1266.625"/>
      <point x="556.0" y="1406.0" type="curve" smooth="yes"/>
      <point x="562.25" y="1428.75"/>
      <point x="566.125" y="1448.125"/>
      <point x="567.0" y="1460.5" type="curve"/>
      <point x="556.625" y="1462.0"/>
      <point x="545.5" y="1462.25"/>
      <point x="534.25" y="1462.25" type="curve" smooth="yes"/>
      <point x="502.0" y="1462.25"/>
      <point x="474.75" y="1456.25"/>
      <point x="455.125" y="1449.5" type="curve"/>
      <point x="435.125" y="1375.625"/>
      <point x="391.875" y="1142.0"/>
      <point x="379.625" y="1052.125" type="curve"/>
      <point x="387.375" y="1048.0"/>
      <point x="423.75" y="1046.875"/>
    </contour>
    <contour>
      <point x="588.875" y="1052.875" type="curve"/>
      <point x="600.5" y="1052.0"/>
      <point x="628.125" y="1051.75"/>
      <point x="655.375" y="1053.625" type="curve"/>
      <point x="704.875" y="1171.75"/>
      <point x="769.25" y="1339.625"/>
      <point x="790.25" y="1424.25" type="curve" smooth="yes"/>
      <point x="793.125" y="1435.75"/>
      <point x="795.875" y="1447.0"/>
      <point x="796.875" y="1455.625" type="curve"/>
      <point x="770.125" y="1457.125"/>
      <point x="719.25" y="1456.875"/>
      <point x="698.75" y="1456.0" type="curve"/>
      <point x="682.625" y="1408.5"/>
      <point x="645.375" y="1281.0"/>
      <point x="620.375" y="1184.625" type="curve" smooth="yes"/>
      <point x="608.375" y="1139.375"/>
      <point x="593.75" y="1077.5"/>
    </contour>
  </outline>
</glyph>
<glyph name="numbersign" format="2">
  <advance width="1511.0"/>
  <unicode hex="0023"/>
  <outline>
    <contour>
      <point x="170.125" y="886.25" type="curve"/>
      <point x="351.125" y="887.0"/>
      <point x="588.625" y="896.375"/>
      <point x="835.0" y="907.625" type="curve" smooth="yes"/>
      <point x="1084.5" y="919.125"/>
      <point x="1344.0" y="929.25"/>
      <point x="1566.0" y="930.5" type="curve"/>
      <point x="1581.875" y="961.625"/>
      <point x="1601.0" y="1020.625"/>
      <point x="1610.5" y="1055.25" type="curve"/>
      <point x="1378.5" y="1054.625"/>
      <point x="1139.25" y="1039.875"/>
      <point x="899.625" y="1024.75" type="curve" smooth="yes"/>
      <point x="668.875" y="1010.0"/>
      <point x="429.125" y="994.75"/>
      <point x="206.75" y="993.625" type="curve"/>
      <point x="197.875" y="973.375"/>
      <point x="179.625" y="920.875"/>
    </contour>
    <contour>
      <point x="1406.25" y="459.625" type="curve"/>
      <point x="1418.625" y="481.125"/>
      <point x="1442.625" y="542.375"/>
      <point x="1454.75" y="588.375" type="curve"/>
      <point x="1293.625" y="590.25"/>
      <point x="1129.875" y="592.75"/>
      <point x="964.5" y="595.375" type="curve" smooth="yes"/>
      <point x="805.5" y="598.0"/>
      <point x="644.125" y="599.5"/>
      <point x="483.0" y="598.875" type="curve" smooth="yes"/>
      <point x="341.875" y="598.125"/>
      <point x="201.5" y="596.375"/>
      <point x="62.0" y="591.125" type="curve"/>
      <point x="49.0" y="562.0"/>
      <point x="31.0" y="512.625"/>
      <point x="22.625" y="481.25" type="curve"/>
      <point x="92.625" y="484.0"/>
      <point x="170.625" y="485.25"/>
      <point x="254.0" y="485.25" type="curve" smooth="yes"/>
      <point x="424.125" y="485.25"/>
      <point x="618.125" y="484.875"/>
      <point x="810.25" y="477.125" type="curve" smooth="yes"/>
      <point x="1016.25" y="469.0"/>
      <point x="1222.5" y="461.25"/>
    </contour>
    <contour>
      <point x="308.625" y="-1.75" type="curve"/>
      <point x="343.5" y="-1.75"/>
      <point x="409.625" y="2.25"/>
      <point x="439.25" y="7.75" type="curve"/>
      <point x="564.375" y="473.875"/>
      <point x="766.5" y="1191.625"/>
      <point x="857.375" y="1476.75" type="curve"/>
      <point x="821.5" y="1476.75"/>
      <point x="774.125" y="1475.5"/>
      <point x="743.375" y="1469.375" type="curve"/>
      <point x="592.0" y="1022.25"/>
      <point x="408.25" y="371.375"/>
    </contour>
    <contour>
      <point x="855.625" y="79.875" type="curve"/>
      <point x="892.0" y="79.875"/>
      <point x="957.0" y="88.375"/>
      <point x="986.0" y="93.125" type="curve"/>
      <point x="1038.375" y="371.125"/>
      <point x="1119.25" y="703.875"/>
      <point x="1199.5" y="1004.25" type="curve" smooth="yes"/>
      <point x="1246.625" y="1181.0"/>
      <point x="1293.75" y="1347.125"/>
      <point x="1335.0" y="1483.75" type="curve"/>
      <point x="1294.0" y="1483.75"/>
      <point x="1243.625" y="1480.125"/>
      <point x="1213.5" y="1475.125" type="curve"/>
      <point x="1156.875" y="1300.625"/>
      <point x="1100.375" y="1107.5"/>
      <point x="1046.625" y="907.125" type="curve" smooth="yes"/>
      <point x="974.125" y="635.125"/>
      <point x="906.125" y="348.0"/>
    </contour>
  </outline>
</glyph>
<glyph name="dollar" format="2">
  <advance width="1027.0"/>
  <unicode hex="0024"/>
  <anchor x="407.125" y="95.5" name="bottom"/>
  <anchor x="722.5" y="1258.0" name="top"/>
  <outline>
    <contour>
      <point x="382.0" y="-82.0" type="line"/>
      <point x="398.375" y="-30.125"/>
      <point x="438.125" y="87.375"/>
      <point x="455.125" y="131.375" type="curve"/>
      <point x="343.875" y="138.125" type="line"/>
      <point x="328.75" y="104.125"/>
      <point x="275.75" y="-45.125"/>
      <point x="268.5" y="-74.375" type="curve"/>
    </contour>
    <contour>
      <point x="658.0" y="1219.0" type="curve"/>
      <point x="761.25" y="1219.25" type="line"/>
      <point x="772.875" y="1257.25"/>
      <point x="802.25" y="1362.5"/>
      <point x="815.75" y="1411.5" type="curve"/>
      <point x="713.75" y="1408.125" type="line"/>
      <point x="704.25" y="1374.0"/>
      <point x="667.625" y="1250.0"/>
    </contour>
    <component base="s" xOffset="67.5" yOffset="156.75"/>
  </outline>
</glyph>
<glyph name="percent" format="2">
  <advance width="1385.0"/>
  <unicode hex="0025"/>
  <outline>
    <contour>
      <point x="104.625" y="-10.375" type="curve"/>
      <point x="331.625" y="193.75"/>
      <point x="1237.125" y="1127.125"/>
      <point x="1443.75" y="1363.5" type="curve"/>
      <point x="1431.125" y="1383.875"/>
      <point x="1393.625" y="1410.125"/>
      <point x="1370.25" y="1419.375" type="curve"/>
      <point x="1136.125" y="1143.125"/>
      <point x="396.5" y="386.5"/>
      <point x="40.25" y="38.875" type="curve"/>
      <point x="53.25" y="23.375"/>
      <point x="87.75" y="-0.5"/>
    </contour>
    <contour>
      <point x="936.25" y="206.625" type="curve" smooth="yes"/>
      <point x="852.5" y="206.625"/>
      <point x="815.75" y="249.5"/>
      <point x="815.75" y="315.125" type="curve" smooth="yes"/>
      <point x="815.75" y="426.375"/>
      <point x="908.0" y="528.375"/>
      <point x="1013.125" y="528.375" type="curve" smooth="yes"/>
      <point x="1092.375" y="528.375"/>
      <point x="1136.25" y="489.0"/>
      <point x="1136.25" y="423.875" type="curve" smooth="yes"/>
      <point x="1136.25" y="311.625"/>
      <point x="1052.5" y="206.625"/>
    </contour>
    <contour>
      <point x="928.625" y="130.5" type="curve" smooth="yes"/>
      <point x="1091.625" y="130.5"/>
      <point x="1223.375" y="278.875"/>
      <point x="1223.375" y="439.25" type="curve" smooth="yes"/>
      <point x="1223.375" y="540.5"/>
      <point x="1159.875" y="612.25"/>
      <point x="1029.125" y="612.25" type="curve" smooth="yes"/>
      <point x="875.125" y="612.25"/>
      <point x="730.25" y="459.125"/>
      <point x="730.25" y="297.5" type="curve" smooth="yes"/>
      <point x="730.25" y="189.125"/>
      <point x="806.0" y="130.5"/>
    </contour>
    <contour>
      <point x="528.0" y="809.125" type="curve" smooth="yes"/>
      <point x="692.875" y="809.125"/>
      <point x="829.125" y="947.625"/>
      <point x="829.125" y="1108.625" type="curve" smooth="yes"/>
      <point x="829.125" y="1209.625"/>
      <point x="756.25" y="1269.75"/>
      <point x="640.25" y="1269.75" type="curve" smooth="yes"/>
      <point x="477.125" y="1269.75"/>
      <point x="338.875" y="1139.125"/>
      <point x="338.875" y="979.875" type="curve" smooth="yes"/>
      <point x="338.875" y="878.5"/>
      <point x="406.625" y="809.125"/>
    </contour>
    <contour>
      <point x="547.375" y="891.375" type="curve" smooth="yes"/>
      <point x="467.25" y="891.375"/>
      <point x="426.875" y="925.5"/>
      <point x="426.875" y="989.75" type="curve" smooth="yes"/>
      <point x="426.875" y="1105.625"/>
      <point x="515.25" y="1194.875"/>
      <point x="640.125" y="1194.875" type="curve" smooth="yes"/>
      <point x="701.125" y="1194.875"/>
      <point x="739.375" y="1157.0"/>
      <point x="739.375" y="1092.5" type="curve" smooth="yes"/>
      <point x="739.375" y="986.375"/>
      <point x="660.75" y="891.375"/>
    </contour>
  </outline>
</glyph>
<glyph name="ampersand" format="2">
  <advance width="1395.0"/>
  <unicode hex="0026"/>
  <outline>
    <contour>
      <point x="447.375" y="-108.75" type="curve" smooth="yes"/>
      <point x="736.5" y="-108.75"/>
      <point x="943.0" y="77.375"/>
      <point x="987.875" y="127.375" type="curve"/>
      <point x="1010.125" y="88.0"/>
      <point x="1071.875" y="-16.75"/>
      <point x="1101.5" y="-63.5" type="curve"/>
      <point x="1124.0" y="-52.5"/>
      <point x="1184.625" y="0.5"/>
      <point x="1205.875" y="21.75" type="curve"/>
      <point x="1171.75" y="76.625"/>
      <point x="1111.5" y="171.5"/>
      <point x="1074.375" y="226.5" type="curve"/>
      <point x="1162.75" y="318.875"/>
      <point x="1291.625" y="467.75"/>
      <point x="1311.0" y="499.25" type="curve"/>
      <point x="1292.0" y="524.25"/>
      <point x="1244.5" y="554.375"/>
      <point x="1220.125" y="567.625" type="curve"/>
      <point x="1200.0" y="540.0"/>
      <point x="1061.625" y="368.625"/>
      <point x="1007.25" y="313.75" type="curve"/>
      <point x="933.375" y="429.5"/>
      <point x="771.375" y="683.875"/>
      <point x="703.0" y="789.25" type="curve"/>
      <point x="877.0" y="895.875"/>
      <point x="1050.0" y="1026.5"/>
      <point x="1050.0" y="1219.75" type="curve" smooth="yes"/>
      <point x="1050.0" y="1321.25"/>
      <point x="984.625" y="1408.25"/>
      <point x="829.5" y="1408.25" type="curve" smooth="yes"/>
      <point x="629.875" y="1408.25"/>
      <point x="471.375" y="1270.5"/>
      <point x="471.375" y="1077.125" type="curve" smooth="yes"/>
      <point x="471.375" y="972.375"/>
      <point x="528.5" y="875.375"/>
      <point x="562.0" y="832.375" type="curve"/>
      <point x="315.25" y="700.875"/>
      <point x="53.75" y="520.375"/>
      <point x="53.75" y="224.375" type="curve" smooth="yes"/>
      <point x="53.75" y="23.625"/>
      <point x="188.5" y="-108.75"/>
    </contour>
    <contour>
      <point x="467.5" y="-3.875" type="curve" smooth="yes"/>
      <point x="285.5" y="-3.875"/>
      <point x="171.125" y="88.25"/>
      <point x="171.125" y="239.25" type="curve" smooth="yes"/>
      <point x="171.125" y="498.375"/>
      <point x="410.375" y="634.625"/>
      <point x="613.25" y="747.25" type="curve"/>
      <point x="674.25" y="641.25"/>
      <point x="845.625" y="347.125"/>
      <point x="931.5" y="222.125" type="curve"/>
      <point x="888.875" y="176.5"/>
      <point x="711.875" y="-3.875"/>
    </contour>
    <contour>
      <point x="655.875" y="869.25" type="curve"/>
      <point x="615.625" y="927.75"/>
      <point x="582.25" y="1003.125"/>
      <point x="582.25" y="1082.125" type="curve" smooth="yes"/>
      <point x="582.25" y="1213.5"/>
      <point x="684.5" y="1312.75"/>
      <point x="811.875" y="1312.75" type="curve" smooth="yes"/>
      <point x="906.125" y="1312.75"/>
      <point x="939.875" y="1268.875"/>
      <point x="939.875" y="1212.375" type="curve" smooth="yes"/>
      <point x="939.875" y="1075.75"/>
      <point x="796.0" y="949.875"/>
    </contour>
  </outline>
</glyph>
<glyph name="quotesingle" format="2">
  <advance width="462.0"/>
  <unicode hex="0027"/>
  <outline>
    <contour>
      <point x="511.0" y="1384.25" type="curve" smooth="yes"/>
      <point x="518.125" y="1411.875"/>
      <point x="525.125" y="1439.875"/>
      <point x="529.625" y="1458.875" type="curve"/>
      <point x="517.0" y="1460.375"/>
      <point x="502.375" y="1461.5"/>
      <point x="486.5" y="1461.5" type="curve" smooth="yes"/>
      <point x="461.125" y="1461.5"/>
      <point x="433.375" y="1459.0"/>
      <point x="409.875" y="1455.5" type="curve"/>
      <point x="391.375" y="1379.25"/>
      <point x="350.125" y="1165.375"/>
      <point x="326.5" y="1033.625" type="curve"/>
      <point x="336.125" y="1032.25"/>
      <point x="350.875" y="1030.125"/>
      <point x="366.625" y="1030.125" type="curve" smooth="yes"/>
      <point x="376.625" y="1030.125"/>
      <point x="386.875" y="1030.375"/>
      <point x="396.75" y="1031.75" type="curve"/>
      <point x="436.25" y="1134.75"/>
      <point x="482.25" y="1274.5"/>
    </contour>
  </outline>
</glyph>
<glyph name="parenleft" format="2">
  <advance width="677.0"/>
  <unicode hex="0028"/>
  <outline>
    <contour>
      <point x="128.625" y="-478.375" type="curve"/>
      <point x="149.125" y="-469.625"/>
      <point x="210.75" y="-428.5"/>
      <point x="237.125" y="-409.375" type="curve"/>
      <point x="192.125" y="-330.625"/>
      <point x="168.0" y="-163.625"/>
      <point x="168.0" y="-8.875" type="curve" smooth="yes"/>
      <point x="168.0" y="473.875"/>
      <point x="407.125" y="1067.0"/>
      <point x="735.75" y="1472.625" type="curve"/>
      <point x="719.25" y="1484.25"/>
      <point x="664.125" y="1505.75"/>
      <point x="637.375" y="1511.75" type="curve"/>
      <point x="305.375" y="1112.25"/>
      <point x="52.375" y="503.375"/>
      <point x="52.375" y="-34.375" type="curve" smooth="yes"/>
      <point x="52.375" y="-196.625"/>
      <point x="77.625" y="-381.625"/>
    </contour>
  </outline>
</glyph>
<glyph name="parenright" format="2">
  <advance width="651.0"/>
  <unicode hex="0029"/>
  <outline>
    <contour>
      <point x="466.0" y="1003.875" type="curve" smooth="yes"/>
      <point x="466.0" y="525.875"/>
      <point x="228.125" y="-8.125"/>
      <point x="-101.375" y="-380.0" type="curve"/>
      <point x="-84.5" y="-392.75"/>
      <point x="-23.5" y="-415.75"/>
      <point x="-0.375" y="-421.75" type="curve"/>
      <point x="315.375" y="-79.375"/>
      <point x="581.875" y="522.5"/>
      <point x="581.875" y="988.75" type="curve" smooth="yes"/>
      <point x="581.875" y="1165.375"/>
      <point x="553.0" y="1376.25"/>
      <point x="491.5" y="1514.5" type="curve"/>
      <point x="452.0" y="1505.375"/>
      <point x="410.125" y="1488.375"/>
      <point x="381.625" y="1473.5" type="curve"/>
      <point x="431.75" y="1388.625"/>
      <point x="466.0" y="1193.25"/>
    </contour>
  </outline>
</glyph>
<glyph name="asterisk" format="2">
  <advance width="929.625"/>
  <unicode hex="002A"/>
  <outline>
    <contour>
      <point x="877.125" y="1025.25" type="curve"/>
      <point x="899.5" y="1045.0"/>
      <point x="937.375" y="1081.75"/>
      <point x="956.25" y="1113.75" type="curve"/>
      <point x="874.25" y="1166.75"/>
      <point x="747.375" y="1235.625"/>
      <point x="656.625" y="1282.625" type="curve"/>
      <point x="581.625" y="1345.625"/>
      <point x="475.75" y="1426.25"/>
      <point x="405.375" y="1479.0" type="curve"/>
      <point x="376.125" y="1454.5"/>
      <point x="345.375" y="1417.125"/>
      <point x="319.0" y="1381.125" type="curve"/>
      <point x="398.375" y="1328.25"/>
      <point x="503.125" y="1271.125"/>
      <point x="589.875" y="1228.125" type="curve"/>
      <point x="669.125" y="1164.875"/>
      <point x="790.75" y="1077.75"/>
    </contour>
    <contour>
      <point x="555.125" y="885.5" type="curve" smooth="yes"/>
      <point x="577.0" y="885.5"/>
      <point x="598.0" y="887.875"/>
      <point x="612.125" y="890.125" type="curve"/>
      <point x="634.875" y="977.375"/>
      <point x="670.5" y="1141.375"/>
      <point x="693.625" y="1248.25" type="curve"/>
      <point x="728.25" y="1347.375"/>
      <point x="762.75" y="1456.625"/>
      <point x="790.375" y="1561.75" type="curve"/>
      <point x="778.125" y="1564.875"/>
      <point x="757.0" y="1567.0"/>
      <point x="735.625" y="1567.0" type="curve" smooth="yes"/>
      <point x="714.25" y="1567.0"/>
      <point x="692.625" y="1564.875"/>
      <point x="675.75" y="1561.75" type="curve"/>
      <point x="650.125" y="1463.25"/>
      <point x="625.625" y="1356.75"/>
      <point x="608.5" y="1248.25" type="curve"/>
      <point x="568.875" y="1128.5"/>
      <point x="527.25" y="996.5"/>
      <point x="496.0" y="890.125" type="curve"/>
      <point x="509.0" y="887.0"/>
      <point x="532.5" y="885.5"/>
    </contour>
    <contour>
      <point x="285.375" y="1016.75" type="curve"/>
      <point x="404.5" y="1074.75"/>
      <point x="566.125" y="1154.75"/>
      <point x="681.25" y="1216.125" type="curve"/>
      <point x="791.25" y="1261.0"/>
      <point x="934.125" y="1321.875"/>
      <point x="1039.375" y="1371.375" type="curve"/>
      <point x="1035.125" y="1407.375"/>
      <point x="1016.25" y="1459.375"/>
      <point x="1003.375" y="1478.625" type="curve"/>
      <point x="903.625" y="1428.625"/>
      <point x="751.25" y="1349.125"/>
      <point x="643.375" y="1285.25" type="curve"/>
      <point x="525.0" y="1236.0"/>
      <point x="359.25" y="1166.125"/>
      <point x="249.25" y="1113.125" type="curve"/>
      <point x="253.375" y="1086.375"/>
      <point x="275.0" y="1028.75"/>
    </contour>
  </outline>
</glyph>
<glyph name="plus" format="2">
  <advance width="1050.0"/>
  <unicode hex="002B"/>
  <outline>
    <contour>
      <point x="948.5" y="702.125" type="curve"/>
      <point x="954.5" y="718.375"/>
      <point x="969.5" y="766.5"/>
      <point x="974.0" y="798.125" type="curve"/>
      <point x="849.375" y="778.5"/>
      <point x="598.625" y="762.75"/>
      <point x="347.625" y="762.75" type="curve" smooth="yes"/>
      <point x="247.625" y="762.75"/>
      <point x="163.125" y="765.375"/>
      <point x="119.75" y="770.125" type="curve"/>
      <point x="114.0" y="751.25"/>
      <point x="103.0" y="696.625"/>
      <point x="102.5" y="672.25" type="curve"/>
      <point x="174.875" y="664.125"/>
      <point x="288.875" y="660.125"/>
      <point x="402.25" y="660.125" type="curve" smooth="yes"/>
      <point x="651.125" y="660.125"/>
      <point x="842.0" y="678.125"/>
    </contour>
    <contour>
      <point x="661.125" y="1178.625" type="curve"/>
      <point x="649.25" y="1179.5"/>
      <point x="576.25" y="1179.5"/>
      <point x="560.5" y="1179.125" type="curve"/>
      <point x="541.875" y="1024.375"/>
      <point x="500.25" y="815.5"/>
      <point x="450.125" y="629.375" type="curve" smooth="yes"/>
      <point x="414.0" y="494.25"/>
      <point x="373.5" y="366.5"/>
      <point x="334.5" y="266.125" type="curve"/>
      <point x="360.25" y="265.5"/>
      <point x="417.75" y="264.375"/>
      <point x="434.0" y="267.0" type="curve"/>
      <point x="485.5" y="399.25"/>
      <point x="532.25" y="541.375"/>
      <point x="568.875" y="678.25" type="curve" smooth="yes"/>
      <point x="617.25" y="859.0"/>
      <point x="650.625" y="1034.5"/>
    </contour>
  </outline>
</glyph>
<glyph name="comma" format="2">
  <advance width="667.0"/>
  <unicode hex="002C"/>
  <outline>
    <contour>
      <point x="136.0" y="-216.5" type="curve"/>
      <point x="247.0" y="-134.25"/>
      <point x="369.5" y="34.5"/>
      <point x="369.5" y="154.125" type="curve" smooth="yes"/>
      <point x="369.5" y="227.375"/>
      <point x="311.125" y="268.125"/>
      <point x="224.375" y="268.125" type="curve" smooth="yes"/>
      <point x="125.0" y="268.125"/>
      <point x="55.5" y="201.0"/>
      <point x="55.5" y="122.625" type="curve" smooth="yes"/>
      <point x="55.5" y="66.125"/>
      <point x="84.875" y="28.5"/>
      <point x="154.375" y="28.5" type="curve" smooth="yes"/>
      <point x="222.5" y="28.5"/>
      <point x="259.875" y="69.75"/>
      <point x="271.25" y="109.0" type="curve"/>
      <point x="272.125" y="106.875"/>
      <point x="272.0" y="102.75"/>
      <point x="271.875" y="98.875" type="curve" smooth="yes"/>
      <point x="270.625" y="31.125"/>
      <point x="147.875" y="-115.5"/>
      <point x="79.125" y="-170.125" type="curve"/>
      <point x="89.75" y="-188.625"/>
      <point x="123.0" y="-210.0"/>
    </contour>
  </outline>
</glyph>
<glyph name="hyphen" format="2">
  <advance width="872.625"/>
  <unicode hex="002D"/>
  <outline>
    <contour>
      <point x="871.5" y="744.25" type="curve"/>
      <point x="815.75" y="747.75"/>
      <point x="708.375" y="748.375"/>
      <point x="577.5" y="748.375" type="curve" smooth="yes"/>
      <point x="380.25" y="748.375"/>
      <point x="223.5" y="736.375"/>
      <point x="110.125" y="726.25" type="curve"/>
      <point x="101.875" y="701.0"/>
      <point x="89.875" y="655.125"/>
      <point x="85.125" y="628.625" type="curve"/>
      <point x="253.375" y="639.75"/>
      <point x="608.375" y="648.125"/>
      <point x="847.0" y="648.125" type="curve"/>
      <point x="855.25" y="672.75"/>
      <point x="866.75" y="714.625"/>
    </contour>
  </outline>
</glyph>
<glyph name="period" format="2">
  <advance width="632.0"/>
  <unicode hex="002E"/>
  <outline>
    <contour>
      <point x="186.875" y="214.5" type="curve" smooth="yes"/>
      <point x="103.125" y="214.5"/>
      <point x="24.75" y="153.375"/>
      <point x="24.75" y="70.375" type="curve" smooth="yes"/>
      <point x="24.75" y="12.875"/>
      <point x="78.625" y="-38.0"/>
      <point x="138.375" y="-38.0" type="curve" smooth="yes"/>
      <point x="224.625" y="-38.0"/>
      <point x="294.0" y="28.75"/>
      <point x="294.0" y="115.875" type="curve" smooth="yes"/>
      <point x="294.0" y="172.0"/>
      <point x="246.125" y="214.5"/>
    </contour>
  </outline>
</glyph>
<glyph name="slash" format="2">
  <advance width="969.0"/>
  <unicode hex="002F"/>
  <outline>
    <contour>
      <point x="1063.0" y="1478.75" type="curve"/>
      <point x="725.125" y="962.875"/>
      <point x="193.0" y="287.25"/>
      <point x="-167.25" y="-104.625" type="curve"/>
      <point x="-150.0" y="-119.625"/>
      <point x="-98.875" y="-142.375"/>
      <point x="-69.25" y="-150.75" type="curve"/>
      <point x="229.75" y="156.625"/>
      <point x="735.375" y="806.0"/>
      <point x="1161.375" y="1431.375" type="curve"/>
      <point x="1146.125" y="1451.125"/>
      <point x="1108.125" y="1468.375"/>
    </contour>
  </outline>
</glyph>
<glyph name="zero" format="2">
  <advance width="1087.0"/>
  <unicode hex="0030"/>
  <outline>
    <contour>
      <point x="407.125" y="-32.0" type="curve" smooth="yes"/>
      <point x="754.75" y="-32.0"/>
      <point x="1002.0" y="561.125"/>
      <point x="1002.0" y="987.375" type="curve" smooth="yes"/>
      <point x="1002.0" y="1212.25"/>
      <point x="925.125" y="1338.0"/>
      <point x="744.75" y="1338.0" type="curve" smooth="yes"/>
      <point x="416.25" y="1338.0"/>
      <point x="147.5" y="753.75"/>
      <point x="147.5" y="357.0" type="curve" smooth="yes"/>
      <point x="147.5" y="120.625"/>
      <point x="220.5" y="-32.0"/>
    </contour>
    <contour>
      <point x="424.25" y="79.875" type="curve" smooth="yes"/>
      <point x="312.75" y="79.875"/>
      <point x="264.125" y="177.875"/>
      <point x="264.125" y="362.0" type="curve" smooth="yes"/>
      <point x="264.125" y="657.0"/>
      <point x="479.75" y="1230.75"/>
      <point x="729.875" y="1230.75" type="curve" smooth="yes"/>
      <point x="842.875" y="1230.75"/>
      <point x="886.375" y="1127.875"/>
      <point x="886.375" y="949.0" type="curve" smooth="yes"/>
      <point x="886.375" y="623.0"/>
      <point x="678.875" y="79.875"/>
    </contour>
  </outline>
</glyph>
<glyph name="one" format="2">
  <advance width="809.0"/>
  <unicode hex="0031"/>
  <outline>
    <contour>
      <point x="341.125" y="119.375" type="curve"/>
      <point x="368.875" y="209.5"/>
      <point x="396.625" y="306.125"/>
      <point x="422.125" y="402.0" type="curve" smooth="yes"/>
      <point x="536.875" y="832.625"/>
      <point x="641.5" y="1289.75"/>
      <point x="644.25" y="1312.375" type="curve"/>
      <point x="627.125" y="1314.625"/>
      <point x="582.5" y="1317.125"/>
      <point x="549.875" y="1317.125" type="curve"/>
      <point x="461.0" y="1256.5"/>
      <point x="209.75" y="1056.375"/>
      <point x="168.875" y="1022.875" type="curve"/>
      <point x="174.125" y="996.0"/>
      <point x="195.375" y="940.375"/>
      <point x="204.0" y="923.875" type="curve"/>
      <point x="236.0" y="952.125"/>
      <point x="476.375" y="1143.875"/>
      <point x="510.625" y="1169.625" type="curve"/>
      <point x="474.375" y="1034.625"/>
      <point x="252.375" y="198.375"/>
      <point x="235.5" y="117.5" type="curve"/>
      <point x="200.25" y="117.0"/>
      <point x="26.625" y="103.25"/>
      <point x="-17.625" y="95.875" type="curve"/>
      <point x="-26.125" y="80.75"/>
      <point x="-41.0" y="26.75"/>
      <point x="-44.5" y="-12.0" type="curve"/>
      <point x="30.5" y="-5.625"/>
      <point x="473.625" y="9.0"/>
      <point x="549.75" y="9.0" type="curve"/>
      <point x="563.25" y="35.75"/>
      <point x="581.5" y="89.375"/>
      <point x="589.0" y="112.25" type="curve"/>
      <point x="560.125" y="115.0"/>
      <point x="408.625" y="119.375"/>
    </contour>
  </outline>
</glyph>
<glyph name="two" format="2">
  <advance width="995.0"/>
  <unicode hex="0032"/>
  <outline>
    <contour>
      <point x="812.125" y="144.5" type="curve"/>
      <point x="678.875" y="139.625"/>
      <point x="252.0" y="109.5"/>
      <point x="162.25" y="99.5" type="curve"/>
      <point x="208.0" y="139.25"/>
      <point x="496.0" y="405.25"/>
      <point x="659.875" y="571.0" type="curve" smooth="yes"/>
      <point x="823.375" y="736.375"/>
      <point x="1035.625" y="969.25"/>
      <point x="1035.625" y="1160.0" type="curve" smooth="yes"/>
      <point x="1035.625" y="1279.625"/>
      <point x="931.125" y="1364.0"/>
      <point x="783.625" y="1364.0" type="curve" smooth="yes"/>
      <point x="556.5" y="1364.0"/>
      <point x="342.125" y="1223.25"/>
      <point x="212.0" y="1016.125" type="curve"/>
      <point x="229.75" y="995.25"/>
      <point x="273.625" y="959.625"/>
      <point x="290.25" y="949.75" type="curve"/>
      <point x="409.625" y="1131.125"/>
      <point x="558.25" y="1259.0"/>
      <point x="755.125" y="1259.0" type="curve" smooth="yes"/>
      <point x="846.25" y="1259.0"/>
      <point x="921.25" y="1221.5"/>
      <point x="921.25" y="1133.0" type="curve" smooth="yes"/>
      <point x="921.25" y="957.875"/>
      <point x="613.625" y="659.75"/>
      <point x="451.0" y="504.5" type="curve" smooth="yes"/>
      <point x="284.5" y="345.125"/>
      <point x="86.125" y="157.625"/>
      <point x="-4.375" y="80.625" type="curve"/>
      <point x="-10.75" y="42.5"/>
      <point x="-13.25" y="5.0"/>
      <point x="-14.25" y="-17.0" type="curve"/>
      <point x="777.375" y="27.0" type="line"/>
      <point x="788.375" y="49.0"/>
      <point x="807.75" y="112.75"/>
    </contour>
  </outline>
</glyph>
<glyph name="three" format="2">
  <advance width="1032.0"/>
  <unicode hex="0033"/>
  <outline>
    <contour>
      <point x="385.875" y="-3.0" type="curve" smooth="yes"/>
      <point x="679.125" y="-3.0"/>
      <point x="931.125" y="173.875"/>
      <point x="931.125" y="457.125" type="curve" smooth="yes"/>
      <point x="931.125" y="621.375"/>
      <point x="815.5" y="707.5"/>
      <point x="649.5" y="717.625" type="curve"/>
      <point x="840.625" y="751.25"/>
      <point x="1028.0" y="886.75"/>
      <point x="1028.0" y="1092.875" type="curve" smooth="yes"/>
      <point x="1028.0" y="1241.875"/>
      <point x="937.875" y="1335.0"/>
      <point x="758.375" y="1335.0" type="curve" smooth="yes"/>
      <point x="528.0" y="1335.0"/>
      <point x="321.125" y="1208.375"/>
      <point x="226.375" y="1122.125" type="curve"/>
      <point x="238.375" y="1100.625"/>
      <point x="277.875" y="1061.25"/>
      <point x="300.375" y="1044.875" type="curve"/>
      <point x="406.125" y="1146.5"/>
      <point x="560.875" y="1227.0"/>
      <point x="725.375" y="1227.0" type="curve" smooth="yes"/>
      <point x="862.5" y="1227.0"/>
      <point x="904.75" y="1155.875"/>
      <point x="904.75" y="1069.5" type="curve" smooth="yes"/>
      <point x="904.75" y="850.375"/>
      <point x="597.0" y="749.5"/>
      <point x="365.625" y="749.5" type="curve"/>
      <point x="357.5" y="718.0"/>
      <point x="349.375" y="667.25"/>
      <point x="349.375" y="645.5" type="curve"/>
      <point x="663.5" y="645.5"/>
      <point x="818.875" y="607.375"/>
      <point x="818.875" y="445.375" type="curve" smooth="yes"/>
      <point x="818.875" y="244.875"/>
      <point x="618.125" y="101.25"/>
      <point x="396.25" y="101.25" type="curve" smooth="yes"/>
      <point x="234.375" y="101.25"/>
      <point x="145.75" y="183.75"/>
      <point x="144.375" y="311.5" type="curve"/>
      <point x="102.75" y="297.125"/>
      <point x="53.5" y="268.125"/>
      <point x="22.875" y="243.875" type="curve"/>
      <point x="25.625" y="100.375"/>
      <point x="181.5" y="-3.0"/>
    </contour>
  </outline>
</glyph>
<glyph name="four" format="2">
  <advance width="1104.0"/>
  <unicode hex="0034"/>
  <outline>
    <contour>
      <point x="962.5" y="414.125" type="curve"/>
      <point x="975.375" y="461.125"/>
      <point x="983.25" y="513.25"/>
      <point x="983.375" y="531.375" type="curve"/>
      <point x="966.0" y="531.5"/>
      <point x="808.5" y="525.625"/>
      <point x="724.625" y="521.25" type="curve"/>
      <point x="808.125" y="822.625"/>
      <point x="955.25" y="1284.875"/>
      <point x="974.75" y="1341.125" type="curve"/>
      <point x="955.0" y="1342.0"/>
      <point x="889.0" y="1342.625"/>
      <point x="866.125" y="1341.625" type="curve"/>
      <point x="765.25" y="1256.25"/>
      <point x="230.0" y="650.625"/>
      <point x="95.875" y="461.875" type="curve"/>
      <point x="91.875" y="437.0"/>
      <point x="83.25" y="374.875"/>
      <point x="81.5" y="345.75" type="curve"/>
      <point x="132.125" y="352.625"/>
      <point x="376.5" y="384.25"/>
      <point x="579.5" y="400.0" type="curve"/>
      <point x="559.75" y="338.5"/>
      <point x="515.75" y="192.25"/>
      <point x="461.625" y="-11.75" type="curve"/>
      <point x="480.0" y="-10.875"/>
      <point x="566.25" y="-4.625"/>
      <point x="594.375" y="-1.625" type="curve"/>
      <point x="600.5" y="29.0"/>
      <point x="634.75" y="177.75"/>
      <point x="697.25" y="408.625" type="curve"/>
      <point x="771.25" y="411.5"/>
      <point x="896.75" y="414.125"/>
    </contour>
    <contour>
      <point x="824.375" y="1164.25" type="curve"/>
      <point x="780.625" y="1063.0"/>
      <point x="647.5" y="626.25"/>
      <point x="617.0" y="513.375" type="curve"/>
      <point x="547.625" y="509.875"/>
      <point x="261.75" y="480.5"/>
      <point x="231.125" y="475.625" type="curve"/>
      <point x="267.625" y="540.875"/>
      <point x="694.375" y="1029.625"/>
    </contour>
  </outline>
</glyph>
<glyph name="five" format="2">
  <advance width="1137.0"/>
  <unicode hex="0035"/>
  <outline>
    <contour>
      <point x="51.25" y="171.25" type="curve"/>
      <point x="135.5" y="60.0"/>
      <point x="284.125" y="12.875"/>
      <point x="463.125" y="12.875" type="curve" smooth="yes"/>
      <point x="819.875" y="12.875"/>
      <point x="1074.375" y="283.125"/>
      <point x="1074.375" y="636.25" type="curve" smooth="yes"/>
      <point x="1074.375" y="817.375"/>
      <point x="991.25" y="955.125"/>
      <point x="803.0" y="955.125" type="curve" smooth="yes"/>
      <point x="616.0" y="955.125"/>
      <point x="463.375" y="819.75"/>
      <point x="426.625" y="737.75" type="curve"/>
      <point x="438.5" y="781.75"/>
      <point x="487.0" y="1027.875"/>
      <point x="503.125" y="1154.0" type="curve"/>
      <point x="556.375" y="1166.0"/>
      <point x="781.625" y="1193.125"/>
      <point x="1101.25" y="1216.75" type="curve"/>
      <point x="1105.625" y="1243.375"/>
      <point x="1109.125" y="1298.625"/>
      <point x="1108.5" y="1321.625" type="curve"/>
      <point x="975.375" y="1311.625"/>
      <point x="567.5" y="1263.375"/>
      <point x="397.75" y="1227.625" type="curve"/>
      <point x="366.5" y="983.875"/>
      <point x="328.625" y="774.75"/>
      <point x="276.0" y="576.875" type="curve"/>
      <point x="292.5" y="575.875"/>
      <point x="315.875" y="575.625"/>
      <point x="333.0" y="575.625" type="curve" smooth="yes"/>
      <point x="356.125" y="575.625"/>
      <point x="379.125" y="577.125"/>
      <point x="393.5" y="579.625" type="curve"/>
      <point x="417.625" y="651.375"/>
      <point x="563.625" y="848.125"/>
      <point x="772.0" y="848.125" type="curve" smooth="yes"/>
      <point x="904.75" y="848.125"/>
      <point x="956.0" y="752.125"/>
      <point x="956.0" y="622.625" type="curve" smooth="yes"/>
      <point x="956.0" y="345.375"/>
      <point x="758.25" y="125.0"/>
      <point x="484.75" y="125.0" type="curve" smooth="yes"/>
      <point x="264.75" y="125.0"/>
      <point x="188.75" y="216.875"/>
      <point x="156.25" y="268.5" type="curve"/>
      <point x="131.625" y="250.375"/>
      <point x="69.75" y="196.5"/>
    </contour>
  </outline>
</glyph>
<glyph name="six" format="2">
  <advance width="1154.0"/>
  <unicode hex="0036"/>
  <outline>
    <contour>
      <point x="1029.375" y="1244.875" type="curve"/>
      <point x="1028.625" y="1271.125"/>
      <point x="1010.75" y="1333.125"/>
      <point x="999.5" y="1344.875" type="curve"/>
      <point x="529.125" y="1169.5"/>
      <point x="129.5" y="732.375"/>
      <point x="129.5" y="294.375" type="curve" smooth="yes"/>
      <point x="129.5" y="110.5"/>
      <point x="235.375" y="-9.0"/>
      <point x="447.5" y="-9.0" type="curve" smooth="yes"/>
      <point x="774.375" y="-9.0"/>
      <point x="1024.5" y="242.125"/>
      <point x="1024.5" y="561.125" type="curve" smooth="yes"/>
      <point x="1024.5" y="737.625"/>
      <point x="916.625" y="831.375"/>
      <point x="759.875" y="831.375" type="curve" smooth="yes"/>
      <point x="591.25" y="831.375"/>
      <point x="416.625" y="748.125"/>
      <point x="320.625" y="627.75" type="curve"/>
      <point x="386.75" y="769.75"/>
      <point x="630.875" y="1094.625"/>
    </contour>
    <contour>
      <point x="365.25" y="574.75" type="curve" smooth="yes"/>
      <point x="456.875" y="662.0"/>
      <point x="602.25" y="728.5"/>
      <point x="738.125" y="728.5" type="curve" smooth="yes"/>
      <point x="866.375" y="728.5"/>
      <point x="910.875" y="654.125"/>
      <point x="910.875" y="545.5" type="curve" smooth="yes"/>
      <point x="910.875" y="303.25"/>
      <point x="713.75" y="102.5"/>
      <point x="477.125" y="102.5" type="curve" smooth="yes"/>
      <point x="323.875" y="102.5"/>
      <point x="241.625" y="181.375"/>
      <point x="241.625" y="308.25" type="curve" smooth="yes"/>
      <point x="241.625" y="410.625"/>
      <point x="285.625" y="499.25"/>
    </contour>
  </outline>
</glyph>
<glyph name="seven" format="2">
  <advance width="1012.0"/>
  <unicode hex="0037"/>
  <outline>
    <contour>
      <point x="182.25" y="-7.375" type="curve"/>
      <point x="431.5" y="383.5"/>
      <point x="656.625" y="727.875"/>
      <point x="1185.25" y="1267.5" type="curve"/>
      <point x="1186.0" y="1286.5"/>
      <point x="1188.5" y="1342.25"/>
      <point x="1186.75" y="1363.25" type="curve"/>
      <point x="1014.625" y="1363.25"/>
      <point x="591.125" y="1287.375"/>
      <point x="297.125" y="1224.375" type="curve"/>
      <point x="291.875" y="1205.75"/>
      <point x="278.125" y="1119.75"/>
      <point x="277.0" y="1100.25" type="curve"/>
      <point x="305.75" y="1108.625"/>
      <point x="683.125" y="1201.0"/>
      <point x="1036.625" y="1247.5" type="curve"/>
      <point x="746.125" y="1003.75"/>
      <point x="256.375" y="367.875"/>
      <point x="51.375" y="31.375" type="curve"/>
      <point x="64.875" y="25.125"/>
      <point x="151.125" y="-1.75"/>
    </contour>
  </outline>
</glyph>
<glyph name="eight" format="2">
  <advance width="1243.0"/>
  <unicode hex="0038"/>
  <outline>
    <contour>
      <point x="497.5" y="-9.25" type="curve" smooth="yes"/>
      <point x="805.875" y="-9.25"/>
      <point x="1060.5" y="180.125"/>
      <point x="1060.5" y="476.125" type="curve" smooth="yes"/>
      <point x="1060.5" y="620.0"/>
      <point x="968.25" y="696.75"/>
      <point x="874.625" y="712.625" type="curve"/>
      <point x="1051.25" y="753.875"/>
      <point x="1183.5" y="901.625"/>
      <point x="1183.5" y="1103.875" type="curve" smooth="yes"/>
      <point x="1183.5" y="1279.125"/>
      <point x="1053.75" y="1372.375"/>
      <point x="844.0" y="1372.375" type="curve" smooth="yes"/>
      <point x="550.25" y="1372.375"/>
      <point x="319.625" y="1229.375"/>
      <point x="319.625" y="942.5" type="curve" smooth="yes"/>
      <point x="319.625" y="833.5"/>
      <point x="385.5" y="758.875"/>
      <point x="443.625" y="729.25" type="curve"/>
      <point x="258.375" y="680.5"/>
      <point x="89.875" y="512.5"/>
      <point x="89.875" y="279.375" type="curve" smooth="yes"/>
      <point x="89.875" y="104.375"/>
      <point x="214.75" y="-9.25"/>
    </contour>
    <contour>
      <point x="504.625" y="90.5" type="curve" smooth="yes"/>
      <point x="355.125" y="90.5"/>
      <point x="210.375" y="131.875"/>
      <point x="210.375" y="298.0" type="curve" smooth="yes"/>
      <point x="210.375" y="549.125"/>
      <point x="420.375" y="664.125"/>
      <point x="658.25" y="664.125" type="curve" smooth="yes"/>
      <point x="837.75" y="664.125"/>
      <point x="944.5" y="612.125"/>
      <point x="944.5" y="468.25" type="curve" smooth="yes"/>
      <point x="944.5" y="234.5"/>
      <point x="752.0" y="90.5"/>
    </contour>
    <contour>
      <point x="682.75" y="760.125" type="curve" smooth="yes"/>
      <point x="528.625" y="760.125"/>
      <point x="436.25" y="815.5"/>
      <point x="436.25" y="951.375" type="curve" smooth="yes"/>
      <point x="436.25" y="1162.625"/>
      <point x="600.75" y="1274.375"/>
      <point x="819.0" y="1274.375" type="curve" smooth="yes"/>
      <point x="983.875" y="1274.375"/>
      <point x="1070.25" y="1216.25"/>
      <point x="1070.25" y="1084.625" type="curve" smooth="yes"/>
      <point x="1070.25" y="882.0"/>
      <point x="886.5" y="760.125"/>
    </contour>
  </outline>
</glyph>
<glyph name="nine" format="2">
  <advance width="1067.0"/>
  <unicode hex="0039"/>
  <outline>
    <contour>
      <point x="646.25" y="6.375" type="curve"/>
      <point x="823.125" y="294.125"/>
      <point x="1051.875" y="818.0"/>
      <point x="1051.875" y="1090.875" type="curve" smooth="yes"/>
      <point x="1051.875" y="1268.25"/>
      <point x="956.875" y="1364.0"/>
      <point x="749.625" y="1364.0" type="curve" smooth="yes"/>
      <point x="437.375" y="1364.0"/>
      <point x="189.125" y="1111.875"/>
      <point x="189.125" y="787.625" type="curve" smooth="yes"/>
      <point x="189.125" y="605.125"/>
      <point x="278.5" y="474.125"/>
      <point x="464.75" y="474.125" type="curve" smooth="yes"/>
      <point x="665.875" y="474.125"/>
      <point x="782.125" y="568.625"/>
      <point x="834.125" y="640.625" type="curve"/>
      <point x="766.25" y="401.625"/>
      <point x="567.625" y="87.875"/>
      <point x="504.625" y="-1.75" type="curve"/>
      <point x="547.0" y="-1.75"/>
      <point x="623.125" y="1.5"/>
    </contour>
    <contour>
      <point x="744.75" y="1271.625" type="curve" smooth="yes"/>
      <point x="878.5" y="1271.625"/>
      <point x="942.125" y="1201.125"/>
      <point x="942.125" y="1076.625" type="curve" smooth="yes"/>
      <point x="942.125" y="815.625"/>
      <point x="754.125" y="576.625"/>
      <point x="492.5" y="576.625" type="curve" smooth="yes"/>
      <point x="368.5" y="576.625"/>
      <point x="300.25" y="663.875"/>
      <point x="300.25" y="800.875" type="curve" smooth="yes"/>
      <point x="300.25" y="1064.125"/>
      <point x="479.0" y="1271.625"/>
    </contour>
  </outline>
</glyph>
<glyph name="colon" format="2">
  <advance width="564.0"/>
  <unicode hex="003A"/>
  <outline>
    <contour>
      <point x="129.625" y="-9.125" type="curve" smooth="yes"/>
      <point x="201.625" y="-9.125"/>
      <point x="260.375" y="38.375"/>
      <point x="260.375" y="103.875" type="curve" smooth="yes"/>
      <point x="260.375" y="172.0"/>
      <point x="207.875" y="232.125"/>
      <point x="127.625" y="232.125" type="curve" smooth="yes"/>
      <point x="54.875" y="232.125"/>
      <point x="-8.5" y="172.5"/>
      <point x="-8.5" y="104.5" type="curve" smooth="yes"/>
      <point x="-8.5" y="38.75"/>
      <point x="60.0" y="-9.125"/>
    </contour>
    <component base="period" xOffset="161.0" yOffset="761.375"/>
  </outline>
</glyph>
<glyph name="semicolon" format="2">
  <advance width="593.0"/>
  <unicode hex="003B"/>
  <outline>
    <contour>
      <point x="379.625" y="926.25" type="curve" smooth="yes"/>
      <point x="295.875" y="926.25"/>
      <point x="217.5" y="865.125"/>
      <point x="217.5" y="782.125" type="curve" smooth="yes"/>
      <point x="217.5" y="724.625"/>
      <point x="271.375" y="673.75"/>
      <point x="331.125" y="673.75" type="curve" smooth="yes"/>
      <point x="417.375" y="673.75"/>
      <point x="486.75" y="740.5"/>
      <point x="486.75" y="827.625" type="curve" smooth="yes"/>
      <point x="486.75" y="883.75"/>
      <point x="438.875" y="926.25"/>
    </contour>
    <contour>
      <point x="58.125" y="-301.125" type="curve"/>
      <point x="168.625" y="-218.75"/>
      <point x="292.0" y="-49.0"/>
      <point x="292.0" y="70.125" type="curve" smooth="yes"/>
      <point x="292.0" y="143.0"/>
      <point x="233.5" y="184.125"/>
      <point x="146.75" y="184.125" type="curve" smooth="yes"/>
      <point x="47.875" y="184.125"/>
      <point x="-21.375" y="116.75"/>
      <point x="-21.375" y="38.875" type="curve" smooth="yes"/>
      <point x="-21.375" y="-17.875"/>
      <point x="7.625" y="-55.0"/>
      <point x="77.375" y="-55.0" type="curve" smooth="yes"/>
      <point x="146.125" y="-55.0"/>
      <point x="184.125" y="-13.75"/>
      <point x="195.25" y="26.25" type="curve"/>
      <point x="196.125" y="24.125"/>
      <point x="196.0" y="20.125"/>
      <point x="195.875" y="16.25" type="curve" smooth="yes"/>
      <point x="194.75" y="-52.125"/>
      <point x="71.125" y="-200.875"/>
      <point x="1.875" y="-255.375" type="curve"/>
      <point x="12.25" y="-273.875"/>
      <point x="45.25" y="-294.625"/>
    </contour>
  </outline>
</glyph>
<glyph name="less" format="2">
  <advance width="807.0"/>
  <unicode hex="003C"/>
  <outline>
    <contour>
      <point x="854.875" y="1099.125" type="curve"/>
      <point x="754.5" y="1039.625"/>
      <point x="359.625" y="776.75"/>
      <point x="85.125" y="591.75" type="curve"/>
      <point x="59.125" y="512.375" type="line"/>
      <point x="259.25" y="442.75"/>
      <point x="469.0" y="352.5"/>
      <point x="645.75" y="271.5" type="curve"/>
      <point x="656.375" y="288.625"/>
      <point x="679.125" y="331.0"/>
      <point x="686.375" y="349.375" type="curve"/>
      <point x="631.125" y="387.875"/>
      <point x="319.625" y="515.625"/>
      <point x="136.0" y="579.375" type="curve"/>
      <point x="147.75" y="537.125" type="line"/>
      <point x="404.875" y="711.625"/>
      <point x="638.125" y="862.25"/>
      <point x="903.5" y="1026.75" type="curve"/>
      <point x="901.125" y="1047.25"/>
      <point x="872.625" y="1083.375"/>
    </contour>
  </outline>
</glyph>
<glyph name="equal" format="2">
  <advance width="1050.0"/>
  <unicode hex="003D"/>
  <outline>
    <contour>
      <point x="182.625" y="1014.625" type="curve"/>
      <point x="170.125" y="991.875"/>
      <point x="154.5" y="946.875"/>
      <point x="147.0" y="919.5" type="curve"/>
      <point x="315.5" y="937.875"/>
      <point x="943.5" y="969.375"/>
      <point x="1124.75" y="969.75" type="curve"/>
      <point x="1130.375" y="993.0"/>
      <point x="1140.5" y="1045.375"/>
      <point x="1142.875" y="1068.0" type="curve"/>
      <point x="907.875" y="1068.0"/>
      <point x="333.75" y="1043.625"/>
    </contour>
    <contour>
      <point x="55.625" y="568.0" type="curve"/>
      <point x="44.625" y="540.5"/>
      <point x="30.125" y="495.25"/>
      <point x="25.75" y="474.125" type="curve"/>
      <point x="273.0" y="488.875"/>
      <point x="805.5" y="488.75"/>
      <point x="1000.375" y="488.75" type="curve"/>
      <point x="1007.0" y="512.0"/>
      <point x="1016.625" y="564.625"/>
      <point x="1018.875" y="588.125" type="curve"/>
      <point x="937.375" y="593.0"/>
      <point x="809.375" y="596.75"/>
      <point x="668.125" y="596.75" type="curve" smooth="yes"/>
      <point x="465.375" y="596.75"/>
      <point x="231.25" y="588.875"/>
    </contour>
  </outline>
</glyph>
<glyph name="greater" format="2">
  <advance width="790.0"/>
  <unicode hex="003E"/>
  <outline>
    <contour>
      <point x="245.875" y="1022.75" type="curve"/>
      <point x="370.25" y="938.375"/>
      <point x="630.875" y="747.125"/>
      <point x="739.75" y="656.75" type="curve"/>
      <point x="730.0" y="696.875" type="line"/>
      <point x="451.5" y="565.875"/>
      <point x="50.625" y="377.125"/>
      <point x="-4.25" y="354.75" type="curve"/>
      <point x="-4.25" y="333.125"/>
      <point x="8.5" y="295.25"/>
      <point x="16.0" y="278.375" type="curve"/>
      <point x="58.0" y="288.375"/>
      <point x="476.875" y="478.125"/>
      <point x="793.25" y="627.0" type="curve"/>
      <point x="816.125" y="712.0" type="line"/>
      <point x="633.0" y="865.0"/>
      <point x="370.125" y="1064.25"/>
      <point x="321.0" y="1078.25" type="curve"/>
      <point x="299.875" y="1067.625"/>
      <point x="264.75" y="1040.375"/>
    </contour>
  </outline>
</glyph>
<glyph name="question" format="2">
  <advance width="1036.0"/>
  <unicode hex="003F"/>
  <outline>
    <contour>
      <point x="549.25" y="388.375" type="curve"/>
      <point x="611.375" y="619.875"/>
      <point x="715.125" y="722.25"/>
      <point x="830.25" y="795.5" type="curve" smooth="yes"/>
      <point x="990.25" y="897.5"/>
      <point x="1098.625" y="1035.25"/>
      <point x="1098.625" y="1228.125" type="curve" smooth="yes"/>
      <point x="1098.625" y="1390.375"/>
      <point x="989.875" y="1472.0"/>
      <point x="782.0" y="1472.0" type="curve" smooth="yes"/>
      <point x="559.625" y="1472.0"/>
      <point x="353.125" y="1366.625"/>
      <point x="243.875" y="1140.375" type="curve"/>
      <point x="341.0" y="1096.25" type="line"/>
      <point x="388.875" y="1194.625"/>
      <point x="497.0" y="1368.125"/>
      <point x="766.75" y="1368.125" type="curve" smooth="yes"/>
      <point x="916.125" y="1368.125"/>
      <point x="975.25" y="1313.375"/>
      <point x="975.25" y="1203.375" type="curve" smooth="yes"/>
      <point x="975.25" y="1053.375"/>
      <point x="889.125" y="946.125"/>
      <point x="740.5" y="855.375" type="curve" smooth="yes"/>
      <point x="557.5" y="742.75"/>
      <point x="477.75" y="567.5"/>
      <point x="432.375" y="399.5" type="curve"/>
      <point x="467.25" y="393.375"/>
      <point x="509.0" y="388.375"/>
    </contour>
    <contour>
      <point x="402.125" y="-10.0" type="curve" smooth="yes"/>
      <point x="476.125" y="-10.0"/>
      <point x="547.25" y="59.25"/>
      <point x="547.25" y="139.5" type="curve" smooth="yes"/>
      <point x="547.25" y="190.375"/>
      <point x="512.5" y="222.75"/>
      <point x="449.5" y="222.75" type="curve" smooth="yes"/>
      <point x="387.5" y="222.75"/>
      <point x="308.0" y="175.125"/>
      <point x="308.0" y="84.625" type="curve" smooth="yes"/>
      <point x="308.0" y="27.0"/>
      <point x="344.875" y="-10.0"/>
    </contour>
  </outline>
</glyph>
<glyph name="at" format="2">
  <advance width="1920.0"/>
  <unicode hex="0040"/>
  <outline>
    <contour>
      <point x="765.5" y="-41.0" type="curve" smooth="yes"/>
      <point x="1077.25" y="-41.0"/>
      <point x="1277.5" y="65.5"/>
      <point x="1374.75" y="178.0" type="curve"/>
      <point x="1303.375" y="253.75" type="line"/>
      <point x="1214.25" y="150.75"/>
      <point x="1066.375" y="59.0"/>
      <point x="787.875" y="59.0" type="curve" smooth="yes"/>
      <point x="424.375" y="59.0"/>
      <point x="255.625" y="235.25"/>
      <point x="255.625" y="505.375" type="curve" smooth="yes"/>
      <point x="255.625" y="1001.25"/>
      <point x="714.875" y="1393.25"/>
      <point x="1227.5" y="1393.25" type="curve" smooth="yes"/>
      <point x="1582.125" y="1393.25"/>
      <point x="1784.375" y="1234.125"/>
      <point x="1784.375" y="931.625" type="curve" smooth="yes"/>
      <point x="1784.375" y="710.875"/>
      <point x="1672.125" y="460.375"/>
      <point x="1493.0" y="460.375" type="curve" smooth="yes"/>
      <point x="1400.75" y="460.375"/>
      <point x="1374.0" y="500.5"/>
      <point x="1374.0" y="594.25" type="curve" smooth="yes"/>
      <point x="1374.0" y="634.875"/>
      <point x="1389.0" y="930.25"/>
      <point x="1407.5" y="1122.125" type="curve"/>
      <point x="1383.125" y="1120.875"/>
      <point x="1333.25" y="1117.625"/>
      <point x="1305.625" y="1115.0" type="curve"/>
      <point x="1300.875" y="1092.25"/>
      <point x="1294.875" y="1055.0"/>
      <point x="1292.125" y="1027.0" type="curve"/>
      <point x="1264.25" y="1055.0"/>
      <point x="1195.375" y="1089.875"/>
      <point x="1087.0" y="1089.875" type="curve" smooth="yes"/>
      <point x="835.375" y="1089.875"/>
      <point x="623.125" y="858.875"/>
      <point x="623.125" y="605.625" type="curve" smooth="yes"/>
      <point x="623.125" y="452.5"/>
      <point x="716.25" y="355.25"/>
      <point x="894.5" y="355.25" type="curve" smooth="yes"/>
      <point x="1056.25" y="355.25"/>
      <point x="1211.75" y="433.875"/>
      <point x="1272.0" y="551.5" type="curve"/>
      <point x="1264.25" y="426.875"/>
      <point x="1351.875" y="365.0"/>
      <point x="1472.875" y="365.0" type="curve" smooth="yes"/>
      <point x="1730.25" y="365.0"/>
      <point x="1889.375" y="644.25"/>
      <point x="1889.375" y="940.875" type="curve" smooth="yes"/>
      <point x="1889.375" y="1292.0"/>
      <point x="1645.5" y="1497.0"/>
      <point x="1252.0" y="1497.0" type="curve" smooth="yes"/>
      <point x="658.25" y="1497.0"/>
      <point x="135.0" y="1052.625"/>
      <point x="135.0" y="480.375" type="curve" smooth="yes"/>
      <point x="135.0" y="146.125"/>
      <point x="379.375" y="-41.0"/>
    </contour>
    <contour>
      <point x="911.375" y="459.0" type="curve" smooth="yes"/>
      <point x="810.25" y="459.0"/>
      <point x="742.5" y="518.25"/>
      <point x="742.5" y="628.125" type="curve" smooth="yes"/>
      <point x="742.5" y="820.5"/>
      <point x="890.5" y="993.125"/>
      <point x="1096.75" y="993.125" type="curve" smooth="yes"/>
      <point x="1172.875" y="993.125"/>
      <point x="1245.5" y="965.375"/>
      <point x="1280.875" y="923.875" type="curve"/>
      <point x="1267.0" y="658.0" type="line"/>
      <point x="1193.125" y="538.375"/>
      <point x="1072.75" y="459.0"/>
    </contour>
  </outline>
</glyph>
<glyph name="A" format="2">
  <advance width="1018.625"/>
  <unicode hex="0041"/>
  <anchor x="468.75" y="0.0" name="bottom"/>
  <anchor x="763.75" y="0.625" name="ogonek"/>
  <anchor x="813.75" y="1324.75" name="top"/>
  <outline>
    <contour>
      <point x="76.375" y="-15.0" type="curve"/>
      <point x="118.25" y="86.75"/>
      <point x="215.0" y="300.5"/>
      <point x="308.75" y="495.75" type="curve"/>
      <point x="348.75" y="503.75"/>
      <point x="668.25" y="530.0"/>
      <point x="775.125" y="530.25" type="curve"/>
      <point x="753.625" y="432.5"/>
      <point x="680.875" y="80.0"/>
      <point x="662.875" y="-15.0" type="curve"/>
      <point x="704.125" y="-15.0"/>
      <point x="757.125" y="-11.0"/>
      <point x="792.875" y="-3.5" type="curve"/>
      <point x="921.5" y="641.25"/>
      <point x="994.5" y="1089.0"/>
      <point x="1005.375" y="1323.0" type="curve"/>
      <point x="969.25" y="1327.75"/>
      <point x="922.75" y="1330.125"/>
      <point x="881.875" y="1330.125" type="curve" smooth="yes"/>
      <point x="764.375" y="1330.125"/>
      <point x="631.5" y="1313.0"/>
      <point x="583.25" y="1304.25" type="curve"/>
      <point x="416.125" y="989.0"/>
      <point x="26.375" y="178.25"/>
      <point x="-55.125" y="-6.375" type="curve"/>
      <point x="-28.0" y="-11.375"/>
      <point x="34.625" y="-15.0"/>
    </contour>
    <contour>
      <point x="357.25" y="599.625" type="curve"/>
      <point x="504.125" y="912.375"/>
      <point x="619.5" y="1140.25"/>
      <point x="652.375" y="1201.5" type="curve"/>
      <point x="692.25" y="1207.0"/>
      <point x="838.5" y="1219.0"/>
      <point x="893.25" y="1219.0" type="curve"/>
      <point x="881.875" y="1081.0"/>
      <point x="818.25" y="737.5"/>
      <point x="798.75" y="638.75" type="curve"/>
      <point x="662.625" y="633.5"/>
      <point x="452.625" y="618.5"/>
    </contour>
  </outline>
</glyph>
<glyph name="B" format="2">
  <advance width="1174.0"/>
  <unicode hex="0042"/>
  <anchor x="444.585" y="0.0" name="bottom"/>
  <anchor x="790.507" y="1291.0" name="top"/>
  <outline>
    <contour>
      <point x="51.125" y="13.875" type="curve"/>
      <point x="97.875" y="6.5"/>
      <point x="165.75" y="3.75"/>
      <point x="227.375" y="3.75" type="curve" smooth="yes"/>
      <point x="616.125" y="3.75"/>
      <point x="1019.75" y="80.0"/>
      <point x="1019.75" y="432.25" type="curve" smooth="yes"/>
      <point x="1019.75" y="565.25"/>
      <point x="904.25" y="672.375"/>
      <point x="761.125" y="673.875" type="curve" smooth="yes"/>
      <point x="752.625" y="674.0"/>
      <point x="750.875" y="674.0"/>
      <point x="746.5" y="674.0" type="curve"/>
      <point x="897.75" y="708.75"/>
      <point x="1064.5" y="867.0"/>
      <point x="1064.5" y="1059.5" type="curve" smooth="yes"/>
      <point x="1064.5" y="1241.25"/>
      <point x="943.875" y="1306.0"/>
      <point x="770.625" y="1306.0" type="curve" smooth="yes"/>
      <point x="610.375" y="1306.0"/>
      <point x="484.0" y="1293.875"/>
      <point x="403.375" y="1285.0" type="curve"/>
      <point x="391.875" y="1244.625"/>
      <point x="99.25" y="195.0"/>
    </contour>
    <contour>
      <point x="207.5" y="116.625" type="curve"/>
      <point x="342.375" y="601.625" type="line"/>
      <point x="387.625" y="606.625"/>
      <point x="535.125" y="608.625"/>
      <point x="569.125" y="608.625" type="curve" smooth="yes"/>
      <point x="787.5" y="608.625"/>
      <point x="904.25" y="563.375"/>
      <point x="904.25" y="421.25" type="curve" smooth="yes"/>
      <point x="904.25" y="142.25"/>
      <point x="553.125" y="116.5"/>
      <point x="252.5" y="116.5" type="curve" smooth="yes"/>
      <point x="231.5" y="116.5"/>
      <point x="215.125" y="116.5"/>
    </contour>
    <contour>
      <point x="367.125" y="702.125" type="curve"/>
      <point x="497.5" y="1194.875" type="line"/>
      <point x="543.875" y="1201.625"/>
      <point x="640.0" y="1213.75"/>
      <point x="729.0" y="1213.75" type="curve" smooth="yes"/>
      <point x="863.5" y="1213.75"/>
      <point x="946.375" y="1177.375"/>
      <point x="946.375" y="1037.25" type="curve" smooth="yes"/>
      <point x="946.375" y="893.0"/>
      <point x="848.125" y="804.5"/>
      <point x="736.25" y="752.0" type="curve" smooth="yes"/>
      <point x="658.875" y="712.625"/>
      <point x="564.75" y="703.875"/>
    </contour>
  </outline>
</glyph>
<glyph name="C" format="2">
  <advance width="1137.0"/>
  <unicode hex="0043"/>
  <anchor x="400.698125" y="0.0" name="bottom"/>
  <anchor x="746.688375" y="1291.0" name="top"/>
  <outline>
    <contour>
      <point x="1018.0" y="276.0" type="curve"/>
      <point x="1009.0" y="296.375"/>
      <point x="961.625" y="344.75"/>
      <point x="942.75" y="358.125" type="curve"/>
      <point x="858.75" y="264.125"/>
      <point x="702.5" y="111.75"/>
      <point x="496.125" y="111.75" type="curve" smooth="yes"/>
      <point x="324.625" y="111.75"/>
      <point x="240.5" y="256.625"/>
      <point x="240.5" y="494.75" type="curve" smooth="yes"/>
      <point x="240.5" y="816.5"/>
      <point x="467.25" y="1208.625"/>
      <point x="786.875" y="1208.625" type="curve" smooth="yes"/>
      <point x="1042.375" y="1208.625"/>
      <point x="1072.75" y="1058.0"/>
      <point x="1079.875" y="1012.5" type="curve"/>
      <point x="1109.25" y="1028.5"/>
      <point x="1172.125" y="1068.5"/>
      <point x="1195.5" y="1090.125" type="curve"/>
      <point x="1158.625" y="1232.0"/>
      <point x="996.5" y="1326.0"/>
      <point x="810.25" y="1326.0" type="curve" smooth="yes"/>
      <point x="410.75" y="1326.0"/>
      <point x="102.125" y="905.5"/>
      <point x="102.125" y="464.25" type="curve" smooth="yes"/>
      <point x="102.125" y="218.125"/>
      <point x="217.625" y="-7.875"/>
      <point x="480.125" y="-7.875" type="curve" smooth="yes"/>
      <point x="705.5" y="-7.875"/>
      <point x="883.5" y="120.25"/>
    </contour>
  </outline>
</glyph>
<glyph name="D" format="2">
  <advance width="1198.0"/>
  <unicode hex="0044"/>
  <anchor x="456.585" y="0.0" name="bottom"/>
  <anchor x="407.375" y="646.0" name="center"/>
  <anchor x="716.0" y="1291.0" name="top"/>
  <outline>
    <contour>
      <point x="129.125" y="-27.875" type="curve"/>
      <point x="822.125" y="-7.75"/>
      <point x="1086.375" y="316.25"/>
      <point x="1086.375" y="796.625" type="curve" smooth="yes"/>
      <point x="1086.375" y="1090.125"/>
      <point x="967.875" y="1325.0"/>
      <point x="643.75" y="1325.0" type="curve" smooth="yes"/>
      <point x="560.625" y="1325.0"/>
      <point x="411.125" y="1308.25"/>
      <point x="365.375" y="1299.0" type="curve"/>
      <point x="355.625" y="1253.5"/>
      <point x="167.125" y="213.875"/>
    </contour>
    <contour>
      <point x="270.375" y="94.0" type="curve"/>
      <point x="328.625" y="444.25"/>
      <point x="406.125" y="853.5"/>
      <point x="478.125" y="1215.125" type="curve"/>
      <point x="519.125" y="1217.875"/>
      <point x="594.125" y="1221.375"/>
      <point x="630.75" y="1221.375" type="curve" smooth="yes"/>
      <point x="888.75" y="1221.375"/>
      <point x="965.125" y="1043.0"/>
      <point x="965.125" y="786.125" type="curve" smooth="yes"/>
      <point x="965.125" y="446.375"/>
      <point x="791.375" y="129.0"/>
    </contour>
  </outline>
</glyph>
<glyph name="E" format="2">
  <advance width="957.0"/>
  <unicode hex="0045"/>
  <anchor x="336.636875" y="0.0" name="bottom"/>
  <anchor x="583.25" y="0.0" name="ogonek"/>
  <anchor x="683.0" y="1312.25" name="top"/>
  <anchor x="223.568625" y="1291.0" name="topleft"/>
  <outline>
    <contour>
      <point x="692.0" y="-9.75" type="curve"/>
      <point x="703.5" y="10.625"/>
      <point x="727.25" y="67.5"/>
      <point x="740.5" y="108.625" type="curve"/>
      <point x="668.875" y="114.375"/>
      <point x="498.125" y="121.25"/>
      <point x="348.75" y="121.25" type="curve" smooth="yes"/>
      <point x="291.375" y="121.25"/>
      <point x="203.875" y="120.375"/>
      <point x="166.75" y="118.625" type="curve"/>
      <point x="201.625" y="249.125"/>
      <point x="302.375" y="622.75"/>
      <point x="316.625" y="673.375" type="curve"/>
      <point x="396.25" y="676.0"/>
      <point x="714.625" y="675.125"/>
      <point x="763.875" y="674.75" type="curve"/>
      <point x="785.875" y="783.0" type="line"/>
      <point x="694.5" y="782.75"/>
      <point x="419.0" y="771.875"/>
      <point x="344.375" y="769.25" type="curve"/>
      <point x="365.125" y="846.0"/>
      <point x="433.625" y="1090.5"/>
      <point x="459.125" y="1169.625" type="curve"/>
      <point x="1035.25" y="1214.625" type="line"/>
      <point x="1049.125" y="1252.5"/>
      <point x="1057.875" y="1276.75"/>
      <point x="1069.25" y="1319.5" type="curve"/>
      <point x="1014.25" y="1319.5"/>
      <point x="716.75" y="1302.625"/>
      <point x="357.5" y="1251.0" type="curve"/>
      <point x="331.75" y="1175.75"/>
      <point x="265.125" y="945.875"/>
      <point x="170.125" y="591.25" type="curve" smooth="yes"/>
      <point x="121.0" y="408.625"/>
      <point x="69.625" y="205.625"/>
      <point x="23.5" y="5.625" type="curve"/>
      <point x="94.5" y="6.375"/>
      <point x="181.375" y="6.25"/>
      <point x="251.5" y="5.375" type="curve" smooth="yes"/>
      <point x="406.5" y="4.5"/>
      <point x="542.25" y="-0.875"/>
    </contour>
  </outline>
</glyph>
<glyph name="F" format="2">
  <advance width="949.0"/>
  <unicode hex="0046"/>
  <anchor x="330.136875" y="0.0" name="bottom"/>
  <anchor x="676.068625" y="1291.0" name="top"/>
  <outline>
    <contour>
      <point x="204.25" y="-22.75" type="line"/>
      <point x="262.625" y="193.875"/>
      <point x="323.125" y="466.125"/>
      <point x="358.125" y="640.375" type="curve"/>
      <point x="486.375" y="640.375"/>
      <point x="690.625" y="630.25"/>
      <point x="811.25" y="617.0" type="curve"/>
      <point x="820.0" y="640.5"/>
      <point x="834.5" y="684.375"/>
      <point x="842.375" y="715.75" type="curve"/>
      <point x="820.75" y="719.0"/>
      <point x="637.625" y="740.375"/>
      <point x="380.375" y="740.375" type="curve"/>
      <point x="411.875" y="880.625"/>
      <point x="459.25" y="1093.0"/>
      <point x="476.375" y="1188.625" type="curve"/>
      <point x="768.25" y="1188.625"/>
      <point x="938.75" y="1172.875"/>
      <point x="1012.0" y="1163.375" type="curve"/>
      <point x="1019.375" y="1191.875"/>
      <point x="1031.75" y="1245.125"/>
      <point x="1036.375" y="1280.0" type="curve"/>
      <point x="934.0" y="1292.875"/>
      <point x="848.25" y="1300.875"/>
      <point x="727.375" y="1304.375" type="curve" smooth="yes"/>
      <point x="636.25" y="1307.0"/>
      <point x="523.625" y="1307.625"/>
      <point x="374.875" y="1306.25" type="curve"/>
      <point x="297.125" y="916.125"/>
      <point x="185.75" y="415.625"/>
      <point x="74.5" y="-8.375" type="curve"/>
    </contour>
  </outline>
</glyph>
<glyph name="G" format="2">
  <advance width="1275.0"/>
  <unicode hex="0047"/>
  <anchor x="495.585" y="0.0" name="bottom"/>
  <anchor x="841.507" y="1291.0" name="top"/>
  <outline>
    <contour>
      <point x="594.875" y="-48.0" type="curve" smooth="yes"/>
      <point x="936.75" y="-48.0"/>
      <point x="1106.5" y="164.375"/>
      <point x="1191.125" y="483.625" type="curve" smooth="yes"/>
      <point x="1205.875" y="539.625"/>
      <point x="1217.75" y="600.125"/>
      <point x="1226.5" y="660.75" type="curve"/>
      <point x="1058.5" y="697.125"/>
      <point x="784.625" y="723.375"/>
      <point x="632.125" y="732.125" type="curve"/>
      <point x="622.75" y="704.0"/>
      <point x="610.875" y="652.25"/>
      <point x="606.875" y="628.125" type="curve"/>
      <point x="729.625" y="621.125"/>
      <point x="1013.625" y="580.125"/>
      <point x="1079.125" y="567.375" type="curve"/>
      <point x="1073.75" y="541.0"/>
      <point x="1065.75" y="505.875"/>
      <point x="1058.375" y="478.75" type="curve" smooth="yes"/>
      <point x="999.875" y="265.625"/>
      <point x="887.75" y="68.875"/>
      <point x="610.0" y="68.875" type="curve" smooth="yes"/>
      <point x="347.25" y="68.875"/>
      <point x="241.25" y="196.125"/>
      <point x="241.25" y="428.875" type="curve" smooth="yes"/>
      <point x="241.25" y="804.875"/>
      <point x="463.0" y="1220.0"/>
      <point x="839.375" y="1220.0" type="curve" smooth="yes"/>
      <point x="995.625" y="1220.0"/>
      <point x="1086.0" y="1186.75"/>
      <point x="1147.25" y="1025.625" type="curve"/>
      <point x="1182.0" y="1045.125"/>
      <point x="1235.875" y="1090.125"/>
      <point x="1255.5" y="1110.625" type="curve"/>
      <point x="1228.375" y="1203.5"/>
      <point x="1105.625" y="1338.0"/>
      <point x="857.125" y="1338.0" type="curve" smooth="yes"/>
      <point x="390.5" y="1338.0"/>
      <point x="108.5" y="894.0"/>
      <point x="108.5" y="411.125" type="curve" smooth="yes"/>
      <point x="108.5" y="121.875"/>
      <point x="279.625" y="-48.0"/>
    </contour>
  </outline>
</glyph>
<glyph name="H" format="2">
  <advance width="1094.0"/>
  <unicode hex="0048"/>
  <anchor x="457.448125" y="0.0" name="bottom"/>
  <anchor x="719.75" y="1063.0" name="center"/>
  <anchor x="724.688375" y="1291.0" name="top"/>
  <anchor x="223.507" y="1291.0" name="topleft"/>
  <outline>
    <contour>
      <point x="71.5" y="-1.125" type="curve"/>
      <point x="113.625" y="-1.125"/>
      <point x="186.0" y="3.25"/>
      <point x="207.625" y="6.25" type="curve"/>
      <point x="211.25" y="28.5"/>
      <point x="286.25" y="384.5"/>
      <point x="338.0" y="619.375" type="curve"/>
      <point x="409.125" y="619.375"/>
      <point x="744.875" y="628.125"/>
      <point x="814.75" y="630.125" type="curve"/>
      <point x="769.0" y="474.125"/>
      <point x="700.875" y="223.0"/>
      <point x="648.5" y="-1.5" type="curve"/>
      <point x="683.875" y="-1.5"/>
      <point x="743.0" y="0.0"/>
      <point x="770.75" y="3.25" type="curve"/>
      <point x="783.875" y="63.75"/>
      <point x="808.75" y="174.25"/>
      <point x="842.125" y="291.75" type="curve" smooth="yes"/>
      <point x="935.0" y="625.75"/>
      <point x="1087.0" y="1130.75"/>
      <point x="1156.125" y="1299.0" type="curve"/>
      <point x="1138.125" y="1303.125"/>
      <point x="1093.375" y="1305.5"/>
      <point x="1059.5" y="1305.5" type="curve" smooth="yes"/>
      <point x="1045.0" y="1305.5"/>
      <point x="1031.125" y="1305.125"/>
      <point x="1023.75" y="1304.0" type="curve"/>
      <point x="969.125" y="1150.75"/>
      <point x="892.25" y="896.5"/>
      <point x="850.0" y="753.375" type="curve"/>
      <point x="768.25" y="750.75"/>
      <point x="438.125" y="736.5"/>
      <point x="362.25" y="728.5" type="curve"/>
      <point x="369.0" y="757.25"/>
      <point x="398.875" y="882.875"/>
      <point x="435.5" y="1018.875" type="curve" smooth="yes"/>
      <point x="460.375" y="1112.0"/>
      <point x="488.75" y="1214.5"/>
      <point x="513.375" y="1290.0" type="curve"/>
      <point x="479.25" y="1290.0"/>
      <point x="406.375" y="1285.0"/>
      <point x="381.125" y="1282.0" type="curve"/>
      <point x="364.875" y="1237.625"/>
      <point x="345.25" y="1168.125"/>
      <point x="322.875" y="1083.5" type="curve" smooth="yes"/>
      <point x="232.625" y="741.0"/>
      <point x="96.75" y="148.75"/>
    </contour>
  </outline>
</glyph>
<glyph name="I" format="2">
  <advance width="499.625"/>
  <unicode hex="0049"/>
  <anchor x="107.625" y="0.0" name="bottom"/>
  <anchor x="161.0" y="-3.0" name="ogonek"/>
  <anchor x="453.625" y="1291.0" name="top"/>
  <anchor x="225.75" y="1291.0" name="topleft"/>
  <outline>
    <contour>
      <point x="161.0" y="-3.0" type="curve"/>
      <point x="178.0" y="52.0"/>
      <point x="285.875" y="452.0"/>
      <point x="320.0" y="578.625" type="curve" smooth="yes"/>
      <point x="369.375" y="763.5"/>
      <point x="441.5" y="1053.625"/>
      <point x="506.125" y="1320.375" type="curve"/>
      <point x="473.75" y="1320.375"/>
      <point x="412.25" y="1318.75"/>
      <point x="393.125" y="1316.75" type="curve"/>
      <point x="318.875" y="1050.0"/>
      <point x="254.875" y="814.125"/>
      <point x="208.75" y="640.375" type="curve" smooth="yes"/>
      <point x="158.625" y="450.5"/>
      <point x="82.625" y="158.25"/>
      <point x="45.875" y="2.5" type="curve"/>
      <point x="69.75" y="-1.125"/>
      <point x="137.875" y="-3.0"/>
    </contour>
  </outline>
</glyph>
<glyph name="J" format="2">
  <advance width="1178.0"/>
  <unicode hex="004A"/>
  <anchor x="446.585" y="0.0" name="bottom"/>
  <anchor x="1089.625" y="1291.0" name="top"/>
  <outline>
    <contour>
      <point x="454.25" y="-19.0" type="curve" smooth="yes"/>
      <point x="753.875" y="-19.0"/>
      <point x="933.5" y="230.375"/>
      <point x="1028.625" y="588.625" type="curve" smooth="yes"/>
      <point x="1081.875" y="788.75"/>
      <point x="1147.125" y="1142.875"/>
      <point x="1175.625" y="1310.25" type="curve"/>
      <point x="1161.25" y="1312.125"/>
      <point x="1137.0" y="1314.125"/>
      <point x="1112.0" y="1314.125" type="curve" smooth="yes"/>
      <point x="1086.75" y="1314.125"/>
      <point x="1058.875" y="1311.25"/>
      <point x="1039.75" y="1307.0" type="curve"/>
      <point x="1037.625" y="1285.0"/>
      <point x="946.375" y="774.25"/>
      <point x="891.375" y="568.125" type="curve" smooth="yes"/>
      <point x="818.75" y="297.75"/>
      <point x="683.875" y="100.625"/>
      <point x="471.875" y="100.625" type="curve" smooth="yes"/>
      <point x="260.5" y="100.625"/>
      <point x="201.875" y="277.625"/>
      <point x="201.875" y="464.625" type="curve"/>
      <point x="161.625" y="450.0"/>
      <point x="95.125" y="422.0"/>
      <point x="63.0" y="404.375" type="curve"/>
      <point x="72.625" y="170.0"/>
      <point x="193.125" y="-19.0"/>
    </contour>
  </outline>
</glyph>
<glyph name="K" format="2">
  <advance width="1067.75"/>
  <unicode hex="004B"/>
  <anchor x="415.585" y="0.0" name="bottom"/>
  <anchor x="761.507" y="1291.0" name="top"/>
  <outline>
    <contour>
      <point x="81.125" y="-32.0" type="curve"/>
      <point x="128.5" y="-29.5"/>
      <point x="191.0" y="-22.625"/>
      <point x="214.0" y="-19.75" type="curve"/>
      <point x="220.0" y="4.375"/>
      <point x="303.0" y="367.375"/>
      <point x="350.75" y="594.5" type="curve"/>
      <point x="371.875" y="604.25"/>
      <point x="426.5" y="633.375"/>
      <point x="452.5" y="650.375" type="curve"/>
      <point x="617.5" y="417.125"/>
      <point x="727.875" y="29.375"/>
      <point x="733.25" y="1.125" type="curve"/>
      <point x="767.0" y="12.625"/>
      <point x="830.5" y="41.375"/>
      <point x="859.75" y="60.5" type="curve"/>
      <point x="842.0" y="133.625"/>
      <point x="695.875" y="528.25"/>
      <point x="553.375" y="714.375" type="curve"/>
      <point x="877.125" y="915.75"/>
      <point x="1113.75" y="1136.625"/>
      <point x="1185.875" y="1210.75" type="curve"/>
      <point x="1168.75" y="1220.375"/>
      <point x="1120.75" y="1254.25"/>
      <point x="1097.0" y="1278.75" type="curve"/>
      <point x="895.5" y="1053.25"/>
      <point x="563.625" y="840.375"/>
      <point x="375.875" y="729.375" type="curve"/>
      <point x="424.625" y="962.0"/>
      <point x="481.875" y="1237.375"/>
      <point x="492.0" y="1297.0" type="curve"/>
      <point x="481.25" y="1299.625"/>
      <point x="460.0" y="1301.375"/>
      <point x="437.75" y="1301.375" type="curve" smooth="yes"/>
      <point x="414.875" y="1301.375"/>
      <point x="388.625" y="1299.875"/>
      <point x="373.125" y="1296.0" type="curve"/>
      <point x="327.75" y="1072.625"/>
      <point x="152.375" y="271.5"/>
    </contour>
  </outline>
</glyph>
<glyph name="L" format="2">
  <advance width="961.0"/>
  <unicode hex="004C"/>
  <anchor x="338.585" y="0.0" name="bottom"/>
  <anchor x="511.68" y="646.0" name="center"/>
  <anchor x="465.5" y="1296.5" name="top"/>
  <anchor x="599.5" y="907.5" name="topright"/>
  <outline>
    <contour>
      <point x="48.125" y="5.625" type="curve"/>
      <point x="156.125" y="4.25"/>
      <point x="256.375" y="5.125"/>
      <point x="365.875" y="9.5" type="curve" smooth="yes"/>
      <point x="472.875" y="13.875"/>
      <point x="591.25" y="20.5"/>
      <point x="737.125" y="33.125" type="curve"/>
      <point x="749.875" y="65.375"/>
      <point x="766.375" y="117.375"/>
      <point x="773.875" y="147.625" type="curve"/>
      <point x="591.0" y="147.625"/>
      <point x="345.875" y="135.0"/>
      <point x="217.625" y="127.625" type="curve"/>
      <point x="232.75" y="174.75"/>
      <point x="258.375" y="266.0"/>
      <point x="289.875" y="380.75" type="curve" smooth="yes"/>
      <point x="368.875" y="664.625"/>
      <point x="475.375" y="1066.5"/>
      <point x="521.625" y="1292.0" type="curve"/>
      <point x="513.375" y="1293.5"/>
      <point x="479.25" y="1296.5"/>
      <point x="455.375" y="1296.5" type="curve" smooth="yes"/>
      <point x="433.875" y="1296.5"/>
      <point x="408.0" y="1294.25"/>
      <point x="395.625" y="1292.5" type="curve"/>
      <point x="362.875" y="1151.75"/>
      <point x="293.0" y="883.75"/>
      <point x="223.5" y="625.125" type="curve" smooth="yes"/>
      <point x="154.0" y="366.375"/>
      <point x="82.5" y="115.625"/>
    </contour>
  </outline>
</glyph>
<glyph name="M" format="2">
  <advance width="1393.125"/>
  <unicode hex="004D"/>
  <anchor x="538.875" y="0.0" name="bottom"/>
  <anchor x="884.875" y="1291.0" name="top"/>
  <outline>
    <contour>
      <point x="10.0" y="-18.375" type="curve"/>
      <point x="53.25" y="-18.375"/>
      <point x="112.125" y="-15.5"/>
      <point x="142.625" y="-13.375" type="curve"/>
      <point x="167.875" y="80.125"/>
      <point x="350.375" y="756.0"/>
      <point x="444.25" y="1099.875" type="curve"/>
      <point x="456.125" y="903.75"/>
      <point x="485.375" y="58.125"/>
      <point x="484.625" y="33.625" type="curve"/>
      <point x="503.25" y="28.75"/>
      <point x="562.5" y="23.875"/>
      <point x="595.875" y="24.375" type="curve"/>
      <point x="664.0" y="105.25"/>
      <point x="1138.375" y="860.875"/>
      <point x="1251.5" y="1077.625" type="curve"/>
      <point x="1229.25" y="987.25"/>
      <point x="1167.875" y="743.125"/>
      <point x="1117.875" y="560.0" type="curve" smooth="yes"/>
      <point x="1064.0" y="361.75"/>
      <point x="1005.625" y="162.25"/>
      <point x="946.375" y="-1.375" type="curve"/>
      <point x="977.125" y="-4.625"/>
      <point x="1031.375" y="-7.625"/>
      <point x="1070.25" y="-7.625" type="curve"/>
      <point x="1113.625" y="117.625"/>
      <point x="1193.5" y="402.125"/>
      <point x="1259.875" y="650.625" type="curve" smooth="yes"/>
      <point x="1324.375" y="891.875"/>
      <point x="1380.125" y="1127.125"/>
      <point x="1388.625" y="1256.375" type="curve"/>
      <point x="1360.25" y="1260.5"/>
      <point x="1276.0" y="1265.5"/>
      <point x="1238.625" y="1265.5" type="curve"/>
      <point x="1145.875" y="1077.75"/>
      <point x="700.25" y="354.0"/>
      <point x="576.375" y="150.375" type="curve"/>
      <point x="592.625" y="352.25"/>
      <point x="541.625" y="1240.375"/>
      <point x="539.875" y="1262.0" type="curve"/>
      <point x="526.0" y="1262.0"/>
      <point x="430.375" y="1260.875"/>
      <point x="376.625" y="1254.5" type="curve"/>
      <point x="323.375" y="1082.25"/>
      <point x="109.0" y="349.75"/>
    </contour>
  </outline>
</glyph>
<glyph name="N" format="2">
  <advance width="1282.0"/>
  <unicode hex="004E"/>
  <anchor x="498.585" y="0.0" name="bottom"/>
  <anchor x="844.507" y="1291.0" name="top"/>
  <outline>
    <contour>
      <point x="238.125" y="-5.25" type="curve"/>
      <point x="274.75" y="130.625"/>
      <point x="484.25" y="967.0"/>
      <point x="511.375" y="1093.75" type="curve"/>
      <point x="569.5" y="920.0"/>
      <point x="806.875" y="128.375"/>
      <point x="843.125" y="0.0" type="curve"/>
      <point x="858.75" y="-2.0"/>
      <point x="877.5" y="-2.375"/>
      <point x="898.0" y="-2.375" type="curve" smooth="yes"/>
      <point x="915.125" y="-2.375"/>
      <point x="933.875" y="-2.25"/>
      <point x="956.875" y="-1.125" type="curve"/>
      <point x="969.125" y="25.375"/>
      <point x="1000.125" y="127.5"/>
      <point x="1032.0" y="249.0" type="curve" smooth="yes"/>
      <point x="1103.625" y="523.5"/>
      <point x="1227.75" y="1020.875"/>
      <point x="1277.75" y="1241.125" type="curve"/>
      <point x="1251.125" y="1252.25"/>
      <point x="1195.5" y="1262.25"/>
      <point x="1146.5" y="1262.25" type="curve"/>
      <point x="902.625" y="193.375" type="line"/>
      <point x="832.875" y="454.5"/>
      <point x="700.25" y="928.5"/>
      <point x="570.25" y="1261.375" type="curve"/>
      <point x="544.625" y="1267.0"/>
      <point x="471.375" y="1272.75"/>
      <point x="438.25" y="1272.75" type="curve"/>
      <point x="426.625" y="1229.125"/>
      <point x="401.75" y="1134.75"/>
      <point x="372.875" y="1025.375" type="curve" smooth="yes"/>
      <point x="284.75" y="689.5"/>
      <point x="122.125" y="69.625"/>
      <point x="104.625" y="-5.25" type="curve"/>
      <point x="135.625" y="-6.5"/>
      <point x="203.75" y="-7.0"/>
    </contour>
  </outline>
</glyph>
<glyph name="O" format="2">
  <advance width="1354.0"/>
  <unicode hex="004F"/>
  <anchor x="534.585" y="0.0" name="bottom"/>
  <anchor x="653.125" y="646.0" name="center"/>
  <anchor x="780.375" y="0.0" name="ogonek"/>
  <anchor x="880.507" y="1291.0" name="top"/>
  <anchor x="223.507" y="1291.0" name="topleft"/>
  <anchor x="1169.125" y="1175.125" name="topright"/>
  <outline>
    <contour>
      <point x="537.125" y="-51.0" type="curve" smooth="yes"/>
      <point x="981.125" y="-51.0"/>
      <point x="1242.625" y="363.125"/>
      <point x="1242.625" y="845.125" type="curve" smooth="yes"/>
      <point x="1242.625" y="1096.5"/>
      <point x="1149.875" y="1320.0"/>
      <point x="858.75" y="1320.0" type="curve" smooth="yes"/>
      <point x="400.5" y="1320.0"/>
      <point x="134.0" y="890.375"/>
      <point x="134.0" y="396.875" type="curve" smooth="yes"/>
      <point x="134.0" y="136.125"/>
      <point x="250.625" y="-51.0"/>
    </contour>
    <contour>
      <point x="541.75" y="67.375" type="curve" smooth="yes"/>
      <point x="340.375" y="67.375"/>
      <point x="260.75" y="218.75"/>
      <point x="260.75" y="417.0" type="curve" smooth="yes"/>
      <point x="260.75" y="831.875"/>
      <point x="467.75" y="1208.5"/>
      <point x="848.875" y="1208.5" type="curve" smooth="yes"/>
      <point x="1061.5" y="1208.5"/>
      <point x="1125.625" y="1026.25"/>
      <point x="1125.625" y="835.875" type="curve" smooth="yes"/>
      <point x="1125.625" y="428.125"/>
      <point x="912.25" y="67.375"/>
    </contour>
  </outline>
</glyph>
<glyph name="P" format="2">
  <advance width="1010.0"/>
  <unicode hex="0050"/>
  <anchor x="360.136875" y="0.0" name="bottom"/>
  <anchor x="706.068625" y="1291.0" name="top"/>
  <outline>
    <contour>
      <point x="13.5" y="-23.25" type="curve"/>
      <point x="40.875" y="-24.875"/>
      <point x="106.375" y="-26.25"/>
      <point x="140.375" y="-26.25" type="curve"/>
      <point x="216.875" y="225.875"/>
      <point x="317.5" y="569.75"/>
      <point x="339.0" y="647.625" type="curve"/>
      <point x="398.375" y="639.5"/>
      <point x="471.375" y="634.125"/>
      <point x="528.5" y="634.125" type="curve" smooth="yes"/>
      <point x="833.75" y="634.125"/>
      <point x="1057.375" y="755.625"/>
      <point x="1057.375" y="1041.5" type="curve" smooth="yes"/>
      <point x="1057.375" y="1201.75"/>
      <point x="942.875" y="1285.0"/>
      <point x="742.625" y="1285.0" type="curve" smooth="yes"/>
      <point x="596.125" y="1285.0"/>
      <point x="488.875" y="1267.25"/>
      <point x="395.25" y="1249.0" type="curve"/>
      <point x="221.25" y="699.375"/>
      <point x="112.375" y="326.875"/>
    </contour>
    <contour>
      <point x="369.625" y="757.625" type="curve"/>
      <point x="381.375" y="795.625"/>
      <point x="486.25" y="1146.25"/>
      <point x="490.125" y="1169.25" type="curve"/>
      <point x="588.75" y="1181.875"/>
      <point x="674.625" y="1187.5"/>
      <point x="735.75" y="1187.5" type="curve" smooth="yes"/>
      <point x="865.625" y="1187.5"/>
      <point x="942.125" y="1141.75"/>
      <point x="942.125" y="1018.75" type="curve" smooth="yes"/>
      <point x="942.125" y="827.625"/>
      <point x="764.0" y="739.25"/>
      <point x="550.625" y="739.25" type="curve" smooth="yes"/>
      <point x="479.5" y="739.25"/>
      <point x="421.5" y="747.5"/>
    </contour>
  </outline>
</glyph>
<glyph name="Q" format="2">
  <advance width="1291.0"/>
  <unicode hex="0051"/>
  <anchor x="503.585" y="0.0" name="bottom"/>
  <anchor x="849.507" y="1291.0" name="top"/>
  <outline>
    <contour>
      <point x="1009.0" y="-50.5" type="curve"/>
      <point x="1037.125" y="-21.5"/>
      <point x="1070.875" y="25.125"/>
      <point x="1091.75" y="56.875" type="curve"/>
      <point x="1017.625" y="78.875"/>
      <point x="947.375" y="112.25"/>
      <point x="905.625" y="161.75" type="curve"/>
      <point x="1110.0" y="313.5"/>
      <point x="1195.375" y="607.75"/>
      <point x="1195.375" y="883.0" type="curve" smooth="yes"/>
      <point x="1195.375" y="1135.125"/>
      <point x="1095.5" y="1299.0"/>
      <point x="825.0" y="1299.0" type="curve" smooth="yes"/>
      <point x="432.875" y="1299.0"/>
      <point x="169.875" y="842.625"/>
      <point x="169.875" y="404.375" type="curve" smooth="yes"/>
      <point x="169.875" y="176.75"/>
      <point x="261.625" y="4.375"/>
      <point x="506.625" y="4.375" type="curve" smooth="yes"/>
      <point x="679.75" y="4.375"/>
      <point x="773.125" y="74.5"/>
      <point x="806.0" y="102.5" type="curve"/>
      <point x="834.25" y="69.5"/>
      <point x="956.375" y="-29.375"/>
    </contour>
    <contour>
      <point x="753.125" y="188.875" type="curve"/>
      <point x="727.125" y="166.75"/>
      <point x="656.625" y="110.375"/>
      <point x="541.125" y="110.375" type="curve" smooth="yes"/>
      <point x="353.125" y="110.375"/>
      <point x="296.375" y="229.125"/>
      <point x="296.375" y="399.625" type="curve" smooth="yes"/>
      <point x="296.375" y="778.875"/>
      <point x="486.5" y="1196.0"/>
      <point x="815.375" y="1196.0" type="curve" smooth="yes"/>
      <point x="1013.375" y="1196.0"/>
      <point x="1082.75" y="1065.5"/>
      <point x="1082.75" y="873.25" type="curve" smooth="yes"/>
      <point x="1082.75" y="641.75"/>
      <point x="1011.625" y="381.0"/>
      <point x="844.0" y="236.125" type="curve"/>
      <point x="779.625" y="314.875"/>
      <point x="741.75" y="444.75"/>
      <point x="723.75" y="528.0" type="curve"/>
      <point x="700.625" y="515.125"/>
      <point x="645.25" y="478.5"/>
      <point x="626.375" y="463.625" type="curve"/>
      <point x="648.25" y="370.0"/>
      <point x="699.5" y="249.25"/>
    </contour>
  </outline>
</glyph>
<glyph name="R" format="2">
  <advance width="1094.0"/>
  <unicode hex="0052"/>
  <anchor x="404.585" y="0.0" name="bottom"/>
  <anchor x="688.0" y="1322.25" name="top"/>
  <outline>
    <contour>
      <point x="66.25" y="-28.375" type="curve"/>
      <point x="110.875" y="-28.375"/>
      <point x="177.75" y="-26.125"/>
      <point x="208.375" y="-20.75" type="curve"/>
      <point x="240.75" y="146.625"/>
      <point x="327.75" y="571.375"/>
      <point x="336.125" y="614.375" type="curve"/>
      <point x="379.75" y="614.5"/>
      <point x="528.25" y="627.0"/>
      <point x="632.375" y="653.875" type="curve"/>
      <point x="677.25" y="518.625"/>
      <point x="692.375" y="226.125"/>
      <point x="692.375" y="-15.75" type="curve"/>
      <point x="713.75" y="-14.625"/>
      <point x="781.625" y="9.375"/>
      <point x="819.5" y="30.375" type="curve"/>
      <point x="818.625" y="181.125"/>
      <point x="798.375" y="544.0"/>
      <point x="740.875" y="688.0" type="curve"/>
      <point x="923.75" y="748.75"/>
      <point x="1033.375" y="861.625"/>
      <point x="1033.375" y="1059.25" type="curve" smooth="yes"/>
      <point x="1033.375" y="1242.875"/>
      <point x="924.75" y="1322.25"/>
      <point x="733.5" y="1322.25" type="curve" smooth="yes"/>
      <point x="614.125" y="1322.25"/>
      <point x="431.75" y="1311.375"/>
      <point x="348.25" y="1303.0" type="curve"/>
      <point x="255.875" y="843.25"/>
      <point x="150.125" y="318.0"/>
    </contour>
    <contour>
      <point x="359.0" y="719.375" type="curve"/>
      <point x="367.875" y="767.375"/>
      <point x="439.25" y="1152.5"/>
      <point x="449.0" y="1211.25" type="curve"/>
      <point x="477.25" y="1214.25"/>
      <point x="649.875" y="1227.25"/>
      <point x="692.875" y="1227.25" type="curve" smooth="yes"/>
      <point x="822.25" y="1227.25"/>
      <point x="916.375" y="1189.875"/>
      <point x="916.375" y="1048.875" type="curve" smooth="yes"/>
      <point x="916.375" y="849.625"/>
      <point x="801.625" y="794.625"/>
      <point x="582.375" y="746.5" type="curve" smooth="yes"/>
      <point x="494.375" y="727.5"/>
      <point x="428.375" y="719.375"/>
    </contour>
  </outline>
</glyph>
<glyph name="S" format="2">
  <advance width="1152.0"/>
  <unicode hex="0053"/>
  <anchor x="477.875" y="0.0" name="bottom"/>
  <anchor x="737.0" y="1319.75" name="top"/>
  <outline>
    <contour>
      <point x="477.875" y="-10.125" type="curve" smooth="yes"/>
      <point x="758.625" y="-10.125"/>
      <point x="1030.125" y="149.75"/>
      <point x="1030.125" y="453.625" type="curve" smooth="yes"/>
      <point x="1030.125" y="675.125"/>
      <point x="830.75" y="739.875"/>
      <point x="623.375" y="800.875" type="curve" smooth="yes"/>
      <point x="519.875" y="830.375"/>
      <point x="405.875" y="872.375"/>
      <point x="405.875" y="1002.0" type="curve" smooth="yes"/>
      <point x="405.875" y="1165.125"/>
      <point x="555.125" y="1247.625"/>
      <point x="725.75" y="1247.625" type="curve" smooth="yes"/>
      <point x="954.875" y="1247.625"/>
      <point x="1054.875" y="1129.0"/>
      <point x="1080.5" y="1081.125" type="curve"/>
      <point x="1102.875" y="1095.875"/>
      <point x="1146.625" y="1145.375"/>
      <point x="1164.875" y="1172.25" type="curve"/>
      <point x="1140.5" y="1229.75"/>
      <point x="972.0" y="1349.0"/>
      <point x="747.875" y="1349.0" type="curve" smooth="yes"/>
      <point x="496.875" y="1349.0"/>
      <point x="282.25" y="1229.375"/>
      <point x="282.25" y="981.625" type="curve" smooth="yes"/>
      <point x="282.25" y="817.125"/>
      <point x="412.125" y="739.875"/>
      <point x="589.75" y="690.5" type="curve" smooth="yes"/>
      <point x="765.625" y="643.5"/>
      <point x="904.5" y="585.625"/>
      <point x="904.5" y="433.125" type="curve" smooth="yes"/>
      <point x="904.5" y="208.625"/>
      <point x="699.375" y="98.875"/>
      <point x="488.625" y="98.875" type="curve" smooth="yes"/>
      <point x="247.625" y="98.875"/>
      <point x="143.375" y="324.25"/>
      <point x="121.625" y="386.5" type="curve"/>
      <point x="91.625" y="370.875"/>
      <point x="36.375" y="322.0"/>
      <point x="16.5" y="303.25" type="curve"/>
      <point x="43.5" y="200.25"/>
      <point x="196.25" y="-10.125"/>
    </contour>
  </outline>
</glyph>
<glyph name="T" format="2">
  <advance width="1039.0"/>
  <unicode hex="0054"/>
  <anchor x="405.25" y="0.0" name="bottom"/>
  <anchor x="550.7199999999999" y="646.0" name="center"/>
  <anchor x="723.507" y="1291.0" name="top"/>
  <outline>
    <contour>
      <point x="224.375" y="1208.625" type="curve"/>
      <point x="318.125" y="1213.0"/>
      <point x="536.125" y="1220.375"/>
      <point x="650.125" y="1223.0" type="curve"/>
      <point x="640.625" y="1186.75"/>
      <point x="627.25" y="1137.75"/>
      <point x="612.0" y="1080.0" type="curve" smooth="yes"/>
      <point x="528.0" y="767.5"/>
      <point x="382.75" y="187.75"/>
      <point x="338.125" y="-14.0" type="curve"/>
      <point x="366.25" y="-14.0"/>
      <point x="443.5" y="-10.75"/>
      <point x="472.5" y="-6.125" type="curve"/>
      <point x="491.75" y="79.125"/>
      <point x="728.25" y="1050.25"/>
      <point x="771.5" y="1222.25" type="curve"/>
      <point x="897.0" y="1221.875"/>
      <point x="1120.875" y="1218.375"/>
      <point x="1180.125" y="1215.75" type="curve"/>
      <point x="1190.0" y="1243.75"/>
      <point x="1202.75" y="1288.625"/>
      <point x="1208.375" y="1322.875" type="curve"/>
      <point x="1099.75" y="1336.375"/>
      <point x="961.625" y="1340.625"/>
      <point x="817.875" y="1340.625" type="curve" smooth="yes"/>
      <point x="615.25" y="1340.625"/>
      <point x="401.375" y="1331.5"/>
      <point x="245.875" y="1323.875" type="curve"/>
      <point x="238.5" y="1295.625"/>
      <point x="227.5" y="1238.375"/>
    </contour>
  </outline>
</glyph>
<glyph name="U" format="2">
  <advance width="1212.0"/>
  <unicode hex="0055"/>
  <anchor x="463.585" y="0.0" name="bottom"/>
  <anchor x="678.25" y="0.0" name="ogonek"/>
  <anchor x="841.125" y="1324.125" name="top"/>
  <anchor x="1212.875" y="1174.0" name="topright"/>
  <outline>
    <contour>
      <point x="495.875" y="-41.0" type="curve" smooth="yes"/>
      <point x="869.625" y="-41.0"/>
      <point x="1027.625" y="318.375"/>
      <point x="1167.625" y="835.375" type="curve" smooth="yes"/>
      <point x="1212.0" y="999.25"/>
      <point x="1251.5" y="1192.375"/>
      <point x="1265.25" y="1313.5" type="curve"/>
      <point x="1239.25" y="1322.375"/>
      <point x="1178.375" y="1329.75"/>
      <point x="1134.875" y="1329.75" type="curve"/>
      <point x="1112.5" y="1156.625"/>
      <point x="1048.25" y="884.625"/>
      <point x="1006.5" y="725.75" type="curve" smooth="yes"/>
      <point x="897.625" y="311.0"/>
      <point x="735.25" y="85.25"/>
      <point x="530.625" y="85.25" type="curve" smooth="yes"/>
      <point x="388.0" y="85.25"/>
      <point x="315.25" y="175.625"/>
      <point x="315.25" y="349.25" type="curve" smooth="yes"/>
      <point x="315.25" y="455.75"/>
      <point x="351.0" y="629.75"/>
      <point x="399.75" y="814.75" type="curve" smooth="yes"/>
      <point x="448.75" y="1003.0"/>
      <point x="514.125" y="1203.375"/>
      <point x="570.375" y="1358.625" type="curve"/>
      <point x="553.5" y="1362.125"/>
      <point x="526.25" y="1365.375"/>
      <point x="494.25" y="1365.375" type="curve" smooth="yes"/>
      <point x="473.25" y="1365.375"/>
      <point x="450.5" y="1363.0"/>
      <point x="432.0" y="1360.375" type="curve"/>
      <point x="371.75" y="1180.25"/>
      <point x="313.625" y="995.125"/>
      <point x="270.125" y="825.625" type="curve" smooth="yes"/>
      <point x="220.125" y="631.25"/>
      <point x="187.75" y="457.375"/>
      <point x="187.75" y="325.5" type="curve" smooth="yes"/>
      <point x="187.75" y="97.125"/>
      <point x="269.25" y="-41.0"/>
    </contour>
  </outline>
</glyph>
<glyph name="V" format="2">
  <advance width="1168.125"/>
  <unicode hex="0056"/>
  <anchor x="441.761875" y="0.0" name="bottom"/>
  <anchor x="787.693625" y="1291.0" name="top"/>
  <outline>
    <contour>
      <point x="452.0" y="-19.375" type="curve" smooth="yes"/>
      <point x="485.375" y="-19.375"/>
      <point x="509.875" y="-18.375"/>
      <point x="529.875" y="-16.0" type="curve"/>
      <point x="549.375" y="12.125"/>
      <point x="850.0" y="463.25"/>
      <point x="1278.75" y="1322.875" type="curve"/>
      <point x="1249.625" y="1343.75"/>
      <point x="1198.5" y="1355.5"/>
      <point x="1154.875" y="1359.875" type="curve"/>
      <point x="1143.625" y="1331.625"/>
      <point x="805.25" y="649.125"/>
      <point x="477.875" y="108.625" type="curve"/>
      <point x="462.75" y="409.875"/>
      <point x="452.25" y="1178.375"/>
      <point x="452.25" y="1360.75" type="curve"/>
      <point x="419.75" y="1360.75"/>
      <point x="348.875" y="1350.5"/>
      <point x="318.875" y="1341.25" type="curve"/>
      <point x="318.875" y="1160.25"/>
      <point x="326.875" y="270.875"/>
      <point x="363.0" y="-10.0" type="curve"/>
      <point x="381.25" y="-16.0"/>
      <point x="419.25" y="-19.375"/>
    </contour>
  </outline>
</glyph>
<glyph name="W" format="2">
  <advance width="1344.0"/>
  <unicode hex="0057"/>
  <anchor x="529.585" y="0.0" name="bottom"/>
  <anchor x="875.507" y="1291.0" name="top"/>
  <outline>
    <contour>
      <point x="761.25" y="-16.75" type="curve"/>
      <point x="892.5" y="-6.625" type="line"/>
      <point x="931.125" y="54.125"/>
      <point x="1227.375" y="727.875"/>
      <point x="1395.625" y="1356.875" type="curve"/>
      <point x="1262.625" y="1344.75" type="line"/>
      <point x="1174.875" y="1018.125"/>
      <point x="986.75" y="465.0"/>
      <point x="848.25" y="152.375" type="curve"/>
      <point x="849.5" y="315.125"/>
      <point x="847.0" y="838.0"/>
      <point x="846.375" y="856.625" type="curve"/>
      <point x="732.5" y="856.625" type="line"/>
      <point x="707.25" y="824.875"/>
      <point x="346.75" y="359.375"/>
      <point x="246.375" y="184.375" type="curve"/>
      <point x="325.375" y="582.625"/>
      <point x="416.75" y="939.375"/>
      <point x="524.375" y="1340.0" type="curve"/>
      <point x="396.125" y="1345.5" type="line"/>
      <point x="278.875" y="908.5"/>
      <point x="201.25" y="544.875"/>
      <point x="103.5" y="-4.375" type="curve"/>
      <point x="217.75" y="-6.625" type="line"/>
      <point x="252.5" y="41.25"/>
      <point x="684.375" y="621.75"/>
      <point x="740.0" y="701.25" type="curve"/>
      <point x="739.625" y="602.0"/>
      <point x="753.75" y="168.75"/>
    </contour>
  </outline>
</glyph>
<glyph name="X" format="2">
  <advance width="1130.5"/>
  <unicode hex="0058"/>
  <anchor x="429.823125" y="0.0" name="bottom"/>
  <anchor x="775.813375" y="1291.0" name="top"/>
  <outline>
    <contour>
      <point x="566.625" y="667.625" type="curve"/>
      <point x="502.0" y="591.375"/>
      <point x="212.375" y="280.5"/>
      <point x="-37.0" y="41.125" type="curve"/>
      <point x="0.375" y="17.875"/>
      <point x="47.375" y="2.125"/>
      <point x="92.125" y="-3.0" type="curve"/>
      <point x="111.125" y="16.125"/>
      <point x="575.625" y="502.5"/>
      <point x="610.625" y="550.5" type="curve"/>
      <point x="682.25" y="351.125"/>
      <point x="744.125" y="110.625"/>
      <point x="771.25" y="-19.875" type="curve"/>
      <point x="809.5" y="-16.5"/>
      <point x="859.125" y="-5.625"/>
      <point x="903.375" y="18.875" type="curve"/>
      <point x="860.0" y="179.375"/>
      <point x="738.75" y="543.5"/>
      <point x="696.0" y="643.25" type="curve"/>
      <point x="763.625" y="702.75"/>
      <point x="1066.5" y="1023.625"/>
      <point x="1229.875" y="1262.125" type="curve"/>
      <point x="1208.375" y="1279.5"/>
      <point x="1151.125" y="1300.875"/>
      <point x="1107.375" y="1310.5" type="curve"/>
      <point x="1067.75" y="1245.75"/>
      <point x="861.0" y="950.25"/>
      <point x="658.625" y="744.875" type="curve"/>
      <point x="571.5" y="1040.0"/>
      <point x="488.375" y="1253.625"/>
      <point x="451.625" y="1330.375" type="curve"/>
      <point x="412.25" y="1324.125"/>
      <point x="354.5" y="1304.875"/>
      <point x="307.875" y="1285.75" type="curve"/>
      <point x="343.375" y="1222.25"/>
      <point x="488.375" y="909.625"/>
    </contour>
  </outline>
</glyph>
<glyph name="Y" format="2">
  <advance width="1065.0"/>
  <unicode hex="0059"/>
  <anchor x="411.0" y="0.0" name="bottom"/>
  <anchor x="757.0" y="1291.0" name="top"/>
  <anchor x="244.0" y="1291.0" name="topleft"/>
  <outline>
    <contour>
      <point x="467.625" y="500.75" type="curve"/>
      <point x="417.125" y="344.375"/>
      <point x="361.75" y="151.125"/>
      <point x="324.125" y="-5.75" type="curve"/>
      <point x="349.25" y="-9.625"/>
      <point x="374.875" y="-11.375"/>
      <point x="399.0" y="-11.375" type="curve" smooth="yes"/>
      <point x="420.0" y="-11.375"/>
      <point x="442.25" y="-9.625"/>
      <point x="457.75" y="-7.75" type="curve"/>
      <point x="463.875" y="22.5"/>
      <point x="498.375" y="162.75"/>
      <point x="521.375" y="251.75" type="curve" smooth="yes"/>
      <point x="539.625" y="321.625"/>
      <point x="578.625" y="459.5"/>
      <point x="592.125" y="506.125" type="curve"/>
      <point x="876.25" y="876.25"/>
      <point x="1070.5" y="1115.125"/>
      <point x="1185.5" y="1234.875" type="curve"/>
      <point x="1162.5" y="1256.875"/>
      <point x="1117.625" y="1286.5"/>
      <point x="1073.875" y="1303.75" type="curve"/>
      <point x="978.375" y="1198.125"/>
      <point x="626.75" y="735.125"/>
      <point x="555.0" y="638.625" type="curve"/>
      <point x="515.5" y="798.75"/>
      <point x="451.5" y="1268.125"/>
      <point x="447.875" y="1318.875" type="curve"/>
      <point x="404.875" y="1314.5"/>
      <point x="358.75" y="1303.625"/>
      <point x="309.5" y="1286.75" type="curve"/>
      <point x="320.75" y="1210.75"/>
      <point x="438.5" y="577.25"/>
    </contour>
  </outline>
</glyph>
<glyph name="Z" format="2">
  <advance width="1044.0"/>
  <unicode hex="005A"/>
  <anchor x="379.585" y="0.0" name="bottom"/>
  <anchor x="552.68" y="646.0" name="center"/>
  <anchor x="725.507" y="1291.0" name="top"/>
  <outline>
    <contour>
      <point x="803.875" y="-14.0" type="curve"/>
      <point x="810.375" y="-0.375"/>
      <point x="822.625" y="29.875"/>
      <point x="831.75" y="57.625" type="curve" smooth="yes"/>
      <point x="839.5" y="81.875"/>
      <point x="846.875" y="106.625"/>
      <point x="850.375" y="124.0" type="curve"/>
      <point x="792.5" y="121.625"/>
      <point x="720.375" y="120.125"/>
      <point x="645.75" y="120.125" type="curve" smooth="yes"/>
      <point x="462.375" y="120.125"/>
      <point x="255.375" y="126.5"/>
      <point x="155.25" y="134.875" type="curve"/>
      <point x="280.625" y="243.875"/>
      <point x="884.375" y="872.5"/>
      <point x="1156.125" y="1229.0" type="curve"/>
      <point x="1160.875" y="1241.125"/>
      <point x="1167.125" y="1261.875"/>
      <point x="1173.875" y="1286.75" type="curve" smooth="yes"/>
      <point x="1177.5" y="1299.375"/>
      <point x="1182.0" y="1320.375"/>
      <point x="1183.25" y="1330.0" type="curve"/>
      <point x="1145.25" y="1330.5"/>
      <point x="1012.5" y="1328.125"/>
      <point x="987.625" y="1327.25" type="curve" smooth="yes"/>
      <point x="806.125" y="1322.0"/>
      <point x="568.5" y="1306.875"/>
      <point x="375.75" y="1294.0" type="curve"/>
      <point x="371.25" y="1282.25"/>
      <point x="364.625" y="1260.125"/>
      <point x="359.0" y="1236.5" type="curve" smooth="yes"/>
      <point x="353.625" y="1214.75"/>
      <point x="348.375" y="1191.25"/>
      <point x="345.75" y="1179.0" type="curve"/>
      <point x="575.0" y="1197.5"/>
      <point x="939.75" y="1222.0"/>
      <point x="1013.125" y="1222.875" type="curve"/>
      <point x="865.125" y="1039.75"/>
      <point x="250.75" y="352.625"/>
      <point x="1.25" y="132.5" type="curve"/>
      <point x="-5.375" y="106.25"/>
      <point x="-19.25" y="46.5"/>
      <point x="-23.75" y="22.0" type="curve"/>
      <point x="292.25" y="-4.75"/>
      <point x="567.875" y="-14.0"/>
    </contour>
  </outline>
</glyph>
<glyph name="bracketleft" format="2">
  <advance width="735.0"/>
  <unicode hex="005B"/>
  <outline>
    <contour>
      <point x="63.125" y="-526.875" type="curve" smooth="yes"/>
      <point x="170.125" y="-526.875"/>
      <point x="275.0" y="-523.125"/>
      <point x="345.875" y="-516.875" type="curve"/>
      <point x="353.375" y="-498.875"/>
      <point x="369.375" y="-454.375"/>
      <point x="376.0" y="-429.875" type="curve"/>
      <point x="315.625" y="-431.625"/>
      <point x="221.25" y="-431.5"/>
      <point x="141.25" y="-431.25" type="curve" smooth="yes"/>
      <point x="58.625" y="-430.875"/>
      <point x="-12.25" y="-430.5"/>
      <point x="-29.375" y="-430.625" type="curve"/>
      <point x="-2.125" y="-267.375"/>
      <point x="88.375" y="107.25"/>
      <point x="189.625" y="485.0" type="curve" smooth="yes"/>
      <point x="296.25" y="884.0"/>
      <point x="416.125" y="1289.25"/>
      <point x="491.25" y="1474.625" type="curve"/>
      <point x="656.0" y="1490.125"/>
      <point x="876.25" y="1507.625"/>
      <point x="962.5" y="1507.625" type="curve"/>
      <point x="968.0" y="1520.25"/>
      <point x="974.0" y="1535.25"/>
      <point x="979.25" y="1550.875" type="curve" smooth="yes"/>
      <point x="984.25" y="1568.0"/>
      <point x="988.25" y="1582.375"/>
      <point x="989.875" y="1594.5" type="curve"/>
      <point x="838.625" y="1594.25"/>
      <point x="544.0" y="1575.75"/>
      <point x="406.875" y="1550.5" type="curve"/>
      <point x="305.5" y="1302.125"/>
      <point x="189.5" y="930.25"/>
      <point x="83.875" y="537.375" type="curve" smooth="yes"/>
      <point x="-14.125" y="173.0"/>
      <point x="-102.25" y="-207.875"/>
      <point x="-160.25" y="-521.25" type="curve"/>
      <point x="-93.75" y="-524.75"/>
      <point x="-15.25" y="-526.875"/>
    </contour>
  </outline>
</glyph>
<glyph name="backslash" format="2">
  <advance width="725.0"/>
  <unicode hex="005C"/>
  <outline>
    <contour>
      <point x="554.375" y="-33.75" type="curve"/>
      <point x="440.5" y="349.75"/>
      <point x="357.75" y="1247.5"/>
      <point x="357.75" y="1466.5" type="curve"/>
      <point x="323.25" y="1465.25"/>
      <point x="271.125" y="1454.125"/>
      <point x="253.375" y="1443.125" type="curve"/>
      <point x="274.375" y="901.625"/>
      <point x="335.75" y="381.125"/>
      <point x="443.0" y="-82.375" type="curve"/>
      <point x="469.375" y="-75.75"/>
      <point x="520.125" y="-56.5"/>
    </contour>
  </outline>
</glyph>
<glyph name="bracketright" format="2">
  <advance width="619.0"/>
  <unicode hex="005D"/>
  <outline>
    <contour>
      <point x="641.875" y="502.125" type="curve" smooth="yes"/>
      <point x="774.375" y="997.5"/>
      <point x="834.875" y="1374.5"/>
      <point x="849.75" y="1583.75" type="curve"/>
      <point x="725.25" y="1601.625"/>
      <point x="608.0" y="1607.25"/>
      <point x="475.75" y="1607.25" type="curve" smooth="yes"/>
      <point x="434.125" y="1607.25"/>
      <point x="389.0" y="1607.125"/>
      <point x="345.0" y="1606.875" type="curve"/>
      <point x="336.0" y="1583.0"/>
      <point x="325.0" y="1547.5"/>
      <point x="319.25" y="1526.125" type="curve"/>
      <point x="328.125" y="1523.5"/>
      <point x="349.375" y="1521.0"/>
      <point x="378.625" y="1518.75" type="curve" smooth="yes"/>
      <point x="476.875" y="1518.5"/>
      <point x="643.375" y="1515.0"/>
      <point x="733.5" y="1501.875" type="curve"/>
      <point x="720.375" y="1321.375"/>
      <point x="630.375" y="893.625"/>
      <point x="514.75" y="462.75" type="curve" smooth="yes"/>
      <point x="429.875" y="146.875"/>
      <point x="331.25" y="-172.375"/>
      <point x="240.625" y="-397.125" type="curve"/>
      <point x="196.75" y="-408.0"/>
      <point x="-69.375" y="-428.625"/>
      <point x="-180.0" y="-428.625" type="curve"/>
      <point x="-186.0" y="-444.625"/>
      <point x="-201.0" y="-497.5"/>
      <point x="-206.0" y="-517.625" type="curve"/>
      <point x="-84.25" y="-517.625"/>
      <point x="164.5" y="-507.25"/>
      <point x="327.875" y="-477.125" type="curve"/>
      <point x="454.5" y="-137.75"/>
      <point x="560.375" y="197.75"/>
    </contour>
  </outline>
</glyph>
<glyph name="asciicircum" format="2">
  <advance width="1032.0"/>
  <unicode hex="005E"/>
  <outline>
    <contour>
      <point x="837.5" y="1325.0" type="curve"/>
      <point x="828.25" y="1327.875"/>
      <point x="805.0" y="1331.75"/>
      <point x="778.625" y="1331.75" type="curve" smooth="yes"/>
      <point x="757.625" y="1331.75"/>
      <point x="733.75" y="1330.25"/>
      <point x="715.0" y="1326.0" type="curve"/>
      <point x="570.0" y="1217.0"/>
      <point x="279.25" y="976.0"/>
      <point x="111.75" y="812.0" type="curve"/>
      <point x="127.25" y="790.75"/>
      <point x="161.5" y="767.375"/>
      <point x="185.25" y="756.25" type="curve"/>
      <point x="290.875" y="858.875"/>
      <point x="644.625" y="1160.875"/>
      <point x="796.25" y="1273.625" type="curve"/>
      <point x="751.375" y="1269.75" type="line"/>
      <point x="809.375" y="1210.875"/>
      <point x="974.25" y="856.0"/>
      <point x="991.75" y="757.625" type="curve"/>
      <point x="1027.125" y="768.75"/>
      <point x="1060.625" y="784.375"/>
      <point x="1085.75" y="805.0" type="curve"/>
      <point x="1049.0" y="972.5"/>
      <point x="903.25" y="1240.5"/>
    </contour>
  </outline>
</glyph>
<glyph name="underscore" format="2">
  <advance width="1549.0"/>
  <unicode hex="005F"/>
  <outline>
    <contour>
      <point x="321.625" y="8.125" type="curve" smooth="yes"/>
      <point x="246.5" y="8.125"/>
      <point x="5.375" y="8.125"/>
      <point x="-57.0" y="10.125" type="curve"/>
      <point x="-63.5" y="-17.375"/>
      <point x="-73.875" y="-74.25"/>
      <point x="-74.75" y="-88.375" type="curve"/>
      <point x="284.875" y="-93.0"/>
      <point x="808.0" y="-96.875"/>
      <point x="1057.25" y="-96.875" type="curve" smooth="yes"/>
      <point x="1173.125" y="-96.875"/>
      <point x="1260.5" y="-95.5"/>
      <point x="1319.625" y="-92.5" type="curve"/>
      <point x="1329.375" y="-69.625"/>
      <point x="1343.375" y="-32.625"/>
      <point x="1358.5" y="24.75" type="curve"/>
      <point x="1153.125" y="16.5"/>
      <point x="748.5" y="8.125"/>
    </contour>
  </outline>
</glyph>
<glyph name="a" format="2">
  <advance width="1295.0"/>
  <unicode hex="0061"/>
  <anchor x="475.875" y="0.0" name="bottom"/>
  <anchor x="1048.25" y="8.75" name="ogonek"/>
  <anchor x="749.75" y="1063.0" name="top"/>
  <outline>
    <contour>
      <point x="410.75" y="-22.875" type="curve" smooth="yes"/>
      <point x="605.25" y="-22.875"/>
      <point x="806.625" y="75.625"/>
      <point x="871.625" y="149.25" type="curve"/>
      <point x="871.625" y="46.875"/>
      <point x="908.625" y="-1.375"/>
      <point x="999.625" y="-1.375" type="curve" smooth="yes"/>
      <point x="1087.875" y="-1.375"/>
      <point x="1184.75" y="67.25"/>
      <point x="1226.75" y="213.375" type="curve"/>
      <point x="1146.75" y="257.625" type="line"/>
      <point x="1120.75" y="168.5"/>
      <point x="1075.375" y="117.625"/>
      <point x="1027.75" y="117.625" type="curve" smooth="yes"/>
      <point x="998.625" y="117.625"/>
      <point x="983.125" y="125.75"/>
      <point x="983.125" y="166.125" type="curve" smooth="yes"/>
      <point x="983.125" y="253.625"/>
      <point x="1021.375" y="387.875"/>
      <point x="1057.5" y="512.75" type="curve" smooth="yes"/>
      <point x="1079.375" y="590.125"/>
      <point x="1093.0" y="664.125"/>
      <point x="1093.0" y="723.375" type="curve" smooth="yes"/>
      <point x="1093.0" y="946.0"/>
      <point x="938.25" y="1057.625"/>
      <point x="704.625" y="1057.625" type="curve" smooth="yes"/>
      <point x="488.875" y="1057.625"/>
      <point x="299.875" y="960.5"/>
      <point x="180.125" y="827.875" type="curve"/>
      <point x="267.0" y="755.75" type="line"/>
      <point x="358.75" y="861.5"/>
      <point x="500.25" y="950.0"/>
      <point x="680.875" y="950.0" type="curve" smooth="yes"/>
      <point x="846.75" y="950.0"/>
      <point x="975.875" y="885.25"/>
      <point x="979.0" y="739.0" type="curve" smooth="yes"/>
      <point x="980.875" y="689.0"/>
      <point x="978.375" y="656.25"/>
      <point x="969.625" y="613.25" type="curve"/>
      <point x="940.25" y="624.875"/>
      <point x="780.625" y="666.25"/>
      <point x="629.375" y="666.25" type="curve" smooth="yes"/>
      <point x="330.625" y="666.25"/>
      <point x="38.625" y="546.375"/>
      <point x="38.625" y="261.0" type="curve" smooth="yes"/>
      <point x="38.625" y="65.625"/>
      <point x="179.375" y="-22.875"/>
    </contour>
    <contour>
      <point x="443.625" y="82.125" type="curve" smooth="yes"/>
      <point x="261.375" y="82.125"/>
      <point x="165.625" y="134.75"/>
      <point x="165.625" y="281.375" type="curve" smooth="yes"/>
      <point x="165.625" y="475.125"/>
      <point x="396.75" y="565.625"/>
      <point x="610.0" y="565.625" type="curve" smooth="yes"/>
      <point x="778.25" y="565.625"/>
      <point x="904.625" y="528.5"/>
      <point x="944.875" y="514.0" type="curve"/>
      <point x="922.5" y="440.375"/>
      <point x="901.625" y="369.25"/>
      <point x="872.75" y="260.625" type="curve"/>
      <point x="759.375" y="156.125"/>
      <point x="596.125" y="82.125"/>
    </contour>
  </outline>
</glyph>
<glyph name="b" format="2">
  <advance width="1200.0"/>
  <unicode hex="0062"/>
  <anchor x="440.448125" y="0.0" name="bottom"/>
  <anchor x="833.55875" y="1470.0" name="top"/>
  <outline>
    <contour>
      <point x="91.25" y="-19.5" type="curve"/>
      <point x="122.875" y="-21.125"/>
      <point x="199.125" y="-19.875"/>
      <point x="228.0" y="-19.0" type="curve"/>
      <point x="233.5" y="10.25"/>
      <point x="248.75" y="74.125"/>
      <point x="258.625" y="113.125" type="curve"/>
      <point x="290.5" y="75.625"/>
      <point x="384.75" y="5.25"/>
      <point x="547.125" y="5.25" type="curve" smooth="yes"/>
      <point x="892.0" y="5.25"/>
      <point x="1069.375" y="290.875"/>
      <point x="1069.375" y="562.125" type="curve" smooth="yes"/>
      <point x="1069.375" y="794.0"/>
      <point x="996.625" y="922.375"/>
      <point x="769.125" y="922.375" type="curve" smooth="yes"/>
      <point x="579.125" y="922.375"/>
      <point x="428.0" y="784.875"/>
      <point x="394.75" y="749.25" type="curve"/>
      <point x="447.75" y="998.625"/>
      <point x="509.125" y="1275.25"/>
      <point x="547.375" y="1433.125" type="curve"/>
      <point x="502.375" y="1429.125"/>
      <point x="444.5" y="1423.75"/>
      <point x="425.5" y="1420.625" type="curve"/>
      <point x="368.5" y="1208.625"/>
      <point x="122.375" y="144.5"/>
    </contour>
    <contour>
      <point x="288.75" y="238.875" type="curve"/>
      <point x="297.25" y="276.125"/>
      <point x="356.25" y="561.25"/>
      <point x="363.875" y="601.625" type="curve"/>
      <point x="438.625" y="679.0"/>
      <point x="588.625" y="813.875"/>
      <point x="737.25" y="813.875" type="curve" smooth="yes"/>
      <point x="905.25" y="813.875"/>
      <point x="942.75" y="720.75"/>
      <point x="942.75" y="541.875" type="curve" smooth="yes"/>
      <point x="942.75" y="308.75"/>
      <point x="795.625" y="119.75"/>
      <point x="556.5" y="119.75" type="curve" smooth="yes"/>
      <point x="396.125" y="119.75"/>
      <point x="310.5" y="205.25"/>
    </contour>
  </outline>
</glyph>
<glyph name="c" format="2">
  <advance width="1026.0"/>
  <unicode hex="0063"/>
  <anchor x="399.5" y="0.0" name="bottom"/>
  <anchor x="646.301875" y="1063.0" name="top"/>
  <outline>
    <contour>
      <point x="855.5" y="204.5" type="curve"/>
      <point x="777.625" y="277.875" type="line"/>
      <point x="760.25" y="248.875"/>
      <point x="638.125" y="113.0"/>
      <point x="445.125" y="113.0" type="curve" smooth="yes"/>
      <point x="268.625" y="113.0"/>
      <point x="202.5" y="226.25"/>
      <point x="202.5" y="386.125" type="curve" smooth="yes"/>
      <point x="202.5" y="691.375"/>
      <point x="383.375" y="993.375"/>
      <point x="674.125" y="993.375" type="curve" smooth="yes"/>
      <point x="885.125" y="993.375"/>
      <point x="911.125" y="844.25"/>
      <point x="914.875" y="807.25" type="curve"/>
      <point x="1016.5" y="876.875" type="line"/>
      <point x="995.625" y="983.875"/>
      <point x="878.375" y="1094.25"/>
      <point x="693.875" y="1094.25" type="curve" smooth="yes"/>
      <point x="323.25" y="1094.25"/>
      <point x="76.125" y="764.125"/>
      <point x="76.125" y="377.25" type="curve" smooth="yes"/>
      <point x="76.125" y="156.5"/>
      <point x="182.0" y="-5.0"/>
      <point x="416.25" y="-5.0" type="curve" smooth="yes"/>
      <point x="622.625" y="-5.0"/>
      <point x="791.625" y="112.0"/>
    </contour>
  </outline>
</glyph>
<glyph name="d" format="2">
  <advance width="1195.0"/>
  <unicode hex="0064"/>
  <anchor x="451.886875" y="0.0" name="bottom"/>
  <anchor x="1082.0" y="1216.375" name="center"/>
  <anchor x="845.66125" y="1470.0" name="top"/>
  <anchor x="1225.375" y="1001.125" name="topright"/>
  <outline>
    <contour>
      <point x="770.75" y="3.0" type="curve"/>
      <point x="787.625" y="1.125"/>
      <point x="853.75" y="-0.125"/>
      <point x="884.375" y="-0.125" type="curve"/>
      <point x="1008.125" y="463.5"/>
      <point x="1136.375" y="928.0"/>
      <point x="1301.0" y="1399.625" type="curve"/>
      <point x="1274.5" y="1403.625"/>
      <point x="1227.0" y="1406.75"/>
      <point x="1190.0" y="1406.75" type="curve"/>
      <point x="1158.25" y="1321.25"/>
      <point x="1034.5" y="958.5"/>
      <point x="1000.375" y="839.625" type="curve"/>
      <point x="966.375" y="876.5"/>
      <point x="854.75" y="959.0"/>
      <point x="654.0" y="959.0" type="curve" smooth="yes"/>
      <point x="310.625" y="959.0"/>
      <point x="70.375" y="729.75"/>
      <point x="70.375" y="380.75" type="curve" smooth="yes"/>
      <point x="70.375" y="145.25"/>
      <point x="202.375" y="6.625"/>
      <point x="408.125" y="6.625" type="curve" smooth="yes"/>
      <point x="680.125" y="6.625"/>
      <point x="805.0" y="169.25"/>
      <point x="821.25" y="192.625" type="curve"/>
      <point x="813.0" y="162.75"/>
      <point x="780.75" y="41.875"/>
    </contour>
    <contour>
      <point x="448.25" y="119.5" type="curve" smooth="yes"/>
      <point x="294.75" y="119.5"/>
      <point x="191.875" y="210.0"/>
      <point x="191.875" y="402.75" type="curve" smooth="yes"/>
      <point x="191.875" y="681.5"/>
      <point x="370.125" y="848.875"/>
      <point x="650.375" y="848.875" type="curve" smooth="yes"/>
      <point x="818.625" y="848.875"/>
      <point x="928.625" y="768.125"/>
      <point x="965.75" y="727.125" type="curve"/>
      <point x="947.875" y="662.75"/>
      <point x="876.875" y="422.25"/>
      <point x="856.0" y="353.25" type="curve"/>
      <point x="824.875" y="312.375"/>
      <point x="672.875" y="119.5"/>
    </contour>
  </outline>
</glyph>
<glyph name="e" format="2">
  <advance width="1095.875"/>
  <unicode hex="0065"/>
  <anchor x="421.375" y="10.0" name="bottom"/>
  <anchor x="620.25" y="48.625" name="ogonek"/>
  <anchor x="729.125" y="1063.0" name="top"/>
  <outline>
    <contour>
      <point x="958.75" y="251.75" type="curve"/>
      <point x="952.625" y="280.125"/>
      <point x="908.125" y="332.75"/>
      <point x="894.125" y="346.625" type="curve"/>
      <point x="873.0" y="325.125"/>
      <point x="716.375" y="132.0"/>
      <point x="471.625" y="132.0" type="curve" smooth="yes"/>
      <point x="303.5" y="132.0"/>
      <point x="196.5" y="247.25"/>
      <point x="196.5" y="388.375" type="curve" smooth="yes"/>
      <point x="196.5" y="427.75"/>
      <point x="200.375" y="468.5"/>
      <point x="207.125" y="496.0" type="curve"/>
      <point x="285.25" y="506.75"/>
      <point x="495.625" y="520.375"/>
      <point x="634.5" y="524.75" type="curve" smooth="yes"/>
      <point x="773.125" y="529.125"/>
      <point x="972.0" y="530.25"/>
      <point x="993.875" y="530.0" type="curve"/>
      <point x="1017.25" y="608.375"/>
      <point x="1029.625" y="675.875"/>
      <point x="1029.625" y="744.75" type="curve" smooth="yes"/>
      <point x="1029.625" y="942.375"/>
      <point x="924.125" y="1069.125"/>
      <point x="715.625" y="1069.125" type="curve" smooth="yes"/>
      <point x="359.625" y="1069.125"/>
      <point x="78.125" y="798.125"/>
      <point x="78.125" y="412.0" type="curve" smooth="yes"/>
      <point x="78.125" y="158.875"/>
      <point x="219.875" y="21.625"/>
      <point x="454.75" y="21.625" type="curve" smooth="yes"/>
      <point x="728.125" y="21.625"/>
      <point x="899.125" y="187.375"/>
    </contour>
    <contour>
      <point x="226.875" y="593.75" type="curve"/>
      <point x="271.875" y="836.375"/>
      <point x="495.25" y="964.875"/>
      <point x="699.25" y="964.875" type="curve" smooth="yes"/>
      <point x="863.625" y="964.875"/>
      <point x="916.25" y="859.5"/>
      <point x="916.5" y="750.125" type="curve" smooth="yes"/>
      <point x="916.5" y="707.75"/>
      <point x="911.25" y="660.125"/>
      <point x="902.125" y="627.375" type="curve"/>
      <point x="890.375" y="627.5"/>
      <point x="772.625" y="625.125"/>
      <point x="661.0" y="622.5" type="curve" smooth="yes"/>
      <point x="469.625" y="618.125"/>
      <point x="290.375" y="604.125"/>
    </contour>
  </outline>
</glyph>
<glyph name="f" format="2">
  <advance width="896.0"/>
  <unicode hex="0066"/>
  <anchor x="305.585" y="0.0" name="bottom"/>
  <anchor x="699.47" y="1470.0" name="top"/>
  <outline>
    <contour>
      <point x="198.625" y="-0.125" type="curve"/>
      <point x="229.5" y="0.75"/>
      <point x="299.25" y="9.0"/>
      <point x="339.125" y="17.125" type="curve"/>
      <point x="339.625" y="107.5"/>
      <point x="366.125" y="463.0"/>
      <point x="379.375" y="569.5" type="curve"/>
      <point x="501.125" y="584.875"/>
      <point x="680.25" y="597.5"/>
      <point x="699.25" y="597.5" type="curve"/>
      <point x="708.625" y="631.125"/>
      <point x="717.875" y="676.625"/>
      <point x="720.375" y="704.125" type="curve"/>
      <point x="651.875" y="704.875"/>
      <point x="463.5" y="687.375"/>
      <point x="393.0" y="678.625" type="curve"/>
      <point x="402.625" y="740.375"/>
      <point x="420.375" y="841.125"/>
      <point x="437.625" y="906.5" type="curve" smooth="yes"/>
      <point x="485.125" y="1085.75"/>
      <point x="575.375" y="1252.875"/>
      <point x="748.0" y="1252.875" type="curve" smooth="yes"/>
      <point x="912.625" y="1252.875"/>
      <point x="939.625" y="1064.0"/>
      <point x="946.0" y="1027.5" type="curve"/>
      <point x="969.0" y="1043.75"/>
      <point x="1029.75" y="1094.875"/>
      <point x="1052.75" y="1119.375" type="curve"/>
      <point x="1044.75" y="1179.25"/>
      <point x="972.375" y="1366.625"/>
      <point x="760.625" y="1366.625" type="curve" smooth="yes"/>
      <point x="532.375" y="1366.625"/>
      <point x="381.625" y="1165.375"/>
      <point x="316.75" y="919.875" type="curve" smooth="yes"/>
      <point x="295.875" y="840.375"/>
      <point x="278.125" y="745.0"/>
      <point x="266.0" y="659.25" type="curve"/>
      <point x="237.25" y="654.25"/>
      <point x="85.5" y="618.875"/>
      <point x="57.625" y="609.0" type="curve"/>
      <point x="54.0" y="583.625"/>
      <point x="51.125" y="525.125"/>
      <point x="50.25" y="503.125" type="curve"/>
      <point x="95.25" y="518.125"/>
      <point x="188.5" y="540.875"/>
      <point x="248.5" y="551.75" type="curve"/>
      <point x="224.625" y="361.125"/>
      <point x="199.75" y="18.75"/>
    </contour>
  </outline>
</glyph>
<glyph name="g" format="2">
  <advance width="1231.0"/>
  <unicode hex="0067"/>
  <anchor x="331.572" y="-530.0" name="bottom"/>
  <anchor x="758.415" y="1063.0" name="top"/>
  <outline>
    <contour>
      <point x="557.75" y="213.625" type="curve" smooth="yes"/>
      <point x="870.75" y="213.625"/>
      <point x="1105.125" y="425.5"/>
      <point x="1105.125" y="742.25" type="curve" smooth="yes"/>
      <point x="1105.125" y="802.5"/>
      <point x="1092.375" y="855.375"/>
      <point x="1067.75" y="900.125" type="curve"/>
      <point x="1129.875" y="954.875"/>
      <point x="1230.5" y="1034.125"/>
      <point x="1258.75" y="1053.125" type="curve"/>
      <point x="1244.375" y="1070.375"/>
      <point x="1206.25" y="1118.5"/>
      <point x="1195.0" y="1139.625" type="curve"/>
      <point x="1143.625" y="1102.625"/>
      <point x="1066.25" y="1036.0"/>
      <point x="1008.125" y="971.25" type="curve"/>
      <point x="947.5" y="1025.375"/>
      <point x="858.125" y="1056.0"/>
      <point x="741.75" y="1056.0" type="curve" smooth="yes"/>
      <point x="436.125" y="1056.0"/>
      <point x="184.125" y="838.875"/>
      <point x="184.125" y="540.375" type="curve" smooth="yes"/>
      <point x="184.125" y="474.375"/>
      <point x="199.125" y="408.625"/>
      <point x="235.625" y="352.875" type="curve"/>
      <point x="147.125" y="327.375"/>
      <point x="72.5" y="260.75"/>
      <point x="72.5" y="172.625" type="curve" smooth="yes"/>
      <point x="72.5" y="131.5"/>
      <point x="92.875" y="87.625"/>
      <point x="134.625" y="56.625" type="curve"/>
      <point x="-9.625" y="8.125"/>
      <point x="-125.875" y="-96.75"/>
      <point x="-125.875" y="-245.875" type="curve" smooth="yes"/>
      <point x="-125.875" y="-421.25"/>
      <point x="60.5" y="-499.0"/>
      <point x="321.0" y="-499.0" type="curve" smooth="yes"/>
      <point x="638.125" y="-499.0"/>
      <point x="900.625" y="-400.125"/>
      <point x="900.625" y="-117.75" type="curve" smooth="yes"/>
      <point x="900.625" y="19.75"/>
      <point x="781.0" y="88.875"/>
      <point x="595.375" y="88.875" type="curve" smooth="yes"/>
      <point x="497.125" y="88.875"/>
      <point x="409.25" y="88.375"/>
      <point x="318.625" y="87.625" type="curve" smooth="yes"/>
      <point x="234.25" y="87.625"/>
      <point x="189.75" y="135.0"/>
      <point x="189.75" y="184.625" type="curve" smooth="yes"/>
      <point x="189.75" y="231.375"/>
      <point x="230.75" y="269.75"/>
      <point x="297.75" y="293.625" type="curve"/>
      <point x="354.625" y="245.375"/>
      <point x="438.625" y="213.625"/>
    </contour>
    <contour>
      <point x="342.625" y="-408.375" type="curve" smooth="yes"/>
      <point x="155.5" y="-408.375"/>
      <point x="4.375" y="-357.75"/>
      <point x="4.375" y="-225.375" type="curve" smooth="yes"/>
      <point x="4.375" y="-87.25"/>
      <point x="158.375" y="-7.875"/>
      <point x="292.625" y="-7.875" type="curve" smooth="yes"/>
      <point x="567.625" y="-7.875" type="line" smooth="yes"/>
      <point x="665.125" y="-7.875"/>
      <point x="772.5" y="-33.75"/>
      <point x="772.5" y="-147.125" type="curve" smooth="yes"/>
      <point x="772.5" y="-343.0"/>
      <point x="559.875" y="-408.375"/>
    </contour>
    <contour>
      <point x="557.25" y="317.5" type="curve" smooth="yes"/>
      <point x="397.375" y="317.5"/>
      <point x="312.375" y="418.875"/>
      <point x="312.375" y="554.625" type="curve" smooth="yes"/>
      <point x="312.375" y="795.5"/>
      <point x="499.75" y="949.0"/>
      <point x="743.25" y="949.0" type="curve" smooth="yes"/>
      <point x="905.125" y="949.0"/>
      <point x="987.75" y="851.625"/>
      <point x="987.75" y="717.0" type="curve" smooth="yes"/>
      <point x="987.75" y="479.0"/>
      <point x="807.5" y="317.5"/>
    </contour>
  </outline>
</glyph>
<glyph name="h" format="2">
  <advance width="1123.0"/>
  <unicode hex="0068"/>
  <anchor x="384.948125" y="0.0" name="bottom"/>
  <anchor x="513.375" y="1255.5" name="center"/>
  <anchor x="449.5" y="1399.75" name="top"/>
  <outline>
    <contour>
      <point x="135.5" y="-26.0" type="curve"/>
      <point x="174.5" y="64.625"/>
      <point x="261.625" y="342.25"/>
      <point x="323.625" y="573.375" type="curve"/>
      <point x="366.125" y="643.25"/>
      <point x="535.625" y="796.125"/>
      <point x="715.875" y="796.125" type="curve" smooth="yes"/>
      <point x="818.375" y="796.125"/>
      <point x="865.625" y="743.125"/>
      <point x="865.625" y="649.75" type="curve" smooth="yes"/>
      <point x="865.625" y="497.0"/>
      <point x="742.375" y="180.875"/>
      <point x="659.125" y="-8.5" type="curve"/>
      <point x="674.375" y="-11.625"/>
      <point x="699.0" y="-14.125"/>
      <point x="723.875" y="-14.125" type="curve" smooth="yes"/>
      <point x="748.0" y="-14.125"/>
      <point x="772.375" y="-13.5"/>
      <point x="792.125" y="-11.375" type="curve"/>
      <point x="882.125" y="212.625"/>
      <point x="993.125" y="513.0"/>
      <point x="993.125" y="674.0" type="curve" smooth="yes"/>
      <point x="993.125" y="826.5"/>
      <point x="924.625" y="909.5"/>
      <point x="767.625" y="909.5" type="curve" smooth="yes"/>
      <point x="609.625" y="909.5"/>
      <point x="441.625" y="819.25"/>
      <point x="363.5" y="726.75" type="curve"/>
      <point x="435.25" y="998.5"/>
      <point x="502.5" y="1292.0"/>
      <point x="512.375" y="1443.0" type="curve"/>
      <point x="489.375" y="1441.25"/>
      <point x="419.375" y="1427.75"/>
      <point x="398.25" y="1420.75" type="curve"/>
      <point x="358.375" y="1226.5"/>
      <point x="298.625" y="966.0"/>
      <point x="231.5" y="714.25" type="curve" smooth="yes"/>
      <point x="152.25" y="415.375"/>
      <point x="62.375" y="131.125"/>
      <point x="3.75" y="-22.375" type="curve"/>
      <point x="14.625" y="-25.0"/>
      <point x="41.0" y="-27.375"/>
      <point x="67.625" y="-27.375" type="curve" smooth="yes"/>
      <point x="92.5" y="-27.375"/>
      <point x="118.375" y="-26.875"/>
    </contour>
  </outline>
</glyph>
<glyph name="i" format="2">
  <advance width="610.0"/>
  <unicode hex="0069"/>
  <anchor x="155.5" y="0.0" name="bottom"/>
  <outline>
    <contour>
      <point x="201.125" y="-2.25" type="curve"/>
      <point x="236.625" y="91.75"/>
      <point x="356.625" y="506.0"/>
      <point x="423.25" y="757.375" type="curve" smooth="yes"/>
      <point x="444.125" y="836.25"/>
      <point x="461.125" y="905.5"/>
      <point x="467.625" y="936.0" type="curve"/>
      <point x="444.125" y="936.0"/>
      <point x="377.625" y="932.125"/>
      <point x="353.5" y="929.375" type="curve"/>
      <point x="294.25" y="725.75"/>
      <point x="104.875" y="85.875"/>
      <point x="66.875" y="-1.125" type="curve"/>
      <point x="83.375" y="-3.875"/>
      <point x="105.5" y="-6.0"/>
      <point x="133.25" y="-6.0" type="curve" smooth="yes"/>
      <point x="155.75" y="-6.0"/>
      <point x="181.375" y="-4.25"/>
    </contour>
    <contour>
      <point x="474.5" y="1108.625" type="curve" smooth="yes"/>
      <point x="548.125" y="1108.625"/>
      <point x="601.0" y="1177.75"/>
      <point x="601.0" y="1254.375" type="curve" smooth="yes"/>
      <point x="601.0" y="1299.0"/>
      <point x="574.25" y="1334.375"/>
      <point x="526.5" y="1334.375" type="curve" smooth="yes"/>
      <point x="447.5" y="1334.375"/>
      <point x="390.25" y="1264.625"/>
      <point x="390.25" y="1186.125" type="curve" smooth="yes"/>
      <point x="390.25" y="1142.625"/>
      <point x="419.375" y="1108.625"/>
    </contour>
  </outline>
</glyph>
<glyph name="j" format="2">
  <advance width="623.375"/>
  <unicode hex="006A"/>
  <outline>
    <contour>
      <point x="348.25" y="164.125" type="curve" smooth="yes"/>
      <point x="415.375" y="418.0"/>
      <point x="469.375" y="738.375"/>
      <point x="485.125" y="982.875" type="curve"/>
      <point x="360.375" y="973.5" type="line"/>
      <point x="332.375" y="706.375"/>
      <point x="284.375" y="415.125"/>
      <point x="221.625" y="178.75" type="curve" smooth="yes"/>
      <point x="157.125" y="-63.125"/>
      <point x="56.75" y="-352.0"/>
      <point x="-122.125" y="-352.0" type="curve" smooth="yes"/>
      <point x="-262.75" y="-352.0"/>
      <point x="-319.75" y="-207.25"/>
      <point x="-331.125" y="-96.0" type="curve"/>
      <point x="-367.75" y="-111.75"/>
      <point x="-426.75" y="-144.375"/>
      <point x="-461.5" y="-169.125" type="curve"/>
      <point x="-433.5" y="-344.625"/>
      <point x="-315.625" y="-461.625"/>
      <point x="-133.625" y="-461.625" type="curve" smooth="yes"/>
      <point x="145.125" y="-461.625"/>
      <point x="257.0" y="-183.875"/>
    </contour>
    <contour>
      <point x="485.375" y="1352.125" type="curve" smooth="yes"/>
      <point x="414.25" y="1352.125"/>
      <point x="359.125" y="1298.375"/>
      <point x="359.125" y="1230.75" type="curve" smooth="yes"/>
      <point x="359.125" y="1187.125"/>
      <point x="396.375" y="1156.25"/>
      <point x="444.25" y="1156.25" type="curve" smooth="yes"/>
      <point x="514.125" y="1156.25"/>
      <point x="570.75" y="1212.375"/>
      <point x="570.75" y="1272.0" type="curve" smooth="yes"/>
      <point x="570.75" y="1312.625"/>
      <point x="539.5" y="1352.125"/>
    </contour>
  </outline>
</glyph>
<glyph name="k" format="2">
  <advance width="1156.0"/>
  <unicode hex="006B"/>
  <anchor x="453.448125" y="0.0" name="bottom"/>
  <anchor x="846.55875" y="1470.0" name="top"/>
  <outline>
    <contour>
      <point x="826.25" y="-36.875" type="curve"/>
      <point x="852.0" y="-28.625"/>
      <point x="926.375" y="0.5"/>
      <point x="941.5" y="8.75" type="curve"/>
      <point x="863.375" y="229.125"/>
      <point x="673.5" y="577.25"/>
      <point x="625.0" y="632.0" type="curve"/>
      <point x="743.0" y="708.625"/>
      <point x="1067.25" y="867.375"/>
      <point x="1161.25" y="908.5" type="curve"/>
      <point x="1153.0" y="926.625"/>
      <point x="1117.75" y="980.125"/>
      <point x="1098.5" y="999.875" type="curve"/>
      <point x="957.875" y="935.875"/>
      <point x="515.125" y="719.375"/>
      <point x="355.625" y="579.25" type="curve"/>
      <point x="409.125" y="756.75"/>
      <point x="531.375" y="1174.875"/>
      <point x="608.25" y="1443.75" type="curve"/>
      <point x="595.5" y="1447.125"/>
      <point x="573.25" y="1449.0"/>
      <point x="549.375" y="1449.0" type="curve" smooth="yes"/>
      <point x="527.875" y="1449.0"/>
      <point x="506.0" y="1448.5"/>
      <point x="491.875" y="1447.875" type="curve"/>
      <point x="405.375" y="1183.125"/>
      <point x="87.625" y="121.75"/>
      <point x="42.375" y="-29.5" type="curve"/>
      <point x="61.625" y="-32.875"/>
      <point x="84.5" y="-35.375"/>
      <point x="107.0" y="-35.375" type="curve" smooth="yes"/>
      <point x="129.125" y="-35.375"/>
      <point x="150.25" y="-33.25"/>
      <point x="166.25" y="-30.625" type="curve"/>
      <point x="185.375" y="25.5"/>
      <point x="275.125" y="305.125"/>
      <point x="309.0" y="421.0" type="curve"/>
      <point x="333.25" y="442.875"/>
      <point x="481.5" y="538.625"/>
      <point x="530.125" y="569.125" type="curve"/>
      <point x="597.75" y="475.375"/>
      <point x="777.625" y="104.875"/>
    </contour>
  </outline>
</glyph>
<glyph name="l" format="2">
  <advance width="645.0"/>
  <unicode hex="006C"/>
  <anchor x="165.585" y="0.0" name="bottom"/>
  <anchor x="362.528" y="735.0" name="center"/>
  <anchor x="559.47" y="1470.0" name="top"/>
  <anchor x="499.125" y="1028.375" name="topright"/>
  <outline>
    <contour>
      <point x="470.625" y="76.125" type="curve"/>
      <point x="466.625" y="88.625"/>
      <point x="437.0" y="151.375"/>
      <point x="425.5" y="165.0" type="curve"/>
      <point x="390.0" y="117.0"/>
      <point x="346.875" y="82.5"/>
      <point x="288.375" y="82.5" type="curve" smooth="yes"/>
      <point x="226.625" y="82.5"/>
      <point x="206.0" y="128.125"/>
      <point x="206.0" y="194.875" type="curve" smooth="yes"/>
      <point x="206.0" y="387.375"/>
      <point x="459.875" y="1156.625"/>
      <point x="550.625" y="1426.0" type="curve"/>
      <point x="530.625" y="1429.375"/>
      <point x="508.5" y="1431.5"/>
      <point x="484.125" y="1431.5" type="curve" smooth="yes"/>
      <point x="468.75" y="1431.5"/>
      <point x="447.375" y="1430.375"/>
      <point x="430.25" y="1429.0" type="curve"/>
      <point x="335.5" y="1142.0"/>
      <point x="85.0" y="381.125"/>
      <point x="85.0" y="151.5" type="curve" smooth="yes"/>
      <point x="85.0" y="37.5"/>
      <point x="134.0" y="-33.375"/>
      <point x="263.0" y="-33.375" type="curve" smooth="yes"/>
      <point x="363.0" y="-33.375"/>
      <point x="431.625" y="28.75"/>
    </contour>
  </outline>
</glyph>
<glyph name="m" format="2">
  <advance width="1858.0"/>
  <unicode hex="006D"/>
  <anchor x="786.585" y="0.0" name="bottom"/>
  <anchor x="1071.415" y="1063.0" name="top"/>
  <outline>
    <contour>
      <point x="70.75" y="-9.625" type="curve"/>
      <point x="88.625" y="-13.75"/>
      <point x="116.625" y="-16.125"/>
      <point x="145.75" y="-16.125" type="curve" smooth="yes"/>
      <point x="161.5" y="-16.125"/>
      <point x="187.875" y="-14.125"/>
      <point x="197.875" y="-13.125" type="curve"/>
      <point x="202.75" y="36.125"/>
      <point x="236.0" y="260.0"/>
      <point x="309.875" y="579.875" type="curve"/>
      <point x="332.5" y="676.75"/>
      <point x="554.5" y="916.5"/>
      <point x="734.625" y="916.5" type="curve" smooth="yes"/>
      <point x="852.625" y="916.5"/>
      <point x="894.0" y="857.625"/>
      <point x="894.0" y="725.75" type="curve" smooth="yes"/>
      <point x="894.0" y="556.5"/>
      <point x="820.25" y="249.75"/>
      <point x="743.0" y="-7.0" type="curve"/>
      <point x="757.875" y="-11.0"/>
      <point x="787.125" y="-13.0"/>
      <point x="810.125" y="-13.0" type="curve" smooth="yes"/>
      <point x="829.75" y="-13.0"/>
      <point x="853.625" y="-11.0"/>
      <point x="870.75" y="-9.0" type="curve"/>
      <point x="887.125" y="59.125"/>
      <point x="906.0" y="132.75"/>
      <point x="924.0" y="200.25" type="curve" smooth="yes"/>
      <point x="1018.0" y="556.375"/>
      <point x="1162.375" y="930.875"/>
      <point x="1453.0" y="930.875" type="curve" smooth="yes"/>
      <point x="1556.75" y="930.875"/>
      <point x="1603.875" y="867.625"/>
      <point x="1603.875" y="743.5" type="curve" smooth="yes"/>
      <point x="1603.875" y="555.5"/>
      <point x="1491.0" y="242.125"/>
      <point x="1386.125" y="-21.625" type="curve"/>
      <point x="1408.125" y="-24.125"/>
      <point x="1432.125" y="-25.25"/>
      <point x="1451.0" y="-25.25" type="curve" smooth="yes"/>
      <point x="1472.75" y="-25.25"/>
      <point x="1494.25" y="-23.25"/>
      <point x="1515.0" y="-19.375" type="curve"/>
      <point x="1608.125" y="222.0"/>
      <point x="1726.625" y="577.375"/>
      <point x="1726.625" y="784.5" type="curve" smooth="yes"/>
      <point x="1726.625" y="942.125"/>
      <point x="1655.875" y="1046.625"/>
      <point x="1486.625" y="1046.625" type="curve" smooth="yes"/>
      <point x="1225.0" y="1046.625"/>
      <point x="1063.5" y="832.25"/>
      <point x="977.125" y="609.875" type="curve"/>
      <point x="992.0" y="667.875"/>
      <point x="1002.5" y="731.375"/>
      <point x="1001.875" y="791.125" type="curve" smooth="yes"/>
      <point x="999.625" y="919.5"/>
      <point x="939.0" y="1031.125"/>
      <point x="782.375" y="1031.125" type="curve" smooth="yes"/>
      <point x="537.0" y="1031.125"/>
      <point x="397.0" y="849.625"/>
      <point x="357.875" y="787.875" type="curve"/>
      <point x="364.875" y="819.375"/>
      <point x="402.0" y="987.125"/>
      <point x="413.125" y="1027.0" type="curve"/>
      <point x="386.25" y="1026.125"/>
      <point x="316.875" y="1015.25"/>
      <point x="289.75" y="1005.75" type="curve"/>
      <point x="211.5" y="713.5"/>
      <point x="111.5" y="247.875"/>
    </contour>
  </outline>
</glyph>
<glyph name="n" format="2">
  <advance width="1330.0"/>
  <unicode hex="006E"/>
  <anchor x="522.585" y="0.0" name="bottom"/>
  <anchor x="807.415" y="1063.0" name="top"/>
  <outline>
    <contour>
      <point x="185.5" y="-12.25" type="curve"/>
      <point x="228.75" y="93.75"/>
      <point x="331.75" y="384.375"/>
      <point x="436.375" y="735.375" type="curve"/>
      <point x="528.625" y="806.0"/>
      <point x="728.75" y="937.25"/>
      <point x="947.625" y="937.25" type="curve" smooth="yes"/>
      <point x="1070.625" y="937.25"/>
      <point x="1119.75" y="878.125"/>
      <point x="1119.75" y="775.5" type="curve" smooth="yes"/>
      <point x="1119.75" y="608.25"/>
      <point x="988.25" y="257.125"/>
      <point x="882.0" y="-3.0" type="curve"/>
      <point x="900.0" y="-6.875"/>
      <point x="922.0" y="-8.875"/>
      <point x="948.375" y="-8.875" type="curve" smooth="yes"/>
      <point x="976.5" y="-8.875"/>
      <point x="1002.875" y="-6.0"/>
      <point x="1016.875" y="-3.0" type="curve"/>
      <point x="1122.375" y="282.625"/>
      <point x="1252.375" y="647.25"/>
      <point x="1252.375" y="829.25" type="curve" smooth="yes"/>
      <point x="1252.375" y="977.125"/>
      <point x="1179.375" y="1060.0"/>
      <point x="975.5" y="1060.0" type="curve" smooth="yes"/>
      <point x="802.125" y="1060.0"/>
      <point x="575.25" y="954.375"/>
      <point x="471.25" y="870.125" type="curve"/>
      <point x="484.5" y="909.625"/>
      <point x="511.875" y="1018.75"/>
      <point x="515.0" y="1041.875" type="curve"/>
      <point x="502.75" y="1044.5"/>
      <point x="482.25" y="1044.875"/>
      <point x="464.875" y="1044.875" type="curve" smooth="yes"/>
      <point x="433.125" y="1044.875"/>
      <point x="403.875" y="1041.625"/>
      <point x="382.625" y="1038.0" type="curve"/>
      <point x="227.25" y="459.0"/>
      <point x="141.25" y="214.625"/>
      <point x="54.75" y="-9.125" type="curve"/>
      <point x="74.75" y="-11.25"/>
      <point x="103.375" y="-13.5"/>
      <point x="127.375" y="-13.75" type="curve" smooth="yes"/>
      <point x="147.375" y="-14.0"/>
      <point x="168.625" y="-13.125"/>
    </contour>
  </outline>
</glyph>
<glyph name="o" format="2">
  <advance width="1171.75"/>
  <unicode hex="006F"/>
  <anchor x="433.125" y="0.0" name="bottom"/>
  <anchor x="575.125" y="532.0" name="center"/>
  <anchor x="670.75" y="0.0" name="ogonek"/>
  <anchor x="717.125" y="1063.0" name="top"/>
  <anchor x="994.0" y="941.0" name="topright"/>
  <outline>
    <contour>
      <point x="473.0" y="-36.25" type="curve" smooth="yes"/>
      <point x="860.5" y="-36.25"/>
      <point x="1085.75" y="297.25"/>
      <point x="1085.75" y="685.625" type="curve" smooth="yes"/>
      <point x="1085.75" y="928.5"/>
      <point x="972.125" y="1074.625"/>
      <point x="723.25" y="1074.625" type="curve" smooth="yes"/>
      <point x="326.125" y="1074.625"/>
      <point x="77.375" y="739.0"/>
      <point x="77.375" y="344.375" type="curve" smooth="yes"/>
      <point x="77.375" y="119.875"/>
      <point x="205.25" y="-36.25"/>
    </contour>
    <contour>
      <point x="484.125" y="70.75" type="curve" smooth="yes"/>
      <point x="296.625" y="70.75"/>
      <point x="202.75" y="193.125"/>
      <point x="202.75" y="364.0" type="curve" smooth="yes"/>
      <point x="202.75" y="664.625"/>
      <point x="395.125" y="973.375"/>
      <point x="702.0" y="973.375" type="curve" smooth="yes"/>
      <point x="887.25" y="973.375"/>
      <point x="970.125" y="855.625"/>
      <point x="970.125" y="673.5" type="curve" smooth="yes"/>
      <point x="970.125" y="369.875"/>
      <point x="782.125" y="70.75"/>
    </contour>
  </outline>
</glyph>
<glyph name="p" format="2">
  <advance width="1202.75"/>
  <unicode hex="0070"/>
  <anchor x="457.585" y="0.0" name="bottom"/>
  <anchor x="742.415" y="1063.0" name="top"/>
  <outline>
    <contour>
      <point x="-154.25" y="-432.25" type="curve"/>
      <point x="-129.625" y="-432.25"/>
      <point x="-63.875" y="-429.625"/>
      <point x="-17.625" y="-420.25" type="curve"/>
      <point x="36.5" y="-294.625"/>
      <point x="196.625" y="162.375"/>
      <point x="218.75" y="231.0" type="curve"/>
      <point x="252.75" y="182.5"/>
      <point x="398.625" y="97.625"/>
      <point x="561.625" y="97.625" type="curve" smooth="yes"/>
      <point x="914.125" y="97.625"/>
      <point x="1135.75" y="393.875"/>
      <point x="1135.75" y="755.0" type="curve" smooth="yes"/>
      <point x="1135.75" y="962.625"/>
      <point x="1036.875" y="1082.875"/>
      <point x="825.5" y="1082.875" type="curve" smooth="yes"/>
      <point x="648.125" y="1082.875"/>
      <point x="490.25" y="988.875"/>
      <point x="427.875" y="932.125" type="curve"/>
      <point x="442.625" y="980.125"/>
      <point x="465.0" y="1058.25"/>
      <point x="470.375" y="1085.5" type="curve"/>
      <point x="430.25" y="1085.5"/>
      <point x="375.5" y="1080.375"/>
      <point x="340.5" y="1071.875" type="curve"/>
      <point x="248.25" y="728.625"/>
      <point x="35.125" y="42.75"/>
    </contour>
    <contour>
      <point x="569.625" y="219.375" type="curve" smooth="yes"/>
      <point x="392.875" y="219.375"/>
      <point x="288.0" y="310.875"/>
      <point x="253.75" y="347.5" type="curve"/>
      <point x="270.625" y="399.75"/>
      <point x="375.125" y="753.25"/>
      <point x="389.25" y="802.5" type="curve"/>
      <point x="435.5" y="847.5"/>
      <point x="608.375" y="974.875"/>
      <point x="790.375" y="974.875" type="curve" smooth="yes"/>
      <point x="945.125" y="974.875"/>
      <point x="1008.375" y="894.0"/>
      <point x="1008.375" y="737.25" type="curve" smooth="yes"/>
      <point x="1008.375" y="456.75"/>
      <point x="862.875" y="219.375"/>
    </contour>
  </outline>
</glyph>
<glyph name="q" format="2">
  <advance width="1207.0"/>
  <unicode hex="0071"/>
  <anchor x="461.585" y="0.0" name="bottom"/>
  <anchor x="746.415" y="1063.0" name="top"/>
  <outline>
    <contour>
      <point x="773.375" y="-454.125" type="curve"/>
      <point x="789.625" y="-343.75"/>
      <point x="826.25" y="-123.25"/>
      <point x="887.375" y="103.625" type="curve" smooth="yes"/>
      <point x="967.0" y="399.75"/>
      <point x="1097.75" y="774.125"/>
      <point x="1216.75" y="1068.375" type="curve"/>
      <point x="1193.125" y="1076.75"/>
      <point x="1140.75" y="1089.0"/>
      <point x="1110.625" y="1090.75" type="curve"/>
      <point x="1100.625" y="1073.125"/>
      <point x="1070.875" y="998.375"/>
      <point x="1061.5" y="971.75" type="curve"/>
      <point x="1016.875" y="1018.875"/>
      <point x="903.625" y="1085.75"/>
      <point x="741.375" y="1085.75" type="curve" smooth="yes"/>
      <point x="359.375" y="1085.75"/>
      <point x="138.0" y="782.875"/>
      <point x="138.0" y="386.0" type="curve" smooth="yes"/>
      <point x="138.0" y="182.5"/>
      <point x="227.5" y="42.5"/>
      <point x="445.875" y="42.5" type="curve" smooth="yes"/>
      <point x="617.875" y="42.5"/>
      <point x="743.0" y="125.125"/>
      <point x="788.875" y="174.375" type="curve"/>
      <point x="732.625" y="-34.875"/>
      <point x="671.25" y="-295.375"/>
      <point x="648.625" y="-445.875" type="curve"/>
      <point x="685.75" y="-450.375"/>
      <point x="738.75" y="-454.125"/>
    </contour>
    <contour>
      <point x="468.125" y="159.0" type="curve" smooth="yes"/>
      <point x="316.375" y="159.0"/>
      <point x="263.125" y="265.0"/>
      <point x="263.125" y="408.75" type="curve" smooth="yes"/>
      <point x="263.125" y="715.625"/>
      <point x="438.5" y="974.0"/>
      <point x="724.875" y="974.0" type="curve" smooth="yes"/>
      <point x="887.125" y="974.0"/>
      <point x="1000.75" y="886.75"/>
      <point x="1019.625" y="868.125" type="curve"/>
      <point x="980.125" y="769.625"/>
      <point x="854.75" y="406.25"/>
      <point x="825.125" y="312.875" type="curve"/>
      <point x="777.5" y="264.25"/>
      <point x="626.375" y="159.0"/>
    </contour>
  </outline>
</glyph>
<glyph name="r" format="2">
  <advance width="853.0"/>
  <unicode hex="0072"/>
  <anchor x="285.886875" y="0.0" name="bottom"/>
  <anchor x="570.613125" y="1063.0" name="top"/>
  <outline>
    <contour>
      <point x="318.0" y="880.125" type="curve"/>
      <point x="320.0" y="920.875"/>
      <point x="320.25" y="1006.25"/>
      <point x="320.25" y="1056.5" type="curve"/>
      <point x="300.75" y="1055.375"/>
      <point x="234.375" y="1040.375"/>
      <point x="206.5" y="1030.875" type="curve"/>
      <point x="205.625" y="679.75"/>
      <point x="137.875" y="332.75"/>
      <point x="49.75" y="0.75" type="curve"/>
      <point x="88.5" y="-1.875"/>
      <point x="154.0" y="-2.25"/>
      <point x="186.875" y="-0.25" type="curve"/>
      <point x="221.125" y="129.25"/>
      <point x="297.0" y="540.75"/>
      <point x="310.25" y="748.625" type="curve"/>
      <point x="407.875" y="858.0"/>
      <point x="580.25" y="948.25"/>
      <point x="715.875" y="948.25" type="curve" smooth="yes"/>
      <point x="797.5" y="948.25"/>
      <point x="842.0" y="928.5"/>
      <point x="871.375" y="914.0" type="curve"/>
      <point x="930.125" y="1037.0" type="line"/>
      <point x="896.25" y="1055.0"/>
      <point x="814.5" y="1068.375"/>
      <point x="742.25" y="1068.375" type="curve" smooth="yes"/>
      <point x="595.125" y="1068.375"/>
      <point x="417.125" y="986.75"/>
    </contour>
  </outline>
</glyph>
<glyph name="s" format="2">
  <advance width="994.125"/>
  <unicode hex="0073"/>
  <anchor x="339.625" y="-61.25" name="bottom"/>
  <anchor x="655.0" y="1101.25" name="top"/>
  <outline>
    <contour>
      <point x="363.75" y="-83.125" type="curve" smooth="yes"/>
      <point x="628.125" y="-83.125"/>
      <point x="863.375" y="44.0"/>
      <point x="863.375" y="299.875" type="curve" smooth="yes"/>
      <point x="863.375" y="449.625"/>
      <point x="767.875" y="547.875"/>
      <point x="556.25" y="622.25" type="curve" smooth="yes"/>
      <point x="424.375" y="669.0"/>
      <point x="340.75" y="728.875"/>
      <point x="340.75" y="817.125" type="curve" smooth="yes"/>
      <point x="340.75" y="954.5"/>
      <point x="524.375" y="1005.875"/>
      <point x="658.875" y="1005.875" type="curve" smooth="yes"/>
      <point x="777.625" y="1005.875"/>
      <point x="867.125" y="961.25"/>
      <point x="926.625" y="922.625" type="curve"/>
      <point x="951.0" y="947.375"/>
      <point x="985.5" y="994.125"/>
      <point x="1003.5" y="1024.875" type="curve"/>
      <point x="956.625" y="1063.5"/>
      <point x="843.5" y="1115.625"/>
      <point x="674.25" y="1115.625" type="curve" smooth="yes"/>
      <point x="467.375" y="1115.625"/>
      <point x="217.25" y="1020.75"/>
      <point x="217.25" y="807.875" type="curve" smooth="yes"/>
      <point x="217.25" y="650.625"/>
      <point x="326.25" y="587.375"/>
      <point x="508.625" y="518.625" type="curve" smooth="yes"/>
      <point x="656.125" y="463.5"/>
      <point x="738.0" y="401.5"/>
      <point x="738.0" y="287.125" type="curve" smooth="yes"/>
      <point x="738.0" y="114.875"/>
      <point x="558.375" y="26.875"/>
      <point x="379.375" y="26.875" type="curve" smooth="yes"/>
      <point x="218.75" y="26.875"/>
      <point x="88.375" y="127.875"/>
      <point x="37.125" y="234.375" type="curve"/>
      <point x="12.875" y="213.75"/>
      <point x="-43.25" y="154.875"/>
      <point x="-69.625" y="126.875" type="curve"/>
      <point x="5.625" y="2.5"/>
      <point x="193.625" y="-83.125"/>
    </contour>
  </outline>
</glyph>
<glyph name="t" format="2">
  <advance width="964.0"/>
  <unicode hex="0074"/>
  <anchor x="489.625" y="-35.5" name="bottom"/>
  <anchor x="444.5" y="532.0" name="center"/>
  <anchor x="624.875" y="1434.125" name="top"/>
  <anchor x="707.25" y="1209.75" name="topright"/>
  <outline>
    <contour>
      <point x="738.5" y="218.875" type="curve"/>
      <point x="727.625" y="225.0"/>
      <point x="669.875" y="268.75"/>
      <point x="658.125" y="276.0" type="curve"/>
      <point x="632.25" y="207.5"/>
      <point x="565.75" y="72.0"/>
      <point x="464.375" y="72.0" type="curve" smooth="yes"/>
      <point x="401.625" y="72.0"/>
      <point x="379.75" y="120.625"/>
      <point x="379.75" y="197.875" type="curve" smooth="yes"/>
      <point x="379.75" y="345.5"/>
      <point x="527.625" y="838.0"/>
      <point x="564.125" y="951.875" type="curve"/>
      <point x="620.0" y="955.75"/>
      <point x="695.375" y="959.0"/>
      <point x="753.375" y="959.5" type="curve" smooth="yes"/>
      <point x="834.375" y="960.25"/>
      <point x="930.375" y="955.625"/>
      <point x="943.375" y="954.75" type="curve"/>
      <point x="949.25" y="975.375"/>
      <point x="961.125" y="1028.375"/>
      <point x="962.5" y="1047.375" type="curve"/>
      <point x="947.5" y="1048.25"/>
      <point x="835.375" y="1052.625"/>
      <point x="735.375" y="1052.0" type="curve" smooth="yes"/>
      <point x="698.625" y="1051.75"/>
      <point x="628.625" y="1048.625"/>
      <point x="590.5" y="1046.625" type="curve"/>
      <point x="601.75" y="1083.75"/>
      <point x="613.0" y="1125.25"/>
      <point x="624.0" y="1165.5" type="curve" smooth="yes"/>
      <point x="656.875" y="1287.625"/>
      <point x="684.125" y="1414.0"/>
      <point x="684.625" y="1431.375" type="curve"/>
      <point x="570.875" y="1431.125" type="line"/>
      <point x="563.25" y="1389.5"/>
      <point x="549.5" y="1330.25"/>
      <point x="533.375" y="1268.625" type="curve" smooth="yes"/>
      <point x="512.875" y="1192.0"/>
      <point x="488.75" y="1109.0"/>
      <point x="464.625" y="1037.5" type="curve"/>
      <point x="366.625" y="1030.875"/>
      <point x="244.875" y="1013.5"/>
      <point x="169.0" y="1001.875" type="curve"/>
      <point x="163.875" y="983.375"/>
      <point x="151.875" y="927.375"/>
      <point x="150.375" y="897.125" type="curve"/>
      <point x="174.625" y="903.375"/>
      <point x="286.125" y="924.25"/>
      <point x="438.25" y="938.5" type="curve"/>
      <point x="409.75" y="850.125"/>
      <point x="262.25" y="353.75"/>
      <point x="262.25" y="175.75" type="curve" smooth="yes"/>
      <point x="262.25" y="49.125"/>
      <point x="308.75" y="-35.5"/>
      <point x="437.875" y="-35.5" type="curve" smooth="yes"/>
      <point x="606.0" y="-35.5"/>
      <point x="691.625" y="108.25"/>
    </contour>
  </outline>
</glyph>
<glyph name="u" format="2">
  <advance width="1178.0"/>
  <unicode hex="0075"/>
  <anchor x="445.386875" y="0.0" name="bottom"/>
  <anchor x="657.75" y="0.0" name="ogonek"/>
  <anchor x="730.113125" y="1063.0" name="top"/>
  <anchor x="1064.375" y="935.25" name="topright"/>
  <outline>
    <contour>
      <point x="995.875" y="1013.875" type="curve"/>
      <point x="980.125" y="856.5"/>
      <point x="955.125" y="717.375"/>
      <point x="922.25" y="595.5" type="curve" smooth="yes"/>
      <point x="824.875" y="233.375"/>
      <point x="664.75" y="63.375"/>
      <point x="473.625" y="63.375" type="curve" smooth="yes"/>
      <point x="335.5" y="63.375"/>
      <point x="258.75" y="145.5"/>
      <point x="258.75" y="328.75" type="curve" smooth="yes"/>
      <point x="258.75" y="522.25"/>
      <point x="346.625" y="800.0"/>
      <point x="437.375" y="1037.875" type="curve"/>
      <point x="420.5" y="1043.125"/>
      <point x="397.625" y="1046.875"/>
      <point x="374.875" y="1049.5" type="curve" smooth="yes"/>
      <point x="356.25" y="1052.125"/>
      <point x="332.25" y="1053.375"/>
      <point x="316.125" y="1053.75" type="curve"/>
      <point x="220.75" y="786.0"/>
      <point x="128.5" y="512.5"/>
      <point x="128.5" y="302.75" type="curve" smooth="yes"/>
      <point x="128.5" y="97.625"/>
      <point x="213.375" y="-43.875"/>
      <point x="458.75" y="-43.875" type="curve" smooth="yes"/>
      <point x="788.5" y="-43.875"/>
      <point x="954.25" y="237.75"/>
      <point x="1042.625" y="570.875" type="curve" smooth="yes"/>
      <point x="1081.5" y="717.0"/>
      <point x="1103.875" y="872.125"/>
      <point x="1117.625" y="1016.75" type="curve"/>
      <point x="1106.625" y="1018.625"/>
      <point x="1077.125" y="1019.375"/>
      <point x="1056.375" y="1019.375" type="curve" smooth="yes"/>
      <point x="1033.125" y="1019.375"/>
      <point x="1006.875" y="1016.5"/>
    </contour>
  </outline>
</glyph>
<glyph name="v" format="2">
  <advance width="1007.0"/>
  <unicode hex="0076"/>
  <anchor x="361.585" y="0.0" name="bottom"/>
  <anchor x="646.415" y="1063.0" name="top"/>
  <outline>
    <contour>
      <point x="980.0" y="1091.0" type="curve"/>
      <point x="869.125" y="874.25"/>
      <point x="546.125" y="356.125"/>
      <point x="385.75" y="130.0" type="curve"/>
      <point x="340.25" y="349.0"/>
      <point x="302.75" y="808.25"/>
      <point x="302.75" y="1092.0" type="curve"/>
      <point x="269.625" y="1084.5"/>
      <point x="215.75" y="1072.125"/>
      <point x="185.0" y="1061.0" type="curve"/>
      <point x="196.25" y="770.25"/>
      <point x="226.0" y="305.75"/>
      <point x="297.0" y="-22.625" type="curve"/>
      <point x="309.875" y="-25.0"/>
      <point x="329.625" y="-26.625"/>
      <point x="350.5" y="-26.625" type="curve" smooth="yes"/>
      <point x="374.375" y="-26.625"/>
      <point x="398.375" y="-25.25"/>
      <point x="412.625" y="-22.625" type="curve"/>
      <point x="593.75" y="232.0"/>
      <point x="996.125" y="859.5"/>
      <point x="1099.375" y="1054.875" type="curve"/>
      <point x="1091.5" y="1060.125"/>
      <point x="1034.125" y="1079.375"/>
    </contour>
  </outline>
</glyph>
<glyph name="w" format="2">
  <advance width="1520.0"/>
  <unicode hex="0077"/>
  <anchor x="617.585" y="0.0" name="bottom"/>
  <anchor x="902.415" y="1063.0" name="top"/>
  <outline>
    <contour>
      <point x="326.5" y="7.0" type="curve" smooth="yes"/>
      <point x="468.625" y="7.0"/>
      <point x="606.125" y="126.75"/>
      <point x="681.75" y="295.5" type="curve"/>
      <point x="689.5" y="159.0"/>
      <point x="728.25" y="14.125"/>
      <point x="894.875" y="14.125" type="curve" smooth="yes"/>
      <point x="1174.875" y="14.125"/>
      <point x="1355.75" y="476.625"/>
      <point x="1453.0" y="832.0" type="curve" smooth="yes"/>
      <point x="1470.625" y="896.375"/>
      <point x="1487.625" y="973.75"/>
      <point x="1501.125" y="1038.25" type="curve"/>
      <point x="1482.375" y="1040.375"/>
      <point x="1458.375" y="1041.875"/>
      <point x="1438.75" y="1041.875" type="curve" smooth="yes"/>
      <point x="1422.25" y="1041.875"/>
      <point x="1405.875" y="1041.875"/>
      <point x="1387.625" y="1041.0" type="curve"/>
      <point x="1377.0" y="993.0"/>
      <point x="1356.0" y="903.0"/>
      <point x="1343.125" y="855.875" type="curve" smooth="yes"/>
      <point x="1244.25" y="487.875"/>
      <point x="1084.375" y="120.625"/>
      <point x="901.625" y="120.625" type="curve" smooth="yes"/>
      <point x="818.375" y="120.625"/>
      <point x="789.25" y="186.25"/>
      <point x="789.25" y="291.25" type="curve" smooth="yes"/>
      <point x="789.25" y="442.0"/>
      <point x="851.25" y="675.875"/>
      <point x="949.5" y="1036.0" type="curve"/>
      <point x="925.5" y="1039.0"/>
      <point x="861.625" y="1040.125"/>
      <point x="832.75" y="1040.125" type="curve"/>
      <point x="819.75" y="984.5"/>
      <point x="797.5" y="891.625"/>
      <point x="782.625" y="836.5" type="curve" smooth="yes"/>
      <point x="676.625" y="442.375"/>
      <point x="526.875" y="127.125"/>
      <point x="357.125" y="127.125" type="curve" smooth="yes"/>
      <point x="277.125" y="127.125"/>
      <point x="244.75" y="192.25"/>
      <point x="244.75" y="295.0" type="curve" smooth="yes"/>
      <point x="244.75" y="474.75"/>
      <point x="356.0" y="816.25"/>
      <point x="448.375" y="1054.5" type="curve"/>
      <point x="418.25" y="1057.25"/>
      <point x="357.25" y="1058.25"/>
      <point x="327.375" y="1058.25" type="curve"/>
      <point x="227.25" y="788.375"/>
      <point x="124.25" y="484.5"/>
      <point x="124.25" y="270.5" type="curve" smooth="yes"/>
      <point x="124.25" y="112.375"/>
      <point x="180.375" y="7.0"/>
    </contour>
  </outline>
</glyph>
<glyph name="x" format="2">
  <advance width="1142.0"/>
  <unicode hex="0078"/>
  <anchor x="428.585" y="0.0" name="bottom"/>
  <anchor x="713.415" y="1063.0" name="top"/>
  <outline>
    <contour>
      <point x="55.5" y="-4.5" type="curve"/>
      <point x="149.25" y="66.875"/>
      <point x="454.625" y="363.125"/>
      <point x="617.0" y="526.125" type="curve"/>
      <point x="674.875" y="418.5"/>
      <point x="778.125" y="127.25"/>
      <point x="801.125" y="-15.75" type="curve"/>
      <point x="836.625" y="-1.375"/>
      <point x="899.375" y="32.75"/>
      <point x="920.125" y="50.0" type="curve"/>
      <point x="885.0" y="189.5"/>
      <point x="771.625" y="483.625"/>
      <point x="706.75" y="603.875" type="curve"/>
      <point x="869.625" y="747.0"/>
      <point x="1078.5" y="983.75"/>
      <point x="1174.625" y="1104.375" type="curve"/>
      <point x="1155.875" y="1119.25"/>
      <point x="1094.75" y="1143.125"/>
      <point x="1068.25" y="1153.5" type="curve"/>
      <point x="971.25" y="1020.125"/>
      <point x="808.25" y="844.25"/>
      <point x="652.375" y="695.625" type="curve"/>
      <point x="607.625" y="801.875"/>
      <point x="400.625" y="1062.0"/>
      <point x="327.125" y="1145.375" type="curve"/>
      <point x="291.625" y="1126.25"/>
      <point x="239.75" y="1090.625"/>
      <point x="217.75" y="1069.5" type="curve"/>
      <point x="305.5" y="974.25"/>
      <point x="477.5" y="782.875"/>
      <point x="569.75" y="612.625" type="curve"/>
      <point x="410.25" y="464.0"/>
      <point x="45.25" y="128.25"/>
      <point x="-18.25" y="77.25" type="curve"/>
      <point x="-10.625" y="60.125"/>
      <point x="31.375" y="17.125"/>
    </contour>
  </outline>
</glyph>
<glyph name="y" format="2">
  <advance width="1079.0"/>
  <unicode hex="0079"/>
  <anchor x="397.585" y="0.0" name="bottom"/>
  <anchor x="682.415" y="1063.0" name="top"/>
  <outline>
    <contour>
      <point x="162.75" y="-528.625" type="curve" smooth="yes"/>
      <point x="472.875" y="-528.625"/>
      <point x="675.25" y="-279.875"/>
      <point x="782.125" y="56.0" type="curve" smooth="yes"/>
      <point x="862.0" y="307.25"/>
      <point x="952.5" y="595.75"/>
      <point x="1005.75" y="793.125" type="curve" smooth="yes"/>
      <point x="1022.5" y="855.75"/>
      <point x="1036.125" y="910.25"/>
      <point x="1045.625" y="953.625" type="curve"/>
      <point x="1030.125" y="958.375"/>
      <point x="1007.25" y="960.25"/>
      <point x="983.625" y="960.25" type="curve" smooth="yes"/>
      <point x="966.0" y="960.25"/>
      <point x="948.25" y="959.125"/>
      <point x="933.75" y="957.0" type="curve"/>
      <point x="929.0" y="936.625"/>
      <point x="847.375" y="659.625"/>
      <point x="793.875" y="515.5" type="curve" smooth="yes"/>
      <point x="704.625" y="270.75"/>
      <point x="561.25" y="156.5"/>
      <point x="403.375" y="156.5" type="curve" smooth="yes"/>
      <point x="288.125" y="156.5"/>
      <point x="250.0" y="240.25"/>
      <point x="250.0" y="356.125" type="curve" smooth="yes"/>
      <point x="250.0" y="519.25"/>
      <point x="336.375" y="808.25"/>
      <point x="401.625" y="986.75" type="curve"/>
      <point x="393.5" y="989.375"/>
      <point x="370.125" y="990.125"/>
      <point x="346.25" y="990.125" type="curve" smooth="yes"/>
      <point x="320.75" y="990.125"/>
      <point x="292.5" y="988.875"/>
      <point x="278.375" y="986.375" type="curve"/>
      <point x="200.875" y="745.75"/>
      <point x="128.875" y="500.375"/>
      <point x="128.875" y="318.125" type="curve" smooth="yes"/>
      <point x="128.875" y="147.75"/>
      <point x="192.875" y="42.125"/>
      <point x="362.5" y="42.125" type="curve" smooth="yes"/>
      <point x="569.375" y="42.125"/>
      <point x="675.875" y="149.25"/>
      <point x="720.0" y="225.625" type="curve"/>
      <point x="629.375" y="-110.0"/>
      <point x="451.875" y="-417.0"/>
      <point x="182.25" y="-417.0" type="curve" smooth="yes"/>
      <point x="44.0" y="-417.0"/>
      <point x="-78.625" y="-337.875"/>
      <point x="-113.0" y="-302.75" type="curve"/>
      <point x="-139.375" y="-327.375"/>
      <point x="-190.25" y="-385.625"/>
      <point x="-204.375" y="-407.125" type="curve"/>
      <point x="-150.25" y="-456.125"/>
      <point x="-12.0" y="-528.625"/>
    </contour>
  </outline>
</glyph>
<glyph name="z" format="2">
  <advance width="1074.0"/>
  <unicode hex="007A"/>
  <anchor x="357.5" y="0.0" name="bottom"/>
  <anchor x="499.5" y="532.0" name="center"/>
  <anchor x="641.5" y="1063.0" name="top"/>
  <outline>
    <contour>
      <point x="841.875" y="6.375" type="curve"/>
      <point x="852.875" y="24.625"/>
      <point x="880.875" y="109.875"/>
      <point x="886.25" y="132.75" type="curve"/>
      <point x="804.5" y="123.0"/>
      <point x="620.75" y="117.25"/>
      <point x="453.25" y="117.25" type="curve" smooth="yes"/>
      <point x="303.25" y="117.25"/>
      <point x="176.125" y="121.625"/>
      <point x="138.75" y="129.625" type="curve"/>
      <point x="261.375" y="250.125"/>
      <point x="926.75" y="813.125"/>
      <point x="1083.375" y="926.625" type="curve"/>
      <point x="1087.5" y="943.25"/>
      <point x="1106.5" y="1028.25"/>
      <point x="1106.5" y="1037.125" type="curve"/>
      <point x="980.125" y="1042.375"/>
      <point x="852.625" y="1044.125"/>
      <point x="740.0" y="1044.125" type="curve" smooth="yes"/>
      <point x="483.625" y="1044.125"/>
      <point x="289.375" y="1032.25"/>
      <point x="239.375" y="1028.5" type="curve"/>
      <point x="205.625" y="921.5" type="line"/>
      <point x="228.375" y="926.625"/>
      <point x="462.75" y="933.625"/>
      <point x="656.125" y="933.625" type="curve" smooth="yes"/>
      <point x="772.5" y="933.625"/>
      <point x="885.125" y="932.375"/>
      <point x="912.375" y="927.625" type="curve"/>
      <point x="837.5" y="868.875"/>
      <point x="123.375" y="281.0"/>
      <point x="-18.75" y="147.0" type="curve"/>
      <point x="-60.375" y="12.0" type="line"/>
      <point x="66.25" y="0.25"/>
      <point x="242.125" y="-4.0"/>
      <point x="417.625" y="-4.0" type="curve" smooth="yes"/>
      <point x="569.625" y="-4.0"/>
      <point x="725.75" y="1.125"/>
    </contour>
  </outline>
</glyph>
<glyph name="braceleft" format="2">
  <advance width="665.0"/>
  <unicode hex="007B"/>
  <outline>
    <contour>
      <point x="300.0" y="-369.625" type="curve"/>
      <point x="325.75" y="-342.75"/>
      <point x="340.75" y="-311.125"/>
      <point x="353.25" y="-285.75" type="curve"/>
      <point x="267.75" y="-267.875"/>
      <point x="230.0" y="-181.375"/>
      <point x="230.0" y="-80.625" type="curve" smooth="yes"/>
      <point x="230.0" y="25.125"/>
      <point x="266.5" y="100.125"/>
      <point x="304.125" y="173.5" type="curve" smooth="yes"/>
      <point x="340.0" y="243.25"/>
      <point x="372.875" y="310.625"/>
      <point x="372.875" y="401.0" type="curve" smooth="yes"/>
      <point x="372.875" y="542.0"/>
      <point x="257.625" y="598.25"/>
      <point x="161.125" y="610.625" type="curve"/>
      <point x="155.0" y="597.875" type="line"/>
      <point x="280.5" y="610.375"/>
      <point x="415.875" y="705.5"/>
      <point x="459.125" y="892.375" type="curve" smooth="yes"/>
      <point x="471.625" y="945.0"/>
      <point x="472.875" y="982.375"/>
      <point x="472.875" y="1018.0" type="curve" smooth="yes"/>
      <point x="472.875" y="1055.875"/>
      <point x="474.25" y="1092.125"/>
      <point x="488.125" y="1144.75" type="curve" smooth="yes"/>
      <point x="526.625" y="1290.0"/>
      <point x="656.875" y="1441.875"/>
      <point x="839.375" y="1458.0" type="curve"/>
      <point x="840.25" y="1480.125"/>
      <point x="839.375" y="1525.125"/>
      <point x="829.125" y="1542.25" type="curve"/>
      <point x="593.375" y="1526.375"/>
      <point x="434.625" y="1361.875"/>
      <point x="383.625" y="1168.25" type="curve" smooth="yes"/>
      <point x="369.375" y="1112.75"/>
      <point x="366.125" y="1070.75"/>
      <point x="365.875" y="1028.625" type="curve" smooth="yes"/>
      <point x="365.625" y="988.625"/>
      <point x="362.125" y="947.125"/>
      <point x="349.875" y="893.625" type="curve" smooth="yes"/>
      <point x="320.125" y="763.375"/>
      <point x="236.75" y="673.875"/>
      <point x="104.875" y="651.375" type="curve"/>
      <point x="98.625" y="641.125"/>
      <point x="93.5" y="624.75"/>
      <point x="89.25" y="608.0" type="curve" smooth="yes"/>
      <point x="84.875" y="590.0"/>
      <point x="81.5" y="569.875"/>
      <point x="81.5" y="555.625" type="curve"/>
      <point x="195.0" y="527.375"/>
      <point x="264.125" y="475.875"/>
      <point x="264.125" y="381.75" type="curve" smooth="yes"/>
      <point x="264.125" y="300.25"/>
      <point x="233.5" y="237.5"/>
      <point x="201.125" y="171.25" type="curve" smooth="yes"/>
      <point x="164.5" y="97.25"/>
      <point x="125.25" y="17.0"/>
      <point x="125.25" y="-102.125" type="curve" smooth="yes"/>
      <point x="125.25" y="-240.0"/>
      <point x="183.0" y="-356.0"/>
    </contour>
  </outline>
</glyph>
<glyph name="bar" format="2">
  <advance width="487.0"/>
  <unicode hex="007C"/>
  <outline>
    <contour>
      <point x="-2.25" y="-559.25" type="curve"/>
      <point x="28.375" y="-479.375"/>
      <point x="87.625" y="-270.875"/>
      <point x="157.75" y="-9.75" type="curve" smooth="yes"/>
      <point x="286.75" y="469.75"/>
      <point x="457.875" y="1148.5"/>
      <point x="546.625" y="1531.25" type="curve"/>
      <point x="514.25" y="1531.25"/>
      <point x="470.5" y="1529.25"/>
      <point x="451.125" y="1526.25" type="curve"/>
      <point x="336.0" y="1131.125"/>
      <point x="236.125" y="771.375"/>
      <point x="151.625" y="458.5" type="curve" smooth="yes"/>
      <point x="33.5" y="19.875"/>
      <point x="-51.0" y="-327.25"/>
      <point x="-100.5" y="-551.875" type="curve"/>
      <point x="-76.875" y="-556.375"/>
      <point x="-25.375" y="-559.25"/>
    </contour>
  </outline>
</glyph>
<glyph name="braceright" format="2">
  <advance width="614.0"/>
  <unicode hex="007D"/>
  <outline>
    <contour>
      <point x="-98.75" y="-368.25" type="curve"/>
      <point x="125.375" y="-354.875"/>
      <point x="271.5" y="-178.875"/>
      <point x="314.375" y="9.75" type="curve" smooth="yes"/>
      <point x="329.25" y="66.125"/>
      <point x="331.875" y="106.25"/>
      <point x="331.625" y="145.625" type="curve" smooth="yes"/>
      <point x="331.375" y="184.25"/>
      <point x="334.875" y="221.125"/>
      <point x="348.0" y="272.375" type="curve" smooth="yes"/>
      <point x="380.375" y="410.0"/>
      <point x="470.75" y="534.125"/>
      <point x="598.75" y="551.875" type="curve"/>
      <point x="606.375" y="561.875"/>
      <point x="615.25" y="579.5"/>
      <point x="620.375" y="599.375" type="curve" smooth="yes"/>
      <point x="626.125" y="620.0"/>
      <point x="626.5" y="640.625"/>
      <point x="626.5" y="653.875" type="curve"/>
      <point x="521.125" y="671.375"/>
      <point x="438.0" y="711.375"/>
      <point x="438.0" y="800.375" type="curve" smooth="yes"/>
      <point x="438.0" y="870.125"/>
      <point x="471.875" y="937.875"/>
      <point x="509.625" y="1012.875" type="curve" smooth="yes"/>
      <point x="553.875" y="1100.875"/>
      <point x="602.5" y="1197.75"/>
      <point x="602.5" y="1314.625" type="curve" smooth="yes"/>
      <point x="602.5" y="1442.625"/>
      <point x="549.125" y="1546.625"/>
      <point x="420.875" y="1558.375" type="curve"/>
      <point x="404.125" y="1537.75"/>
      <point x="380.125" y="1498.75"/>
      <point x="368.5" y="1476.625" type="curve"/>
      <point x="469.375" y="1464.375"/>
      <point x="497.875" y="1384.25"/>
      <point x="497.875" y="1290.625" type="curve" smooth="yes"/>
      <point x="497.875" y="1175.625"/>
      <point x="453.875" y="1092.875"/>
      <point x="411.5" y="1014.5" type="curve" smooth="yes"/>
      <point x="371.75" y="941.25"/>
      <point x="334.625" y="872.375"/>
      <point x="334.625" y="785.0" type="curve" smooth="yes"/>
      <point x="334.625" y="650.875"/>
      <point x="463.625" y="609.375"/>
      <point x="548.25" y="598.875" type="curve"/>
      <point x="553.75" y="610.0" type="line"/>
      <point x="428.125" y="605.625"/>
      <point x="291.125" y="465.375"/>
      <point x="250.0" y="286.0" type="curve" smooth="yes"/>
      <point x="236.0" y="229.0"/>
      <point x="233.75" y="188.75"/>
      <point x="234.125" y="148.5" type="curve" smooth="yes"/>
      <point x="234.5" y="110.625"/>
      <point x="233.0" y="72.875"/>
      <point x="219.875" y="21.125" type="curve" smooth="yes"/>
      <point x="182.25" y="-136.75"/>
      <point x="71.5" y="-272.125"/>
      <point x="-113.625" y="-290.625" type="curve"/>
      <point x="-113.625" y="-321.0"/>
      <point x="-107.75" y="-350.875"/>
    </contour>
  </outline>
</glyph>
<glyph name="asciitilde" format="2">
  <advance width="1115.0"/>
  <unicode hex="007E"/>
  <outline>
    <contour>
      <point x="236.875" y="726.75" type="curve"/>
      <point x="317.625" y="672.625" type="line"/>
      <point x="346.5" y="745.375"/>
      <point x="404.0" y="817.75"/>
      <point x="485.375" y="817.75" type="curve" smooth="yes"/>
      <point x="531.875" y="817.75"/>
      <point x="570.75" y="777.0"/>
      <point x="612.5" y="732.125" type="curve" smooth="yes"/>
      <point x="664.0" y="676.0"/>
      <point x="722.625" y="613.375"/>
      <point x="810.375" y="613.375" type="curve" smooth="yes"/>
      <point x="933.0" y="613.375"/>
      <point x="1003.375" y="735.0"/>
      <point x="1019.75" y="789.625" type="curve"/>
      <point x="929.75" y="829.75" type="line"/>
      <point x="909.25" y="762.125"/>
      <point x="868.625" y="707.125"/>
      <point x="807.125" y="707.125" type="curve" smooth="yes"/>
      <point x="743.25" y="707.125"/>
      <point x="699.625" y="753.125"/>
      <point x="656.625" y="801.375" type="curve" smooth="yes"/>
      <point x="610.0" y="853.875"/>
      <point x="559.0" y="905.75"/>
      <point x="479.5" y="905.75" type="curve" smooth="yes"/>
      <point x="359.25" y="905.75"/>
      <point x="264.75" y="804.5"/>
    </contour>
  </outline>
</glyph>
<glyph name="exclamdown" format="2">
  <advance width="708.0"/>
  <unicode hex="00A1"/>
  <outline>
    <contour>
      <point x="389.875" y="709.0" type="curve"/>
      <point x="313.0" y="428.0"/>
      <point x="125.25" y="-200.125"/>
      <point x="45.625" y="-399.375" type="curve"/>
      <point x="171.25" y="-406.125" type="line"/>
      <point x="238.875" y="-228.25"/>
      <point x="407.75" y="383.25"/>
      <point x="490.125" y="703.375" type="curve"/>
      <point x="474.625" y="706.375"/>
      <point x="409.75" y="709.0"/>
    </contour>
    <contour>
      <point x="515.375" y="1093.0" type="curve" smooth="yes"/>
      <point x="435.875" y="1093.0"/>
      <point x="364.75" y="1032.0"/>
      <point x="364.75" y="950.5" type="curve" smooth="yes"/>
      <point x="364.75" y="891.0"/>
      <point x="408.5" y="851.5"/>
      <point x="472.5" y="851.5" type="curve" smooth="yes"/>
      <point x="554.25" y="851.5"/>
      <point x="630.375" y="904.375"/>
      <point x="630.375" y="991.375" type="curve" smooth="yes"/>
      <point x="630.375" y="1048.5"/>
      <point x="590.5" y="1093.0"/>
    </contour>
  </outline>
</glyph>
<glyph name="cent" format="2">
  <advance width="1026.0"/>
  <unicode hex="00A2"/>
  <anchor x="384.625" y="126.375" name="bottom"/>
  <anchor x="631.426875" y="1189.375" name="top"/>
  <outline>
    <contour>
      <point x="788.25" y="1322.0" type="curve"/>
      <point x="668.75" y="994.625"/>
      <point x="374.375" y="361.875"/>
      <point x="184.75" y="10.625" type="curve"/>
      <point x="204.625" y="-0.625"/>
      <point x="245.5" y="-12.875"/>
      <point x="277.375" y="-19.0" type="curve"/>
      <point x="407.375" y="211.125"/>
      <point x="774.125" y="1022.5"/>
      <point x="873.25" y="1311.125" type="curve"/>
      <point x="861.25" y="1317.0"/>
      <point x="817.0" y="1322.0"/>
    </contour>
    <component base="c" xOffset="-14.875" yOffset="126.375"/>
  </outline>
</glyph>
<glyph name="sterling" format="2">
  <advance width="1140.0"/>
  <unicode hex="00A3"/>
  <outline>
    <contour>
      <point x="234.0" y="603.125" type="curve" smooth="yes"/>
      <point x="414.75" y="603.125"/>
      <point x="725.125" y="621.875"/>
      <point x="820.0" y="647.875" type="curve"/>
      <point x="829.25" y="681.0"/>
      <point x="838.125" y="724.0"/>
      <point x="838.875" y="750.0" type="curve"/>
      <point x="741.0" y="730.25"/>
      <point x="425.625" y="709.5"/>
      <point x="239.5" y="709.5" type="curve" smooth="yes"/>
      <point x="198.625" y="709.5"/>
      <point x="165.875" y="710.5"/>
      <point x="140.5" y="712.625" type="curve"/>
      <point x="111.875" y="609.125" type="line"/>
      <point x="134.0" y="605.125"/>
      <point x="176.75" y="603.125"/>
    </contour>
    <component base="sterlira"/>
  </outline>
</glyph>
<glyph name="currency" format="2">
  <advance width="974.0"/>
  <unicode hex="00A4"/>
  <outline>
    <contour>
      <point x="14.875" y="96.75" type="curve"/>
      <point x="108.75" y="172.125"/>
      <point x="248.125" y="294.0"/>
      <point x="301.125" y="343.125" type="curve"/>
      <point x="230.625" y="402.375" type="line"/>
      <point x="139.125" y="332.875"/>
      <point x="30.625" y="247.375"/>
      <point x="-50.75" y="177.625" type="curve"/>
      <point x="-32.375" y="152.125"/>
      <point x="-4.125" y="119.5"/>
    </contour>
    <contour>
      <point x="702.125" y="123.875" type="curve"/>
      <point x="735.0" y="145.375"/>
      <point x="768.625" y="174.25"/>
      <point x="787.375" y="200.0" type="curve"/>
      <point x="747.5" y="247.375"/>
      <point x="696.125" y="310.75"/>
      <point x="649.25" y="364.125" type="curve"/>
      <point x="564.0" y="309.0" type="line"/>
      <point x="597.375" y="274.625"/>
      <point x="650.875" y="195.125"/>
    </contour>
    <contour>
      <point x="312.5" y="695.5" type="curve"/>
      <point x="393.0" y="765.0" type="line"/>
      <point x="354.875" y="841.25"/>
      <point x="303.25" y="922.125"/>
      <point x="255.0" y="976.375" type="curve"/>
      <point x="227.125" y="960.375"/>
      <point x="174.0" y="922.625"/>
      <point x="154.0" y="907.25" type="curve"/>
      <point x="200.875" y="837.875"/>
      <point x="254.0" y="762.0"/>
    </contour>
    <contour>
      <point x="734.375" y="703.375" type="line"/>
      <point x="809.625" y="751.875"/>
      <point x="907.875" y="818.875"/>
      <point x="999.25" y="889.5" type="curve"/>
      <point x="989.625" y="912.375"/>
      <point x="960.625" y="952.375"/>
      <point x="942.25" y="969.875" type="curve"/>
      <point x="850.875" y="897.0"/>
      <point x="757.5" y="823.125"/>
      <point x="688.25" y="770.375" type="curve"/>
    </contour>
    <component base="degree" xOffset="-126.0" yOffset="-656.0"/>
  </outline>
</glyph>
<glyph name="yen" format="2">
  <advance width="1065.0"/>
  <unicode hex="00A5"/>
  <anchor x="398.75" y="0.0" name="bottom"/>
  <anchor x="744.75" y="1291.0" name="top"/>
  <anchor x="231.75" y="1291.0" name="topleft"/>
  <outline>
    <contour>
      <point x="121.625" y="480.0" type="curve"/>
      <point x="239.5" y="482.875"/>
      <point x="797.625" y="491.875"/>
      <point x="891.625" y="491.875" type="curve"/>
      <point x="897.375" y="513.5"/>
      <point x="900.875" y="542.375"/>
      <point x="902.125" y="572.625" type="curve"/>
      <point x="829.875" y="582.625"/>
      <point x="716.25" y="586.75"/>
      <point x="589.375" y="586.75" type="curve" smooth="yes"/>
      <point x="409.625" y="586.75"/>
      <point x="308.625" y="581.75"/>
      <point x="163.0" y="571.625" type="curve"/>
      <point x="152.25" y="552.25"/>
      <point x="130.0" y="506.75"/>
    </contour>
    <contour>
      <point x="835.0" y="273.5" type="curve"/>
      <point x="843.25" y="295.0"/>
      <point x="851.0" y="325.25"/>
      <point x="858.0" y="355.75" type="curve"/>
      <point x="788.375" y="358.625"/>
      <point x="695.75" y="360.25"/>
      <point x="596.125" y="360.25" type="curve" smooth="yes"/>
      <point x="388.875" y="360.25"/>
      <point x="250.625" y="357.625"/>
      <point x="87.875" y="347.875" type="curve"/>
      <point x="73.375" y="322.875"/>
      <point x="59.375" y="292.625"/>
      <point x="53.125" y="269.25" type="curve"/>
      <point x="148.0" y="271.0"/>
      <point x="734.75" y="273.875"/>
    </contour>
    <component base="Y" xOffset="-12.25"/>
  </outline>
</glyph>
<glyph name="brokenbar" format="2">
  <advance width="432.0"/>
  <unicode hex="00A6"/>
  <outline>
    <contour>
      <point x="79.375" y="267.375" type="curve"/>
      <point x="33.5" y="96.75"/>
      <point x="-83.125" y="-387.625"/>
      <point x="-105.375" y="-487.125" type="curve"/>
      <point x="-81.75" y="-487.125"/>
      <point x="-26.5" y="-483.5"/>
      <point x="-7.375" y="-479.125" type="curve"/>
      <point x="14.5" y="-380.875"/>
      <point x="154.75" y="158.0"/>
      <point x="183.75" y="269.0" type="curve"/>
      <point x="153.875" y="269.0"/>
      <point x="112.125" y="268.625"/>
    </contour>
    <contour>
      <point x="194.875" y="678.375" type="curve"/>
      <point x="211.875" y="677.875"/>
      <point x="265.0" y="679.0"/>
      <point x="302.625" y="681.625" type="curve"/>
      <point x="340.25" y="824.0"/>
      <point x="482.5" y="1327.0"/>
      <point x="535.125" y="1491.75" type="curve"/>
      <point x="517.75" y="1498.875"/>
      <point x="481.5" y="1502.0"/>
      <point x="452.25" y="1502.0" type="curve"/>
      <point x="396.625" y="1348.5"/>
      <point x="270.875" y="962.0"/>
    </contour>
  </outline>
</glyph>
<glyph name="section" format="2">
  <advance width="1000.0"/>
  <unicode hex="00A7"/>
  <outline>
    <contour>
      <point x="581.375" y="764.375" type="curve"/>
      <point x="495.875" y="840.75" type="line"/>
      <point x="313.125" y="809.0"/>
      <point x="142.625" y="705.625"/>
      <point x="142.625" y="529.5" type="curve" smooth="yes"/>
      <point x="142.625" y="391.25"/>
      <point x="273.0" y="327.625"/>
      <point x="441.375" y="266.75" type="curve" smooth="yes"/>
      <point x="594.875" y="210.75"/>
      <point x="667.25" y="157.125"/>
      <point x="667.25" y="47.625" type="curve" smooth="yes"/>
      <point x="667.25" y="-126.5"/>
      <point x="491.125" y="-238.0"/>
      <point x="311.0" y="-238.0" type="curve" smooth="yes"/>
      <point x="149.75" y="-238.0"/>
      <point x="-11.0" y="-148.25"/>
      <point x="-63.75" y="-43.0" type="curve"/>
      <point x="-94.5" y="-62.25"/>
      <point x="-138.125" y="-110.125"/>
      <point x="-160.125" y="-144.25" type="curve"/>
      <point x="-68.875" y="-277.375"/>
      <point x="144.375" y="-346.75"/>
      <point x="299.0" y="-346.75" type="curve" smooth="yes"/>
      <point x="557.625" y="-346.75"/>
      <point x="786.75" y="-189.5"/>
      <point x="786.75" y="56.0" type="curve" smooth="yes"/>
      <point x="786.75" y="186.5"/>
      <point x="699.0" y="297.875"/>
      <point x="482.875" y="366.125" type="curve" smooth="yes"/>
      <point x="356.875" y="406.875"/>
      <point x="266.625" y="470.125"/>
      <point x="266.625" y="560.0" type="curve" smooth="yes"/>
      <point x="266.625" y="693.25"/>
      <point x="449.0" y="756.875"/>
    </contour>
    <contour>
      <point x="589.375" y="287.125" type="curve"/>
      <point x="654.5" y="206.875" type="line"/>
      <point x="812.5" y="275.875"/>
      <point x="950.75" y="399.375"/>
      <point x="950.75" y="564.625" type="curve" smooth="yes"/>
      <point x="950.75" y="700.375"/>
      <point x="838.0" y="786.5"/>
      <point x="624.625" y="860.0" type="curve" smooth="yes"/>
      <point x="502.875" y="902.625"/>
      <point x="417.625" y="959.25"/>
      <point x="417.625" y="1048.75" type="curve" smooth="yes"/>
      <point x="417.625" y="1188.875"/>
      <point x="568.5" y="1244.875"/>
      <point x="724.5" y="1244.875" type="curve" smooth="yes"/>
      <point x="843.75" y="1244.875"/>
      <point x="936.875" y="1201.5"/>
      <point x="996.75" y="1162.875" type="curve"/>
      <point x="1021.75" y="1187.75"/>
      <point x="1056.625" y="1232.0"/>
      <point x="1072.75" y="1254.25" type="curve"/>
      <point x="1023.625" y="1294.125"/>
      <point x="897.625" y="1354.625"/>
      <point x="731.25" y="1354.625" type="curve" smooth="yes"/>
      <point x="498.125" y="1354.625"/>
      <point x="297.375" y="1239.75"/>
      <point x="297.375" y="1015.75" type="curve" smooth="yes"/>
      <point x="297.375" y="877.75"/>
      <point x="401.25" y="821.25"/>
      <point x="564.625" y="760.625" type="curve" smooth="yes"/>
      <point x="718.25" y="703.625"/>
      <point x="830.375" y="649.25"/>
      <point x="830.375" y="547.875" type="curve" smooth="yes"/>
      <point x="830.375" y="430.375"/>
      <point x="708.25" y="332.0"/>
    </contour>
  </outline>
</glyph>
<glyph name="copyright" format="2">
  <advance width="1745.0"/>
  <unicode hex="00A9"/>
  <outline>
    <contour>
      <point x="758.125" y="-68.0" type="curve" smooth="yes"/>
      <point x="1290.625" y="-68.0"/>
      <point x="1681.75" y="286.25"/>
      <point x="1681.75" y="813.625" type="curve" smooth="yes"/>
      <point x="1681.75" y="1132.5"/>
      <point x="1461.0" y="1350.0"/>
      <point x="1080.625" y="1350.0" type="curve" smooth="yes"/>
      <point x="515.0" y="1350.0"/>
      <point x="121.375" y="1005.125"/>
      <point x="121.375" y="452.875" type="curve" smooth="yes"/>
      <point x="121.375" y="145.875"/>
      <point x="340.25" y="-68.0"/>
    </contour>
    <contour>
      <point x="763.125" y="28.375" type="curve" smooth="yes"/>
      <point x="467.375" y="28.375"/>
      <point x="243.875" y="176.875"/>
      <point x="243.875" y="481.75" type="curve" smooth="yes"/>
      <point x="243.875" y="925.25"/>
      <point x="598.75" y="1259.0"/>
      <point x="1051.0" y="1259.0" type="curve" smooth="yes"/>
      <point x="1377.75" y="1259.0"/>
      <point x="1558.0" y="1089.125"/>
      <point x="1558.0" y="802.5" type="curve" smooth="yes"/>
      <point x="1558.0" y="342.0"/>
      <point x="1220.0" y="28.375"/>
    </contour>
    <contour>
      <point x="818.25" y="281.25" type="curve" smooth="yes"/>
      <point x="971.25" y="281.25"/>
      <point x="1130.0" y="355.25"/>
      <point x="1233.75" y="492.25" type="curve"/>
      <point x="1221.625" y="510.625"/>
      <point x="1189.625" y="540.375"/>
      <point x="1166.375" y="555.0" type="curve"/>
      <point x="1101.375" y="485.0"/>
      <point x="992.75" y="386.375"/>
      <point x="849.25" y="386.375" type="curve" smooth="yes"/>
      <point x="768.125" y="386.375"/>
      <point x="648.625" y="403.625"/>
      <point x="648.625" y="549.0" type="curve" smooth="yes"/>
      <point x="648.625" y="737.875"/>
      <point x="814.0" y="886.25"/>
      <point x="1000.625" y="886.25" type="curve" smooth="yes"/>
      <point x="1112.875" y="886.25"/>
      <point x="1184.5" y="849.875"/>
      <point x="1197.5" y="816.25" type="curve"/>
      <point x="1222.375" y="838.875"/>
      <point x="1254.0" y="869.875"/>
      <point x="1278.875" y="898.25" type="curve"/>
      <point x="1242.875" y="957.25"/>
      <point x="1150.25" y="986.25"/>
      <point x="1037.375" y="986.25" type="curve" smooth="yes"/>
      <point x="772.375" y="986.25"/>
      <point x="539.875" y="795.875"/>
      <point x="539.875" y="530.75" type="curve" smooth="yes"/>
      <point x="539.875" y="375.25"/>
      <point x="635.0" y="281.25"/>
    </contour>
  </outline>
</glyph>
<glyph name="ordfeminine" format="2">
  <advance width="750.0"/>
  <unicode hex="00AA"/>
  <outline>
    <contour>
      <point x="636.875" y="709.25" type="curve"/>
      <point x="650.75" y="706.75"/>
      <point x="681.875" y="704.75"/>
      <point x="704.875" y="704.75" type="curve" smooth="yes"/>
      <point x="714.25" y="704.75"/>
      <point x="735.125" y="705.625"/>
      <point x="738.625" y="706.625" type="curve"/>
      <point x="802.25" y="866.875"/>
      <point x="865.625" y="1046.75"/>
      <point x="865.625" y="1177.375" type="curve" smooth="yes"/>
      <point x="865.625" y="1328.625"/>
      <point x="787.25" y="1418.125"/>
      <point x="596.75" y="1418.125" type="curve" smooth="yes"/>
      <point x="448.25" y="1418.125"/>
      <point x="326.25" y="1357.375"/>
      <point x="247.5" y="1280.25" type="curve"/>
      <point x="311.75" y="1218.875" type="line"/>
      <point x="370.875" y="1280.875"/>
      <point x="462.5" y="1330.375"/>
      <point x="578.125" y="1330.375" type="curve" smooth="yes"/>
      <point x="696.25" y="1330.375"/>
      <point x="772.625" y="1274.5"/>
      <point x="772.625" y="1162.125" type="curve" smooth="yes"/>
      <point x="772.625" y="1148.375"/>
      <point x="771.625" y="1133.75"/>
      <point x="768.875" y="1118.25" type="curve"/>
      <point x="750.375" y="1127.375"/>
      <point x="604.0" y="1146.375"/>
      <point x="541.25" y="1146.375" type="curve" smooth="yes"/>
      <point x="350.0" y="1146.375"/>
      <point x="147.5" y="1059.25"/>
      <point x="147.5" y="881.25" type="curve" smooth="yes"/>
      <point x="147.5" y="764.375"/>
      <point x="257.0" y="717.625"/>
      <point x="407.25" y="717.625" type="curve" smooth="yes"/>
      <point x="501.5" y="717.625"/>
      <point x="629.125" y="765.875"/>
      <point x="679.5" y="807.125" type="curve"/>
      <point x="669.125" y="784.625"/>
      <point x="643.375" y="724.75"/>
    </contour>
    <contour>
      <point x="428.375" y="798.875" type="curve" smooth="yes"/>
      <point x="320.875" y="798.875"/>
      <point x="252.0" y="820.0"/>
      <point x="252.0" y="893.0" type="curve" smooth="yes"/>
      <point x="252.0" y="1013.5"/>
      <point x="397.0" y="1071.375"/>
      <point x="523.625" y="1071.375" type="curve" smooth="yes"/>
      <point x="610.25" y="1071.375"/>
      <point x="727.5" y="1053.375"/>
      <point x="751.5" y="1046.5" type="curve"/>
      <point x="748.0" y="1027.5"/>
      <point x="744.125" y="1008.75"/>
      <point x="739.5" y="989.875" type="curve" smooth="yes"/>
      <point x="733.25" y="965.125"/>
      <point x="725.125" y="939.0"/>
      <point x="711.125" y="901.0" type="curve"/>
      <point x="639.625" y="842.125"/>
      <point x="527.5" y="798.875"/>
    </contour>
  </outline>
</glyph>
<glyph name="guillemetleft" format="2">
  <advance width="1214.0"/>
  <unicode hex="00AB"/>
  <outline>
    <contour>
      <point x="1261.75" y="1135.0" type="curve"/>
      <point x="1057.625" y="993.75"/>
      <point x="811.375" y="794.75"/>
      <point x="564.25" y="572.5" type="curve"/>
      <point x="1008.875" y="173.375" type="line"/>
      <point x="1023.25" y="183.0"/>
      <point x="1063.25" y="240.25"/>
      <point x="1072.875" y="272.25" type="curve"/>
      <point x="1033.0" y="315.75"/>
      <point x="836.375" y="480.125"/>
      <point x="700.125" y="592.375" type="curve"/>
      <point x="1311.125" y="1060.875" type="line"/>
      <point x="1303.25" y="1075.0"/>
      <point x="1284.125" y="1113.375"/>
    </contour>
    <contour>
      <point x="767.75" y="1120.125" type="curve"/>
      <point x="534.25" y="925.625"/>
      <point x="301.625" y="713.125"/>
      <point x="93.125" y="518.375" type="curve"/>
      <point x="228.875" y="330.625"/>
      <point x="393.25" y="155.75"/>
      <point x="573.0" y="0.0" type="curve"/>
      <point x="575.375" y="2.375"/>
      <point x="629.25" y="65.0"/>
      <point x="645.375" y="99.625" type="curve"/>
      <point x="620.625" y="116.875"/>
      <point x="385.625" y="353.875"/>
      <point x="215.0" y="527.75" type="curve"/>
      <point x="843.375" y="1055.25" type="line"/>
      <point x="822.25" y="1073.0"/>
      <point x="785.75" y="1105.75"/>
    </contour>
  </outline>
</glyph>
<glyph name="logicalnot" format="2">
  <advance width="1000.0"/>
  <unicode hex="00AC"/>
  <outline>
    <contour>
      <point x="923.625" y="754.125" type="curve"/>
      <point x="830.5" y="754.125"/>
      <point x="271.875" y="739.75"/>
      <point x="139.625" y="734.25" type="curve"/>
      <point x="133.0" y="707.875"/>
      <point x="124.375" y="666.375"/>
      <point x="120.125" y="641.5" type="curve"/>
      <point x="223.25" y="642.0"/>
      <point x="717.625" y="654.875"/>
      <point x="804.625" y="658.5" type="curve"/>
      <point x="789.25" y="602.5"/>
      <point x="717.125" y="379.375"/>
      <point x="694.75" y="310.5" type="curve"/>
      <point x="716.875" y="310.0"/>
      <point x="764.625" y="310.875"/>
      <point x="786.375" y="315.25" type="curve"/>
      <point x="850.25" y="506.75"/>
      <point x="915.75" y="726.5"/>
    </contour>
  </outline>
</glyph>
<glyph name="softhyphen" format="2">
  <advance width="678.375"/>
  <unicode hex="00AD"/>
  <outline>
    <contour>
      <point x="674.5" y="744.25" type="curve"/>
      <point x="632.875" y="747.75"/>
      <point x="553.0" y="748.375"/>
      <point x="455.5" y="748.375" type="curve" smooth="yes"/>
      <point x="311.125" y="748.375"/>
      <point x="193.375" y="736.375"/>
      <point x="107.875" y="726.25" type="curve"/>
      <point x="99.875" y="701.0"/>
      <point x="87.25" y="655.125"/>
      <point x="82.5" y="628.625" type="curve"/>
      <point x="207.875" y="639.75"/>
      <point x="476.5" y="648.125"/>
      <point x="650.625" y="648.125" type="curve"/>
      <point x="658.0" y="672.75"/>
      <point x="670.375" y="714.625"/>
    </contour>
  </outline>
</glyph>
<glyph name="registered" format="2">
  <advance width="1400.0"/>
  <unicode hex="00AE"/>
  <outline>
    <contour>
      <point x="689.75" y="268.5" type="curve" smooth="yes"/>
      <point x="1106.625" y="268.5"/>
      <point x="1356.625" y="512.875"/>
      <point x="1356.625" y="917.0" type="curve" smooth="yes"/>
      <point x="1356.625" y="1169.125"/>
      <point x="1179.25" y="1321.0"/>
      <point x="918.75" y="1321.0" type="curve" smooth="yes"/>
      <point x="518.5" y="1321.0"/>
      <point x="217.0" y="1050.625"/>
      <point x="217.0" y="666.75" type="curve" smooth="yes"/>
      <point x="217.0" y="448.75"/>
      <point x="385.125" y="268.5"/>
    </contour>
    <contour>
      <point x="690.5" y="350.75" type="curve" smooth="yes"/>
      <point x="475.0" y="350.75"/>
      <point x="319.125" y="466.5"/>
      <point x="319.125" y="690.375" type="curve" smooth="yes"/>
      <point x="319.125" y="1009.875"/>
      <point x="584.125" y="1240.375"/>
      <point x="905.75" y="1240.375" type="curve" smooth="yes"/>
      <point x="1155.125" y="1240.375"/>
      <point x="1255.0" y="1075.375"/>
      <point x="1255.0" y="901.5" type="curve" smooth="yes"/>
      <point x="1255.0" y="558.875"/>
      <point x="1039.625" y="350.75"/>
    </contour>
    <contour>
      <point x="655.75" y="509.625" type="curve"/>
      <point x="671.625" y="562.25"/>
      <point x="725.5" y="755.375"/>
      <point x="732.25" y="789.5" type="curve"/>
      <point x="738.125" y="788.75"/>
      <point x="752.375" y="788.875"/>
      <point x="765.125" y="788.875" type="curve"/>
      <point x="791.375" y="686.875"/>
      <point x="818.125" y="602.25"/>
      <point x="852.75" y="509.625" type="curve"/>
      <point x="890.0" y="509.625"/>
      <point x="927.75" y="517.75"/>
      <point x="950.375" y="526.0" type="curve"/>
      <point x="932.875" y="568.375"/>
      <point x="871.5" y="739.125"/>
      <point x="844.25" y="808.625" type="curve"/>
      <point x="944.125" y="831.25"/>
      <point x="1029.25" y="888.625"/>
      <point x="1029.25" y="981.875" type="curve" smooth="yes"/>
      <point x="1029.25" y="1060.75"/>
      <point x="944.875" y="1083.75"/>
      <point x="861.0" y="1083.75" type="curve" smooth="yes"/>
      <point x="796.125" y="1083.75"/>
      <point x="732.125" y="1070.875"/>
      <point x="708.25" y="1060.125" type="curve"/>
      <point x="682.25" y="952.0"/>
      <point x="604.5" y="650.25"/>
      <point x="570.375" y="524.125" type="curve"/>
      <point x="593.125" y="514.25"/>
      <point x="622.75" y="509.625"/>
    </contour>
    <contour>
      <point x="746.125" y="854.125" type="curve"/>
      <point x="751.0" y="871.75"/>
      <point x="774.375" y="988.375"/>
      <point x="777.125" y="1004.5" type="curve"/>
      <point x="796.125" y="1007.375"/>
      <point x="827.375" y="1010.125"/>
      <point x="857.5" y="1010.125" type="curve" smooth="yes"/>
      <point x="902.375" y="1010.125"/>
      <point x="944.875" y="1002.75"/>
      <point x="944.875" y="971.375" type="curve" smooth="yes"/>
      <point x="944.875" y="892.375"/>
      <point x="846.625" y="854.125"/>
    </contour>
  </outline>
</glyph>
<glyph name="degree" format="2">
  <advance width="814.0"/>
  <unicode hex="00B0"/>
  <outline>
    <contour>
      <point x="517.75" y="908.125" type="curve" smooth="yes"/>
      <point x="723.25" y="908.125"/>
      <point x="920.0" y="1077.625"/>
      <point x="920.0" y="1275.875" type="curve" smooth="yes"/>
      <point x="920.0" y="1406.25"/>
      <point x="815.5" y="1491.875"/>
      <point x="660.25" y="1491.875" type="curve" smooth="yes"/>
      <point x="457.75" y="1491.875"/>
      <point x="259.875" y="1346.5"/>
      <point x="259.875" y="1144.125" type="curve" smooth="yes"/>
      <point x="259.875" y="1006.25"/>
      <point x="361.75" y="908.125"/>
    </contour>
    <contour>
      <point x="531.875" y="1001.375" type="curve" smooth="yes"/>
      <point x="427.0" y="1001.375"/>
      <point x="371.25" y="1057.375"/>
      <point x="371.25" y="1150.5" type="curve" smooth="yes"/>
      <point x="371.25" y="1287.5"/>
      <point x="498.125" y="1398.625"/>
      <point x="631.875" y="1398.625" type="curve" smooth="yes"/>
      <point x="756.375" y="1398.625"/>
      <point x="804.5" y="1340.0"/>
      <point x="804.5" y="1257.5" type="curve" smooth="yes"/>
      <point x="804.5" y="1116.625"/>
      <point x="671.125" y="1001.375"/>
    </contour>
  </outline>
</glyph>
<glyph name="twosuperior" format="2">
  <advance width="741.875"/>
  <unicode hex="00B2"/>
  <outline>
    <contour>
      <point x="686.5" y="612.0" type="curve"/>
      <point x="591.625" y="608.5"/>
      <point x="334.125" y="592.5"/>
      <point x="267.875" y="585.375" type="curve"/>
      <point x="364.75" y="661.5"/>
      <point x="474.625" y="750.125"/>
      <point x="570.25" y="840.625" type="curve" smooth="yes"/>
      <point x="704.0" y="967.0"/>
      <point x="807.125" y="1085.125"/>
      <point x="807.125" y="1181.5" type="curve" smooth="yes"/>
      <point x="807.125" y="1261.625"/>
      <point x="731.0" y="1313.375"/>
      <point x="620.75" y="1313.375" type="curve" smooth="yes"/>
      <point x="467.5" y="1313.375"/>
      <point x="330.75" y="1231.5"/>
      <point x="236.375" y="1107.375" type="curve"/>
      <point x="252.125" y="1091.0"/>
      <point x="283.625" y="1063.125"/>
      <point x="300.5" y="1053.0" type="curve"/>
      <point x="370.5" y="1147.5"/>
      <point x="470.125" y="1220.25"/>
      <point x="595.25" y="1220.25" type="curve" smooth="yes"/>
      <point x="656.5" y="1220.25"/>
      <point x="705.5" y="1199.125"/>
      <point x="705.5" y="1148.625" type="curve" smooth="yes"/>
      <point x="705.5" y="1076.25"/>
      <point x="584.875" y="960.0"/>
      <point x="437.375" y="830.75" type="curve" smooth="yes"/>
      <point x="329.75" y="739.25"/>
      <point x="213.875" y="648.25"/>
      <point x="113.625" y="574.5" type="curve"/>
      <point x="108.625" y="552.125"/>
      <point x="105.75" y="508.5"/>
      <point x="105.75" y="490.0" type="curve"/>
      <point x="659.625" y="516.0" type="line"/>
      <point x="666.0" y="531.25"/>
      <point x="683.625" y="591.125"/>
    </contour>
  </outline>
</glyph>
